<svg width="88" height="28" viewBox="0 0 88 28" fill="none" xmlns="http://www.w3.org/2000/svg">
<path fill-rule="evenodd" clip-rule="evenodd" d="M11.9218 0.198867C14.6878 -0.273542 17.5949 0.0993265 20.1424 1.27881C22.9277 2.56372 25.2792 4.78155 26.6919 7.50736C28.4016 10.7249 28.7612 14.6287 27.6797 18.1062C26.8568 20.8484 25.144 23.3083 22.8831 25.0597C20.4826 26.9492 17.4359 28.0158 14.3788 27.998C11.1969 28.0544 8.01797 26.9314 5.5417 24.9364C3.30606 23.1508 1.63788 20.6642 0.846167 17.9131C-0.0763407 14.7327 0.167261 11.2255 1.54578 8.21149C3.4056 4.0477 7.41785 0.938617 11.9218 0.198867ZM16.1153 8.35705C15.1958 9.71924 14.9923 11.3874 14.6254 12.9516C14.104 13.1878 13.535 13.3185 12.9631 13.225C13.0151 12.7407 13.1622 12.1643 12.8027 11.7588C12.3318 11.3919 11.4866 11.6087 11.3841 12.2386C11.1598 12.8625 11.6054 13.4299 12.0793 13.7761C11.3529 15.2497 10.729 16.8243 9.64162 18.078C9.24499 17.3902 9.10237 16.5911 9.10389 15.8052C9.12466 14.5352 9.39204 13.2859 9.71293 12.0633C8.88998 11.7024 7.99276 11.4052 7.08365 11.5345C5.84773 11.7558 5.17034 13.3067 5.67985 14.4089C6.04383 14.5114 6.53695 14.5396 6.69148 14.1058C6.95584 13.6275 6.54298 13.225 6.26073 12.8877C6.37652 12.7808 6.49981 12.6857 6.63056 12.6011C7.17725 12.7422 7.72389 12.9145 8.29579 12.8981C7.71496 14.3435 7.56346 15.985 7.95712 17.4986C8.14126 18.0943 8.48445 18.8281 9.18853 18.8995C9.82284 18.9916 10.2849 18.4523 10.6265 17.9992C11.5029 16.75 12.0926 15.3343 12.721 13.9529C13.2796 14.0464 13.8485 14.0895 14.4145 14.0449C14.0609 15.6701 13.7475 17.3026 13.3954 18.9292C13.2439 19.4817 13.1459 20.1488 12.5962 20.4562C12.3244 20.1576 12.1892 19.5486 11.6931 19.6036C11.2682 19.5694 11.032 20.0626 11.1018 20.4295C11.1598 21.0534 11.8802 21.3757 12.4417 21.2332C13.3568 21.089 13.9109 20.2364 14.2644 19.4565C15.0591 17.6442 15.2612 15.6522 15.7202 13.7434C16.3886 13.4849 17.023 13.1492 17.632 12.7748C17.577 13.1819 17.4715 13.6008 17.577 14.0093C17.8206 15.1368 18.7743 15.933 19.0788 17.0322C19.2006 17.4689 18.8114 17.8849 18.3955 17.9488C17.6572 17.928 17.8533 16.6846 17.069 16.7381C16.3634 16.8495 16.3664 17.8834 16.8209 18.2845C17.8251 19.2114 19.7042 18.6128 19.9939 17.2744C20.3311 16.0414 19.5868 14.9125 18.9466 13.9291C18.7268 13.528 18.3316 13.063 18.5708 12.5862C18.9214 11.9816 19.7087 11.8553 20.3474 11.9326C20.1127 12.2639 19.878 12.6887 20.089 13.0928C20.3415 13.6171 21.2224 13.5547 21.3739 12.9799C21.5982 12.0678 20.7485 11.2537 19.884 11.1899C18.5114 11.028 17.2473 11.6964 16.0425 12.252C16.2772 11.3295 16.4258 10.3892 16.6248 9.45927C16.7332 9.01364 16.8269 8.52195 17.1982 8.21002C17.5131 8.40758 17.6349 8.80567 17.9617 8.98243C18.2128 9.0181 18.5634 8.95275 18.6377 8.66903C18.8486 8.14466 18.5351 7.48214 17.9662 7.37518C17.2101 7.23109 16.5075 7.74952 16.1153 8.35705ZM20.9624 16.3222C20.8228 16.6683 20.6327 17.0516 20.805 17.4229C20.9446 17.876 21.5581 17.9933 21.9161 17.7378C22.2964 17.3843 22.2785 16.6891 21.8894 16.3489C21.6264 16.1083 21.2654 16.285 20.9624 16.3222ZM46.1337 11.7677C47.0844 11.0695 48.5833 11.3443 49.1804 12.3812C48.9175 12.5521 48.6516 12.7199 48.3887 12.8877C48.1005 12.5342 47.7113 12.1777 47.2136 12.2921C46.5898 12.301 46.309 13.1641 46.7858 13.5547C47.4514 14.0746 48.3589 14.1994 48.9769 14.7966C49.7954 15.5319 49.6751 17.0842 48.6724 17.6012C47.4588 18.234 45.7609 17.8225 45.1221 16.5658C45.3999 16.4083 45.6807 16.2508 45.9614 16.0964C46.2288 16.3949 46.4724 16.7619 46.8735 16.8911C47.3503 17.0367 47.9475 17.0114 48.3129 16.6341C48.6293 16.294 48.5372 15.7176 48.1688 15.4546C47.5702 15.0209 46.8185 14.8634 46.2273 14.4178C45.3746 13.837 45.3197 12.4035 46.1337 11.7677ZM52.7916 12.9412C53.7527 11.1809 56.483 10.8512 57.8942 12.2341C57.6714 12.4614 57.4486 12.6857 57.2272 12.913C56.3731 12.145 54.9292 12.0841 54.0973 12.9115C53.0812 13.8667 53.1942 15.7399 54.341 16.5479C55.2025 17.1511 56.3731 17.0516 57.2748 16.5895C57.2703 16.2197 57.2673 15.8498 57.2673 15.4799C56.7103 15.4858 56.1532 15.4843 55.5962 15.4799C55.5977 15.1828 55.5991 14.8857 55.6007 14.5886C56.4666 14.593 57.3312 14.5916 58.1972 14.5916C58.1957 15.4368 58.2032 16.2821 58.1898 17.1288C56.6197 18.2681 54.0632 18.1805 52.9045 16.4975C52.2271 15.4502 52.1885 14.0301 52.7916 12.9412V12.9412ZM66.1267 11.4587C67.1531 11.2567 68.3133 11.4647 69.0887 12.2059C70.488 13.4077 70.4806 15.8483 69.0961 17.059C68.2286 17.8493 66.9274 18.078 65.8207 17.7259C64.7556 17.4021 63.8985 16.4662 63.686 15.3715C63.5375 14.6139 63.6073 13.7998 63.9564 13.1061C64.3812 12.2668 65.2086 11.6533 66.1267 11.4587ZM66.4327 12.3441C65.3186 12.5283 64.5447 13.6706 64.6546 14.7728C64.6457 16.0444 65.8622 17.1555 67.1338 16.9535C68.3415 16.8673 69.215 15.6492 69.0857 14.4787C69.0991 13.1418 67.7473 12.0158 66.4327 12.3441ZM76.5592 17.7824C77.4831 15.6195 78.3848 13.4492 79.3177 11.2894C80.3456 13.4196 81.2132 15.6255 82.1772 17.7853C81.8192 17.7853 81.4642 17.7853 81.1077 17.7809C80.9101 17.3145 80.717 16.845 80.5283 16.3757C79.7277 16.3757 78.927 16.3757 78.1278 16.3712C77.9362 16.8406 77.7475 17.313 77.5618 17.7853C77.2261 17.7853 76.8934 17.7853 76.5592 17.7824ZM78.4903 15.4398C79.0429 15.4472 79.5954 15.4472 80.1495 15.4458C79.8688 14.7297 79.5539 14.0271 79.3221 13.2948C79.0815 14.0227 78.7859 14.7312 78.4903 15.4398ZM33.7508 11.4721C34.1192 11.4736 34.4891 11.4736 34.859 11.4691C35.4354 12.9472 36.1454 14.3762 36.6311 15.8884C37.0857 14.3688 37.8002 12.9427 38.3825 11.4691C38.7138 11.4706 39.0451 11.4706 39.3778 11.4706C38.4657 13.6364 37.5536 15.8038 36.6356 17.9681C36.5153 17.769 36.3994 17.5684 36.3043 17.3575C35.4502 15.3967 34.608 13.4314 33.7508 11.4721ZM40.5588 17.7838C40.5602 15.6789 40.5528 13.5726 40.5632 11.4676C41.8838 11.4751 43.2043 11.4766 44.5235 11.4676C44.5264 11.7647 44.5294 12.0633 44.5324 12.3604C43.5535 12.3664 42.5745 12.3634 41.5956 12.3649C41.6 13.0942 41.5986 13.8236 41.5971 14.553C42.4884 14.5559 43.3797 14.5589 44.271 14.55C44.271 14.8604 44.2724 15.1694 44.2784 15.4799C43.3826 15.4873 42.4884 15.4799 41.5956 15.4829C41.6001 16.2508 41.5986 17.0174 41.5971 17.7838C41.251 17.7853 40.9049 17.7853 40.5588 17.7838H40.5588ZM59.4941 11.4706C59.8298 11.4706 60.164 11.4721 60.5012 11.4706C60.5027 13.2799 60.4982 15.0877 60.5042 16.8956C61.4667 16.8926 62.4293 16.8941 63.3934 16.8956C63.3934 17.1912 63.3934 17.4853 63.3919 17.7824C62.0936 17.7869 60.7953 17.7869 59.497 17.7809C59.4985 15.6775 59.5045 13.5741 59.4941 11.4706ZM71.2723 11.4721C72.1621 11.4885 73.0534 11.4394 73.9403 11.4929C74.7602 11.5389 75.4554 12.3084 75.3619 13.1358C75.4005 13.6424 75.044 14.0435 74.631 14.2752C75.6887 14.544 76.0734 15.82 75.6337 16.7455C75.35 17.3917 74.6459 17.7824 73.9551 17.7838C73.0594 17.7928 72.1651 17.7794 71.2709 17.7853C71.2724 15.6805 71.2709 13.577 71.2724 11.4721H71.2723ZM72.2721 12.3619C72.2751 12.8818 72.2736 13.4032 72.2721 13.9231C72.8499 13.886 73.4694 14.0286 74.0175 13.8013C74.5122 13.522 74.3918 12.8402 74.0933 12.4555C73.4931 12.3337 72.8797 12.3619 72.2721 12.3619ZM72.2676 14.7728C72.2765 15.4799 72.2751 16.187 72.2691 16.8941C72.8811 16.8688 73.5051 16.9609 74.1081 16.8332C74.9875 16.6192 75.0128 15.1754 74.172 14.8842C73.557 14.6985 72.9005 14.7996 72.2676 14.7728H72.2676ZM83.1918 11.4736C83.5379 11.4721 83.8855 11.4721 84.2331 11.4706C84.2301 13.2799 84.2272 15.0892 84.2346 16.8986C85.1987 16.8896 86.1628 16.8956 87.1268 16.8941C87.1268 17.1896 87.1283 17.4868 87.1298 17.7824C85.8166 17.7883 84.5034 17.7839 83.1903 17.7839C83.1948 15.6805 83.1903 13.5771 83.1918 11.4736V11.4736ZM50.6941 16.8673C51.0714 16.6995 51.676 16.6534 51.7978 17.1659C51.9954 17.7156 51.272 18.2414 50.8293 17.8418C50.4609 17.6472 50.6169 17.1822 50.6941 16.8673ZM51.2942 21.0252C51.8498 21.0162 52.4054 21.0162 52.961 21.0282C52.955 21.1841 52.9491 21.3416 52.9446 21.499C52.5807 21.4961 52.2167 21.4975 51.8543 21.5006C51.8498 21.6714 51.8454 21.8422 51.8424 22.0145C52.1633 22.0174 52.4826 22.0205 52.805 22.0264C52.7812 22.1927 52.7664 22.3606 52.7232 22.5225C52.4291 22.5463 52.135 22.5418 51.8409 22.5448C51.8454 22.7141 51.8498 22.885 51.8543 23.0558C52.2167 23.0573 52.5777 23.0588 52.9402 23.0633C52.9461 23.2311 52.952 23.3989 52.958 23.5683C52.4069 23.5832 51.8557 23.5802 51.3032 23.5757C51.2854 22.7261 51.2913 21.8749 51.2942 21.0252ZM54.0944 21.0682C54.5192 20.8529 54.9886 21.046 55.3659 21.2658C55.305 21.3654 55.1817 21.5674 55.1208 21.6684C54.8951 21.6013 54.6525 21.4342 54.4171 21.4829C54.2126 21.5251 54.189 21.5947 54.3025 21.756C54.5487 22.1063 55.1461 22.1145 55.3333 22.5433C55.5175 22.9132 55.3214 23.436 54.9099 23.5431C54.4791 23.7109 54.032 23.5148 53.6636 23.2949C53.717 23.188 53.8255 22.9741 53.8805 22.8657C54.1262 22.9735 54.6198 23.2412 54.7774 22.9976C54.8928 22.8195 54.7765 22.732 54.6349 22.6336C54.3993 22.47 54.1088 22.3889 53.8953 22.1972C53.5789 21.8733 53.6636 21.248 54.0944 21.0682ZM56.0091 21.0266C56.5989 21.0148 57.1916 21.0192 57.7828 21.0207C57.7843 21.1396 57.7887 21.3743 57.7902 21.4931C57.5793 21.4961 57.3698 21.5006 57.1604 21.5049C57.153 22.1927 57.1589 22.879 57.1515 23.5668C57.0252 23.5697 56.7712 23.5772 56.6435 23.5816C56.636 22.8864 56.639 22.1913 56.6375 21.4961C56.4845 21.4976 56.177 21.499 56.024 21.5006C56.0181 21.3431 56.0121 21.1841 56.0091 21.0266ZM60.6839 21.4351C60.9899 21.2094 61.3479 20.9465 61.7534 21.0742C62.1798 21.1425 62.4368 21.6223 62.2956 22.0234C62.1204 22.4245 61.8129 22.7468 61.5544 23.0944C61.8055 23.0989 62.0595 23.1049 62.312 23.1108C62.312 23.2267 62.312 23.4569 62.312 23.5713C61.7549 23.5832 61.1979 23.5846 60.6423 23.5564C60.9278 22.9707 61.4509 22.5346 61.7453 21.9595C61.8265 21.8007 61.8008 21.679 61.7108 21.5971C61.5209 21.4243 61.1961 21.5894 60.9736 21.7426C60.8755 21.6402 60.779 21.5377 60.6839 21.4351ZM63.7514 21.0876C64.3142 20.9051 64.7796 21.2406 64.9041 21.7919C65.0285 22.3422 65.0202 23.0008 64.5966 23.4108C64.3574 23.6219 64.0096 23.6618 63.7258 23.5434C63.4602 23.4325 63.2498 23.1697 63.1741 22.8237C63.0371 22.1973 63.0901 21.352 63.7514 21.0876ZM64.0912 23.1079C64.2822 23.0657 64.3868 22.7588 64.4186 22.5894C64.4729 22.3015 64.4212 21.9918 64.2957 21.7208C64.1701 21.4494 63.9553 21.4733 63.8265 21.642C63.6525 21.87 63.6167 22.1825 63.6529 22.4805C63.6801 22.7047 63.778 23.177 64.0912 23.1079ZM66.2961 21.1113C66.7224 20.933 67.2824 21.1277 67.4354 21.5837C67.6226 22.1259 67.6419 22.7988 67.3047 23.2875C67.0183 23.6865 66.4015 23.6915 66.051 23.3898C65.8182 23.1893 65.7459 22.8267 65.7131 22.5335C65.6509 21.9782 65.776 21.368 66.2961 21.1113ZM66.3759 21.7358C66.2227 22.055 66.1927 22.4487 66.3198 22.7803C66.5023 23.2569 66.8364 23.2119 66.9702 22.7456C67.0484 22.4729 67.0503 22.1786 66.9662 21.9083C66.9131 21.7374 66.8602 21.5251 66.6311 21.5319C66.5402 21.5346 66.4456 21.5905 66.3759 21.7358ZM68.2182 21.857C68.285 21.5377 68.5213 21.3163 68.753 21.1054C68.8614 21.1039 69.0783 21.0995 69.1853 21.0965C69.1882 21.9195 69.1972 22.7439 69.1763 23.5668C69.0516 23.5697 68.8035 23.5772 68.6787 23.5802C68.6713 23.0009 68.6683 22.4215 68.6743 21.8422C68.5599 21.8466 68.3326 21.854 68.2182 21.857ZM58.3086 23.0721C58.4884 22.836 58.9014 22.9323 58.934 23.2593C58.9615 23.5354 58.6407 23.6554 58.4591 23.5993C58.2622 23.5384 58.1809 23.2905 58.3086 23.0721Z" fill="#F4F7FB"/>
</svg>
