<svg width="114" height="28" viewBox="0 0 114 28" fill="none" xmlns="http://www.w3.org/2000/svg">
<g clip-path="url(#clip0_677_3058)">
<path d="M10.5297 14.8204H6.67505L8.72803 8.12205L10.5297 14.8204ZM4.67572 22.202L5.99166 17.7911H11.1848L12.4161 22.1908H17.2167L12.4471 5.41674C12.1647 4.42555 11.5717 3.96808 10.5297 3.96808H3.72124V5.55229H4.28602C4.99765 5.55229 5.3817 5.83468 5.3817 6.37405C5.3817 6.73268 5.30263 7.03202 5.02024 7.84813L0.242188 22.202H4.67572Z" fill="#F4F7FB"/>
<path d="M22.7712 22.202V5.36591C22.7712 4.48768 22.2573 3.96808 21.4073 3.96808H17.1855V5.55229H17.4679C18.1767 5.55229 18.4789 5.85445 18.4789 6.57172V22.202H22.7712Z" fill="#F4F7FB"/>
<path d="M30.0685 22.202V5.36591C30.0685 4.48768 29.5461 3.96808 28.7018 3.96808H24.4941V5.55229H24.7765C25.4882 5.55229 25.7903 5.85445 25.7903 6.57172V22.202H30.0685Z" fill="#F4F7FB"/>
<path d="M37.5547 5.63134C37.5547 4.40859 36.6482 3.6546 35.0951 3.6546C33.5419 3.6546 32.6298 4.39447 32.6298 5.63134C32.6298 6.86821 33.5645 7.60807 35.0951 7.60807C36.6256 7.60807 37.5547 6.87386 37.5547 5.63134ZM37.4728 22.202V9.92932C37.4728 9.05391 36.9532 8.53714 36.1032 8.53714H31.9492V10.0903H32.1949C32.9037 10.0903 33.2059 10.4179 33.2059 11.1295V22.202H37.4728Z" fill="#F4F7FB"/>
<path d="M46.8708 15.6393V18.2966C46.1563 19.0336 45.2866 19.4854 44.5495 19.4854C43.8125 19.4854 43.5103 19.107 43.5103 18.0735C43.5103 17.0399 43.725 16.6022 44.4931 16.3057C45.2579 15.9944 46.0556 15.7708 46.8708 15.6393ZM41.0987 12.4483C42.4105 11.7975 43.8458 11.4336 45.3092 11.3808C46.4613 11.3808 46.8708 11.7903 46.8708 12.9848V13.2898C45.1228 13.5722 44.575 13.6795 43.5894 13.8969C43.0374 14.0185 42.497 14.1876 41.9741 14.4024C40.2487 15.0943 39.4326 16.4271 39.4326 18.4745C39.4326 21.0725 40.5622 22.3263 42.875 22.3263C43.6617 22.3295 44.4418 22.1829 45.1736 21.8942C45.8374 21.5921 46.4546 21.1965 47.0063 20.7195V20.9115C47.0063 21.7587 47.4412 22.1907 48.2912 22.1907H52.2023V20.7308H52.0103C51.2733 20.7308 51.0022 20.4004 51.0022 19.5278V13.0187C51.0022 9.54811 49.7964 8.33948 46.3201 8.33948C45.2181 8.34497 44.1202 8.47475 43.0472 8.72635C42.0335 8.95242 41.057 9.32133 40.1471 9.82203L41.0987 12.4483Z" fill="#F4F7FB"/>
<path d="M58.4288 22.202V12.9622C59.1433 12.1687 59.8775 11.81 60.7247 11.81C61.6311 11.81 61.8542 12.1687 61.8542 13.5439V22.202H66.1183V12.9114C66.1183 10.7483 65.963 10.0649 65.2712 9.33066C64.7064 8.69528 63.8225 8.37335 62.6958 8.37335C61.0268 8.37335 59.8521 8.89013 58.2735 10.367V9.82202C58.2735 8.97484 57.8302 8.53714 56.9576 8.53714H52.9053V10.0903H53.151C53.8598 10.0903 54.1647 10.4179 54.1647 11.1295V22.202H58.4288Z" fill="#F4F7FB"/>
<path d="M78.7662 19.3329H72.8163L78.5064 11.3554V8.53149H69.5829C68.5719 8.53149 68.106 8.99461 68.106 10.0084V12.4934H69.6902V12.2506C69.6902 11.6208 70.0178 11.3215 70.6983 11.3215H73.7651L68.0156 19.3894V22.2133H78.7465L78.7662 19.3329Z" fill="#F4F7FB"/>
<path d="M101.152 21.8547V6.40511C101.152 5.17389 100.714 4.75877 99.5195 4.75877H95.9021V6.49547H96.1195C96.9441 6.49547 97.1051 6.68185 97.1051 7.67587V21.8547H101.152ZM102.936 21.8547H106.952V9.82204C106.952 8.6134 106.486 8.17852 105.309 8.17852H102.936V21.8547ZM95.3317 21.8547V8.18982H92.9511C91.7736 8.18982 91.3133 8.6247 91.3133 9.83333V21.8547H95.3317ZM110.753 14.0014C110.753 20.8099 105.856 25.7602 99.1327 25.7602C92.4089 25.7602 87.501 20.8099 87.501 14.0014C87.501 7.19298 92.4061 2.24267 99.1327 2.24267C105.859 2.24267 110.753 7.22122 110.753 14.0014ZM113.131 14.0014C113.131 5.99564 107.141 0.000488281 99.1327 0.000488281C91.1241 0.000488281 85.1289 5.99564 85.1289 14.0014C85.1289 22.0072 91.1184 27.9995 99.1327 27.9995C107.147 27.9995 113.131 22.027 113.131 14.0014Z" fill="#F4F7FB"/>
</g>
<defs>
<clipPath id="clip0_677_3058">
<rect width="112.889" height="28" fill="white" transform="translate(0.242188)"/>
</clipPath>
</defs>
</svg>
