<svg width="73" height="30" viewBox="0 0 73 30" fill="none" xmlns="http://www.w3.org/2000/svg">
<path d="M55.8451 1.02527V15.0413L55.6663 15.189L55.4875 15.3367L55.3161 15.4918L55.1522 15.6469L54.9957 15.802L54.8393 15.9644L54.6902 16.1269L54.5412 16.2893V1.02527H38.872V13.7859H37.5755V1.02527H21.9063V13.8081H20.6098V1.02527H4.94059V15.5952L0.939453 28.8063H4.45628L6.22214 22.9577H6.72881L9.64955 28.8063H13.8966L11.0652 22.9577H17.4879L15.7071 28.8063H19.5443L21.3028 22.9724H22.1522V22.9576H23.3592H23.4561H30.7058L29.007 28.7915H32.8815L34.5281 22.9576H36.2716L36.3163 28.7915H39.5649L43.2978 22.9576H45.7417L44.475 28.7915H48.2899L49.5342 22.9576H51.7396L51.7248 23.29L51.7326 23.6296L51.7475 23.9546L51.7773 24.2795L51.7996 24.4346L51.822 24.5897L51.8518 24.7447L51.8815 24.8998L51.9188 25.0549L51.956 25.2026L52.0007 25.3503L52.0453 25.498L52.0975 25.6457L52.1497 25.786L52.2093 25.9263L52.2689 26.0592L52.336 26.1995L52.4031 26.3324L52.4777 26.458L52.5522 26.5909L52.6342 26.7164L52.7236 26.8346L52.813 26.9601L52.9099 27.0709L53.0067 27.189L53.1036 27.2998L53.2154 27.4106L53.3271 27.514L53.4687 27.6321L53.6103 27.7503L53.7593 27.861L53.9157 27.9644L54.0722 28.0678L54.2287 28.1638L54.3926 28.245L54.564 28.3336L54.7279 28.4075L54.8993 28.4813L55.0706 28.5478L55.2494 28.6143L55.4283 28.6734L55.6071 28.7251L55.7859 28.7767L55.9647 28.8211L56.3224 28.9023L56.6875 28.9614L57.0451 29.0131L57.4028 29.0574L57.7529 29.0869L58.0957 29.1017L58.431 29.1165H58.7514L59.1835 29.1095L59.6157 29.1025L60.0553 29.0803L60.4949 29.0582L60.9345 29.0212L61.3741 28.9842L61.8137 28.9399L62.2533 28.8882L62.7003 28.8291L63.1474 28.7626L63.5945 28.6888L64.0415 28.615L64.4886 28.5338L64.9356 28.4452L65.3827 28.3565L65.8372 28.2532L67.1634 22.9584H71.5148V1.02595H55.8455L55.8451 1.02527ZM6.39351 22.4112L6.41584 22.33L6.46805 22.4112H6.39351ZM20.0436 14.5539L19.82 15.2998L17.7338 22.1675L17.6518 22.4112H10.797L10.268 21.2887L17.6518 13.8081H12.9056L7.13113 19.9743L9.0013 13.8081H5.49938V1.57912H20.0435V14.5539H20.0436ZM24.0894 20.3583L23.9776 20.3653L23.8733 20.3723L23.7616 20.3793H23.6423H23.4859H23.3518L23.2251 20.3863H23.1059L22.1745 20.3793L22.6067 18.799L22.8078 18.0162L23.2996 16.1774H23.4561H23.62L23.7765 16.1704H23.9255H24.6482L25.0878 16.1774L25.4902 16.1922L25.669 16.1992L25.8404 16.2141L26.0043 16.2362L26.1533 16.2584L26.2874 16.2805L26.4141 16.3175L26.5333 16.3545L26.6376 16.3988L26.727 16.4431L26.809 16.5022L26.8835 16.5613L26.9431 16.6352L26.9803 16.6943L27.0101 16.7534L27.0399 16.8199L27.0622 16.8937L27.0771 16.9749L27.085 17.0561V17.1447V17.2407L27.0771 17.3441L27.0701 17.4475L27.0478 17.5657L27.0254 17.6838L26.9583 17.9349L26.8763 18.2155L26.7944 18.4518L26.705 18.6807L26.6081 18.8949L26.5038 19.0943L26.4516 19.1829L26.3994 19.2715L26.3397 19.3601L26.2726 19.4413L26.2055 19.5225L26.1385 19.5964L26.0639 19.6702L25.9894 19.7367L25.9074 19.7958L25.8254 19.8623L25.736 19.9139L25.6391 19.9731L25.5423 20.0247L25.438 20.0691L25.3337 20.1134L25.2219 20.1503L25.1027 20.1947L24.976 20.2242L24.8419 20.2537L24.7078 20.2832L24.5588 20.3054L24.4097 20.3275L24.2533 20.3423L24.0894 20.3571L24.0894 20.3583ZM34.6846 22.4112L36.212 17.0204L36.2717 22.4112H34.6846H34.6846ZM37.0093 13.7859H33.3732L30.8697 22.4112H27.0101L27.189 22.3374L27.3678 22.2635L27.5392 22.1897L27.7105 22.1085L27.8744 22.0273L28.0309 21.9313L28.1874 21.8427L28.3364 21.7467L28.4854 21.6433L28.627 21.5399L28.7611 21.4366L28.8952 21.3184L29.0219 21.2076L29.1411 21.0821L29.2603 20.9639L29.3721 20.831L29.4838 20.7055L29.5882 20.5652L29.685 20.4322L29.7819 20.2845L29.8713 20.1368L29.9533 19.9892L30.0353 19.8341L30.1098 19.6716L30.1843 19.5091L30.2514 19.3467L30.311 19.1768L30.3706 18.9996L30.4153 18.8224L30.4675 18.6451L30.5047 18.4531L30.542 18.2685L30.5942 17.9731L30.6388 17.6925L30.6686 17.4267L30.6909 17.1756L30.6988 16.9245L30.6909 16.6956L30.6839 16.4667L30.6542 16.2525L30.6244 16.0531L30.5722 15.8538L30.52 15.6691L30.4454 15.4919L30.3635 15.3221L30.274 15.1522L30.1697 14.9971L30.0505 14.8494L29.9536 14.7461L29.8568 14.6427L29.7525 14.5541L29.6407 14.4729L29.5215 14.3917L29.4023 14.3178L29.2756 14.2513L29.149 14.1922L29.0148 14.1331L28.8807 14.0888L28.7392 14.0445L28.5976 14.0001L28.4486 13.9632L28.2995 13.9337L28.1505 13.9041L27.9941 13.882L27.6737 13.8377L27.3533 13.8155L27.0254 13.7933L26.6902 13.7863H26.0196H25.3564H25.1478H24.7753H24.3133H23.7992H23.3H22.8753H22.5773H22.4655V1.57952H37.0097V13.7863L37.0093 13.7859ZM45.846 22.4112H43.6629L46.9711 17.242L45.846 22.4112ZM53.975 14.0296L53.9671 17.0204L53.7808 17.2789L53.6094 17.5447L53.4381 17.8106L53.2816 18.0764L53.1326 18.3423L52.9836 18.6155L52.8569 18.8814L52.7302 19.1472L52.611 19.4057L52.5067 19.6715L52.4024 19.93L52.313 20.1811L52.231 20.4321L52.1564 20.6758L52.0894 20.9121L52.0297 21.1484L51.9925 21.3035L51.9553 21.466L51.918 21.6211L51.8883 21.7835L51.8585 21.9386L51.8361 22.0937L51.8138 22.2488L51.7989 22.4112H49.6605L51.486 13.8081L45.3315 13.8011L39.8253 22.4116H39.423V1.5795H53.9746V14.03L53.975 14.0296ZM62.3647 25.9337L62.0592 25.9854L61.7462 26.0297L61.4333 26.074L61.1278 26.111L60.8223 26.1405L60.5168 26.1626L60.2188 26.1775H59.9208H59.727L59.5333 26.1704L59.347 26.1556L59.1608 26.1335L58.9819 26.104L58.8106 26.0744L58.6392 26.0375L58.4753 25.9932L58.3188 25.9415L58.1624 25.8898L58.0133 25.8233L57.8718 25.7569L57.7302 25.6757L57.5961 25.5945L57.4694 25.5059L57.3502 25.4172L57.231 25.3139L57.1267 25.2031L57.0224 25.0923L56.9255 24.9668L56.8361 24.8412L56.7541 24.7009L56.6796 24.5606L56.605 24.4129L56.5454 24.2578L56.4932 24.088L56.4485 23.9182L56.4038 23.7409L56.3741 23.5563L56.3517 23.3643L56.3368 23.1649L56.329 22.9581H63.1093L62.3642 25.9342L62.3647 25.9337ZM70.963 22.4112H67.2972L67.9007 20.0038H60.5541L59.9506 22.4112H56.3965V21.9164L56.4412 21.7097L56.4784 21.5029L56.5231 21.2814L56.5677 21.0598L56.6348 20.8161L56.7019 20.5724L56.7764 20.3287L56.8584 20.0924L56.9478 19.8561L57.0447 19.6198L57.149 19.3909L57.2533 19.162L57.3725 18.933L57.4917 18.7189L57.6184 18.4973L57.76 18.2906L57.9016 18.0838L58.0431 17.8844L58.1996 17.6924L58.3635 17.5078L58.5349 17.3306L58.7063 17.1681L58.8925 17.0057L59.0788 16.8506L59.2725 16.7103L59.4812 16.5773L59.6898 16.4592L59.9058 16.3484L60.1294 16.245L60.3603 16.1564L60.5988 16.0826L60.8447 16.0235L61.098 15.9718L61.3588 15.9348L61.627 15.9127L61.9027 15.9057L62.1188 15.9127L62.3348 15.9275L62.5509 15.957L62.7595 16.0013L62.8639 16.0308L62.9607 16.0603L63.0576 16.0899L63.147 16.1342L63.2364 16.1711L63.3258 16.2228L63.4078 16.2745L63.4898 16.3262L63.5643 16.3926L63.6389 16.4591L63.7059 16.5256L63.773 16.6068L63.8327 16.6806L63.8849 16.7692L63.9296 16.8652L63.9742 16.9612L64.0115 17.0646L64.0412 17.1754L64.0636 17.2862L64.0859 17.4117L64.0938 17.5373V17.6702V17.8105L64.0789 17.9582H68.46L68.5271 17.6554L68.5868 17.3083L68.6165 17.1237L68.6314 16.9243L68.6463 16.7249V16.5182L68.6393 16.304L68.617 16.0825L68.5946 15.9791L68.5798 15.8683L68.55 15.7576L68.5202 15.6468L68.483 15.5286L68.4457 15.4179L68.4011 15.3071L68.3489 15.1963L68.2967 15.0855L68.2296 14.9748L68.1625 14.864L68.0879 14.7532L67.9985 14.6351L67.9017 14.5243L67.8048 14.4135L67.7005 14.3102L67.5887 14.2068L67.4695 14.1108L67.3503 14.0222L67.2236 13.9335L67.0895 13.8449L66.9554 13.7711L66.8138 13.6973L66.6648 13.6234L66.5158 13.5569L66.3593 13.4905L66.1954 13.4313L66.0315 13.3722L65.8676 13.3205L65.6888 13.2762L65.5174 13.2319L65.3311 13.1876L65.1448 13.1506L64.9586 13.1137L64.7649 13.0841L64.5637 13.062L64.1539 13.0177L63.7366 12.9807L63.297 12.9659L62.85 12.9589L62.5147 12.9659L62.1645 12.9729L61.7994 12.9951L61.4194 13.0246L61.0245 13.0689L60.6222 13.1206L60.2124 13.1871L59.7951 13.2757L59.5865 13.32L59.3704 13.3717L59.1618 13.4308L58.9457 13.4899L58.7296 13.5564L58.5135 13.6302L58.2975 13.7041L58.0888 13.7853L57.8728 13.8739L57.6567 13.9699L57.4481 14.0659L57.232 14.1693L57.0234 14.28L56.8147 14.3982L56.6061 14.5163L56.3975 14.6493V1.57843H70.964V22.4105L70.963 22.4112Z" fill="white"/>
</svg>
