<svg width="99" height="28" viewBox="0 0 99 28" fill="none" xmlns="http://www.w3.org/2000/svg">
<g clip-path="url(#clip0_677_3090)">
<path d="M95.0075 6.93031C94.1582 5.92332 92.6475 5.79946 91.6544 6.64537C91.4122 6.84804 91.2125 7.09669 91.0669 7.37698C90.9213 7.65726 90.8327 7.96362 90.8062 8.27834C90.7797 8.59307 90.8159 8.90992 90.9125 9.2106C91.0092 9.51128 91.1645 9.78982 91.3695 10.0301C92.5869 11.4732 93.2586 13.2981 93.2673 15.1861C93.2607 19.6145 89.671 23.2042 85.2642 23.1892C84.2116 23.1992 83.1678 22.9971 82.195 22.5948C81.2222 22.1926 80.3404 21.5986 79.6022 20.8481C78.0893 19.3485 77.2572 17.3395 77.2617 15.1861C77.2576 14.1391 77.4626 13.1017 77.8645 12.1348C78.2664 11.1679 78.8572 10.2909 79.6022 9.55524C80.3404 8.80473 81.2221 8.21067 82.195 7.80853C83.1678 7.40639 84.2116 7.20442 85.2642 7.21468C86.0563 7.19969 86.8428 7.31577 87.6054 7.53072C88.8606 7.93118 90.1975 7.21857 90.5791 5.94887C90.6717 5.64981 90.7042 5.33538 90.6747 5.0237C90.6453 4.71202 90.5544 4.40926 90.4073 4.13287C90.2603 3.85648 90.06 3.61193 89.818 3.41332C89.5759 3.21472 89.297 3.06598 88.9972 2.97568C87.7879 2.60219 86.5299 2.41033 85.2642 2.40637C78.2076 2.41304 72.4706 8.15002 72.4845 15.1861C72.4706 18.6175 73.8008 21.829 76.2175 24.2334C78.6319 26.6601 81.8434 27.9903 85.2642 27.9976C88.6751 27.9898 91.8866 26.6601 94.3115 24.2334C96.7171 21.829 98.0473 18.6175 98.044 15.1861C98.0445 12.1609 96.9681 9.23427 95.0075 6.93031Z" fill="#F4F7FB"/>
<path d="M71.5044 18.5709C70.3852 17.8705 68.9123 18.2282 68.2146 19.3618C66.7578 21.7662 64.2 23.2037 61.3818 23.1898C59.2473 23.2037 57.2383 22.3716 55.7198 20.8487C54.2151 19.349 53.3826 17.3395 53.3787 15.1867C53.3783 14.1401 53.5849 13.1037 53.9867 12.1373C54.3885 11.1709 54.9775 10.2936 55.7198 9.55578C57.2378 8.03225 59.2473 7.20023 61.3818 7.21522C64.0473 7.20023 66.5284 8.51991 68.0247 10.7261C68.1996 10.9876 68.4248 11.2117 68.6872 11.3854C68.9496 11.5591 69.2439 11.6788 69.553 11.7377C69.8621 11.7966 70.1798 11.7934 70.4876 11.7283C70.7955 11.6632 71.0873 11.5376 71.3461 11.3587C72.4392 10.6327 72.7269 9.14532 71.9788 8.03725C70.807 6.30411 69.2283 4.88462 67.3808 3.90306C65.5333 2.9215 63.4733 2.4078 61.3812 2.40692C54.3329 2.41303 48.5965 8.15 48.6026 15.1861C48.5965 18.6175 49.9267 21.829 52.335 24.2334C54.7578 26.6595 57.9693 27.9903 61.3824 27.9975C65.8846 27.9897 69.9698 25.6936 72.3281 21.8606C73.0002 20.7181 72.6431 19.2457 71.5044 18.5709Z" fill="#F4F7FB"/>
<path d="M47.4956 18.5709C47.2284 18.4044 46.9306 18.2928 46.6198 18.2424C46.309 18.1921 45.9913 18.204 45.6851 18.2776C45.379 18.3512 45.0905 18.485 44.8366 18.6711C44.5826 18.8573 44.3682 19.092 44.2058 19.3618C42.7339 21.7663 40.1768 23.2042 37.373 23.1898C35.2229 23.2042 33.2134 22.3717 31.711 20.8487C30.1913 19.349 29.3587 17.3401 29.3698 15.1867C29.3626 14.1391 29.5661 13.1007 29.9683 12.1334C30.3705 11.166 30.9631 10.2894 31.711 9.5558C33.2139 8.03227 35.2235 7.20024 37.373 7.21524C38.6791 7.20921 39.9665 7.52667 41.1201 8.13928C42.2737 8.75189 43.2577 9.6406 43.9842 10.7261C44.7374 11.8253 46.2248 12.113 47.3057 11.3587C48.4154 10.6328 48.7037 9.14589 47.9699 8.03727C46.7958 6.30663 45.2166 4.88902 43.3698 3.90767C41.5229 2.92632 39.4643 2.41095 37.373 2.40637C30.3091 2.41304 24.5721 8.15002 24.5615 15.1861C24.5721 18.6175 25.9023 21.829 28.3256 24.2334C30.7334 26.6601 33.9443 27.9903 37.373 27.9976C41.8597 27.9898 45.9454 25.6937 48.2865 21.8607C48.9764 20.7182 48.6187 19.2457 47.4956 18.5709Z" fill="#F4F7FB"/>
<path d="M23.7071 18.5709C22.5857 17.8705 21.1127 18.2282 20.4173 19.3618C18.9582 21.7662 16.401 23.2037 13.5845 23.1898C12.2489 23.2028 10.9319 22.8764 9.75706 22.2411L22.6629 11.1054C23.6204 10.2679 23.7721 8.84485 23.0111 7.84731C21.753 6.17226 20.1027 4.83182 18.2053 3.94375C16.3079 3.05568 14.2215 2.64715 12.1293 2.75407C10.6857 2.83905 9.27995 3.15342 7.9536 3.70329C6.72833 4.19817 6.14236 5.59506 6.65668 6.80367C6.77137 7.09574 6.94291 7.36214 7.16135 7.5874C7.3798 7.81265 7.6408 7.99229 7.92922 8.11588C8.21764 8.23947 8.52773 8.30456 8.8415 8.30737C9.15527 8.31018 9.46647 8.25065 9.75706 8.13224C10.5936 7.78997 11.4804 7.58679 12.3825 7.53072C14.2799 7.44352 16.1194 8.02505 17.6019 9.14423L6.43562 18.7925C5.87136 17.6742 5.5787 16.4387 5.58138 15.1861C5.58264 13.7234 5.9876 12.2894 6.75166 11.0421C7.43261 9.91738 7.07492 8.44495 5.96074 7.75233C4.81712 7.06972 3.34469 7.42685 2.67096 8.54326C1.44427 10.5414 0.798074 12.8415 0.804739 15.1861C0.796407 18.6175 2.12665 21.829 4.53719 24.2334C6.95772 26.6595 10.1697 27.9903 13.5845 27.9976C18.0851 27.9898 22.1697 25.6937 24.498 21.8607C25.2006 20.7182 24.8429 19.2457 23.7071 18.5709ZM93.0467 2.56467C93.0584 1.08724 94.2615 -0.00583619 95.6722 0.00249518C97.0897 -0.00639162 98.2927 1.08724 98.2977 2.56467C98.2927 4.06709 97.0897 5.16017 95.6722 5.1585C94.2615 5.16017 93.0584 4.06654 93.0467 2.56467Z" fill="#F4F7FB"/>
<path d="M95.6718 4.71528C96.851 4.72973 97.7729 3.81383 97.7596 2.56412C97.7729 1.34663 96.851 0.424072 95.6718 0.412964C94.4993 0.424072 93.5774 1.34663 93.584 2.56412C93.5774 3.81383 94.4993 4.73028 95.6718 4.71528Z" fill="#F4F7FB"/>
<path d="M95.1351 4.05151H94.6924V1.07776H95.831C96.5237 1.08776 96.8725 1.34714 96.8753 1.932C96.8725 2.46799 96.5376 2.70016 96.0843 2.75403L96.938 4.05151H96.432L95.6411 2.78569H95.1351V4.05151Z" fill="#F4F7FB"/>
<path d="M95.6719 2.40638C96.0579 2.39249 96.3995 2.36527 96.3995 1.90038C96.3995 1.53825 96.0646 1.46993 95.7353 1.45715H95.1338V2.40638H95.6719Z" fill="#F4F7FB"/>
</g>
<defs>
<clipPath id="clip0_677_3090">
<rect width="97.493" height="28" fill="white" transform="translate(0.804688)"/>
</clipPath>
</defs>
</svg>
