<svg width="71" height="20" viewBox="0 0 71 20" fill="none" xmlns="http://www.w3.org/2000/svg">
<g clip-path="url(#clip0_1218_3631)">
<path d="M29.0218 5.72052C28.8174 5.6316 28.5613 5.58038 28.0606 5.58038H26.2281V7.91305H27.9581C28.4834 7.91305 28.7918 7.84878 29.0353 7.73424C29.4461 7.52983 29.651 7.16884 29.651 6.68316C29.651 6.2463 29.4195 5.90077 29.0218 5.72052ZM28.5743 2.22127C28.381 2.13235 28.1505 2.08064 27.7789 2.08064H26.2281V4.28574H27.6895C28.1505 4.28574 28.4327 4.20841 28.6371 4.09243C28.971 3.90155 29.1378 3.58018 29.1378 3.1699C29.1378 2.74705 28.945 2.40152 28.5743 2.22127ZM24.7793 9.22074V0.773438H27.8808C28.5477 0.773438 28.9826 0.875887 29.3427 1.04213C30.2009 1.45289 30.5861 2.23432 30.5861 2.95195C30.5861 3.76044 30.2517 4.31038 29.5727 4.72163V4.74724C30.5465 4.96423 31.1365 5.6432 31.1365 6.66963C31.1365 7.81012 30.445 8.68191 29.2654 9.04145C28.842 9.16903 28.381 9.22074 27.6498 9.22074H24.7793Z" fill="#C5CFE0"/>
<path d="M41.0382 0.773438H39.5898V9.22074H41.0382V0.773438Z" fill="#C5CFE0"/>
<path d="M51.5533 0.773438H50.1064V9.22074H51.5533V0.773438Z" fill="#C5CFE0"/>
<path d="M56.2309 0.697266C57.1413 0.697266 58.0644 0.915696 58.5756 1.17134L58.5515 2.55586C57.8203 2.19729 57.0766 1.96533 56.1927 1.96533C55.3992 1.96533 54.7188 2.21034 54.7188 2.87675C54.7188 4.6068 59.0652 3.91478 59.0652 6.77227C59.0652 8.34961 57.7314 9.34753 55.795 9.34753C54.4762 9.34753 53.5657 8.97591 52.9375 8.59365L53.5387 7.41403C54.0529 7.73491 54.8739 8.08044 55.8467 8.08044C56.719 8.08044 57.5265 7.74603 57.5265 6.97813C57.5265 5.16931 53.2197 5.96475 53.2197 3.08116C53.2197 1.54248 54.4491 0.697266 56.2309 0.697266Z" fill="#C5CFE0"/>
<path d="M65.9218 0.773438H67.3701V9.22074H65.9218V5.58038H61.8194V9.22074H60.3711V0.773438H61.8194V4.23451H65.9218V0.773438Z" fill="#C5CFE0"/>
<path d="M27.9782 10.7051C28.9007 10.7051 29.6053 10.8858 30.3244 11.2048L29.8875 12.4356C29.4773 12.2442 28.9384 12.0137 28.1328 12.0137C26.5299 12.0137 25.531 13.3717 25.531 15.0249C25.531 16.6926 26.4656 18.0501 28.1328 18.0501C28.9384 18.0501 29.4773 17.8205 29.8875 17.6263L30.3244 18.8586C29.6053 19.178 28.9007 19.3573 27.9782 19.3573C25.4522 19.3573 24.0049 17.5891 24.0049 15.051C24.0049 12.6801 25.4522 10.7051 27.9782 10.7051Z" fill="#C5CFE0"/>
<path d="M59.6701 10.7051C60.5931 10.7051 61.2977 10.8858 62.0148 11.2048L61.5799 12.4356C61.1691 12.2442 60.6303 12.0137 59.8228 12.0137C58.2203 12.0137 57.2209 13.3717 57.2209 15.0249C57.2209 16.6926 58.157 18.0501 59.8228 18.0501C60.6303 18.0501 61.1691 17.8205 61.5799 17.6263L62.0148 18.8586C61.2977 19.178 60.5931 19.3573 59.6701 19.3573C57.1436 19.3573 55.6953 17.5891 55.6953 15.051C55.6953 12.6801 57.1436 10.7051 59.6701 10.7051Z" fill="#C5CFE0"/>
<path d="M37.0772 15.0244C37.0772 13.1793 36.0276 12.0002 34.6039 12.0002C33.1817 12.0002 32.1297 13.1793 32.1297 15.0375C32.1297 16.8849 33.1817 18.0626 34.6039 18.0626C36.0281 18.0626 37.0772 16.8849 37.0772 15.0244ZM38.6038 14.9978C38.6038 17.5373 36.9878 19.3568 34.6044 19.3568C32.1954 19.3568 30.6055 17.6006 30.6055 15.064C30.6055 12.526 32.22 10.7051 34.6044 10.7051C37.0154 10.7051 38.6038 12.4622 38.6038 14.9978Z" fill="#C5CFE0"/>
<path d="M39.583 16.0502V10.7832H41.0313V16.1024C41.0313 17.5111 41.7881 18.0378 42.9924 18.0378C44.2232 18.0378 44.9544 17.5111 44.9544 16.1024V10.7832H46.4027V16.0502C46.4027 18.3457 45.094 19.3576 42.9682 19.3576C40.8776 19.3576 39.583 18.3457 39.583 16.0502Z" fill="#C5CFE0"/>
<path d="M49.1242 13.0777H49.0986C49.1242 13.3585 49.1368 13.8074 49.1368 14.2056V19.2286H47.6885V10.7832H49.2528L53.1729 16.5378H53.1995C53.1729 16.2556 53.1613 15.8066 53.1613 15.4084V10.7832H54.6087V19.2286H53.3281L49.1242 13.0777Z" fill="#C5CFE0"/>
<path d="M64.5982 10.7812H63.1523V19.2286H64.5982V10.7812Z" fill="#C5CFE0"/>
<path d="M67.3702 17.9199H70.6766V19.2286H65.9219V10.7812H67.3702V17.9199Z" fill="#C5CFE0"/>
<path d="M42.1416 0.775391V2.09564H44.8449V9.22124H46.2933V2.09564H48.998V0.775391H42.1416Z" fill="#C5CFE0"/>
<path d="M35.0743 2.08211H33.5743V4.64626H35.0096C36.0486 4.64626 36.5352 4.10744 36.5352 3.33809C36.5352 2.64607 36.0868 2.08211 35.0743 2.08211ZM36.9827 9.22076C35.7533 6.6711 35.4324 5.95251 34.9197 5.95251H33.5743V9.22076H32.127V0.775391H34.984C37.162 0.775391 37.9961 1.92892 37.9961 3.21003C37.9961 4.33795 37.3427 5.09424 36.4323 5.37453V5.38855C36.816 5.60698 37.2258 6.40145 38.6359 9.22076H36.9827Z" fill="#C5CFE0"/>
<path d="M10.5758 4.8311C10.5758 7.49915 8.41273 9.6622 5.74468 9.6622C3.07711 9.6622 0.914062 7.49915 0.914062 4.8311C0.914062 2.16305 3.07711 0 5.74468 0C8.41273 0.000483255 10.5758 2.16305 10.5758 4.8311Z" fill="#C5CFE0"/>
<path d="M20.9137 4.8311C20.9137 7.49915 18.7506 9.6622 16.0826 9.6622C13.415 9.6622 11.252 7.49915 11.252 4.8311C11.252 2.16305 13.415 0 16.0826 0C18.7506 0.000483255 20.9137 2.16305 20.9137 4.8311Z" fill="#C5CFE0"/>
<path d="M10.5758 15.1685C10.5758 17.837 8.41273 19.9991 5.74468 19.9991C3.07711 19.9991 0.914062 17.837 0.914062 15.1685C0.914062 12.5 3.07711 10.3379 5.74468 10.3379C8.41273 10.3379 10.5758 12.5 10.5758 15.1685Z" fill="#C5CFE0"/>
<path d="M20.9137 15.1685C20.9137 17.837 18.7506 19.9991 16.0826 19.9991C13.415 19.9991 11.252 17.837 11.252 15.1685C11.252 12.5 13.415 10.3379 16.0826 10.3379C18.7506 10.3379 20.9137 12.5 20.9137 15.1685Z" fill="#C5CFE0"/>
</g>
<defs>
<clipPath id="clip0_1218_3631">
<rect width="69.7674" height="20" fill="white" transform="translate(0.914062)"/>
</clipPath>
</defs>
</svg>
