<svg width="172" height="28" viewBox="0 0 172 28" fill="none" xmlns="http://www.w3.org/2000/svg">
<g clip-path="url(#clip0_677_3098)">
<path d="M17.3967 12.5436L17.3273 12.723C18.485 13.2325 21.0841 15.2527 21.0841 19.3222C21.0841 23.1543 17.854 27.0154 12.7773 27.0154C6.46186 27.0154 4.2853 23.3222 4.2853 19.93C4.2853 15.5827 7.32438 12.6883 7.32438 8.72884C7.30782 7.32847 6.81674 5.97513 5.9314 4.89001C5.04606 3.80489 3.81883 3.05217 2.45028 2.75488L2.34608 2.93433C2.84238 3.4159 3.23617 3.99286 3.50377 4.63052C3.77137 5.26818 3.90725 5.95338 3.90324 6.6449C3.90324 10.9228 0.296875 13.9618 0.296875 18.8707C0.296875 23.3916 3.45751 27.9995 12.6095 27.9995C20.7658 27.9995 25.0668 24.0053 25.0668 19.7563C25.061 16.1094 22.4503 13.0241 17.3967 12.5436Z" fill="#F4F7FB"/>
<path d="M53.229 27.2701L42.3868 13.2903V25.8924L44.5981 26.4191V26.998H39.5561V26.4191L41.3622 25.8924V12.1615C40.9226 11.7518 40.3933 11.4505 39.8166 11.2817C39.5966 11.2353 39.3014 11.1832 39.3014 11.1832V10.6044H43.5793L52.8412 22.6449V11.7216L50.6299 11.189V10.6102H55.6719V11.189L53.8658 11.7216V24.2194C53.8658 25.3772 53.9468 27.0617 53.9642 27.2759L53.229 27.2701ZM75.8976 18.367C75.8976 24.1558 71.8455 27.5132 67.4172 27.5132C62.9888 27.5132 58.9193 24.1094 58.9193 18.8186C58.9193 13.5277 62.9714 10.0892 67.3767 10.0892C68.4855 10.0526 69.5904 10.24 70.6251 10.6403C71.6599 11.0407 72.6032 11.6456 73.3987 12.419C74.1943 13.1923 74.8256 14.1182 75.255 15.1412C75.6843 16.1642 75.9029 17.2634 75.8976 18.3728V18.367ZM73.0785 19.2353C73.0785 14.9806 70.5315 10.8533 67.0699 10.8533C63.3882 10.8533 61.7269 14.4134 61.7269 18.2223C61.7269 22.0313 63.8282 26.7549 67.7819 26.7549C71.4982 26.7549 73.0785 22.9922 73.0785 19.2353ZM79.3998 11.71L77.6632 11.1775V10.5986H84.3144V11.1775L82.2305 11.71L86.8209 24.2252L91.4114 11.71L89.3275 11.1775V10.5986H94.2479V11.1775L92.5113 11.71L86.7631 27.3106H85.2927L79.3998 11.71ZM118.705 18.6275H117.652V11.4611C121.125 11.4611 123.191 12.2599 123.191 15.0964C123.174 17.2035 121.368 18.6275 118.705 18.6275ZM148.465 26.4191L150.78 25.8924V11.7158L148.465 11.1832V10.6044H155.684V11.1832L153.368 11.7158V25.8924L155.684 26.4191V26.998H148.465V26.4191ZM160.106 22.4944H160.563L162.097 26.0255C163.009 26.4836 164.012 26.7327 165.032 26.7549C167.024 26.7549 168.841 25.5971 168.841 23.5248C168.841 21.9503 167.822 21.0125 166.173 20.15L164.54 19.3048C162.589 18.2918 160.639 16.8562 160.639 14.5465C160.639 12.0342 162.375 10.095 166.092 10.095C167.398 10.1082 168.694 10.321 169.935 10.7259L170.323 14.5233H169.831L168.413 11.4785C167.679 11.0684 166.852 10.8532 166.011 10.8533C164.129 10.8533 162.85 12.011 162.85 13.6145C162.85 15.0675 163.817 15.9821 165.472 16.8388L167.406 17.8461C170.045 19.2122 171.296 20.4799 171.296 22.8243C171.296 25.7187 168.581 27.519 165.206 27.519C163.617 27.5432 162.035 27.3065 160.523 26.8186L160.106 22.4944ZM93.1885 26.4191L95.0467 25.8924L100.783 10.5928L102.699 10.1008L108.621 25.8866L110.479 26.4191V26.998H103.452V26.4191L105.831 25.8866L104.152 21.3482H97.8427L96.1755 25.8866L98.5547 26.4134V26.9922H93.1885V26.4191ZM98.2826 20.1384H103.741L101.032 12.8215L98.2826 20.1384ZM122.016 18.9806C122.595 18.8359 125.843 18.0081 125.843 14.9285C125.843 12.4568 123.95 10.5407 119.284 10.5407C116.39 10.5407 113.495 10.6044 113.131 10.616V11.1948L115.035 11.7274V25.8866L113.131 26.4191V26.998H119.869V26.4191L117.657 25.8866V19.4843H119.562L124.43 27.0096H128.743V26.4307L126.56 25.8518L122.016 18.9806ZM136.245 11.4553V25.8924L133.929 26.4191V26.998H141.148V26.4191L138.833 25.8924V11.4611H142.728L144.013 14.2281H144.511L144.141 10.6217H130.937L130.566 14.2281H131.064L132.338 11.49L136.245 11.4553ZM12.7196 21.875L15.0351 -0.000549316H10.2305L12.546 21.875H12.7196Z" fill="#F4F7FB"/>
</g>
<defs>
<clipPath id="clip0_677_3098">
<rect width="170.999" height="28" fill="white" transform="translate(0.296875)"/>
</clipPath>
</defs>
</svg>
