<svg width="98" height="28" viewBox="0 0 98 28" fill="none" xmlns="http://www.w3.org/2000/svg">
<g clip-path="url(#clip0_677_3067)">
<path d="M39.4844 8.00843C39.1982 7.88395 38.8397 7.81223 38.1387 7.81223H35.5732V11.078H37.9953C38.7307 11.078 39.1624 10.988 39.5034 10.8276C40.0784 10.5415 40.3653 10.0361 40.3653 9.35614C40.3653 8.74453 40.0412 8.26079 39.4844 8.00843ZM38.8579 3.10948C38.5873 2.985 38.2646 2.91261 37.7443 2.91261H35.5732V5.99974H37.6191C38.2646 5.99974 38.6597 5.89149 38.9459 5.72911C39.4134 5.46187 39.6468 5.01196 39.6468 4.43757C39.6468 3.84558 39.3768 3.36184 38.8579 3.10948ZM33.5449 12.9087V1.08252H37.8871C38.8207 1.08252 39.4296 1.22595 39.9337 1.45869C41.1352 2.03376 41.6744 3.12775 41.6744 4.13244C41.6744 5.26432 41.2063 6.03424 40.2557 6.60999V6.64585C41.619 6.94962 42.445 7.90019 42.445 9.33719C42.445 10.9339 41.4769 12.1544 39.8254 12.6577C39.2327 12.8363 38.5873 12.9087 37.5637 12.9087H33.5449Z" fill="#F4F7FB"/>
<path d="M56.306 1.08252H54.2783V12.9087H56.306V1.08252Z" fill="#F4F7FB"/>
<path d="M71.0276 1.08252H69.002V12.9087H71.0276V1.08252Z" fill="#F4F7FB"/>
<path d="M77.5766 0.974915C78.8512 0.974915 80.1434 1.28072 80.8592 1.63862L80.8254 3.57695C79.8018 3.07495 78.7605 2.7502 77.5231 2.7502C76.4122 2.7502 75.4596 3.09322 75.4596 4.02619C75.4596 6.44826 81.5446 5.47943 81.5446 9.47992C81.5446 11.6882 79.6773 13.0853 76.9663 13.0853C75.12 13.0853 73.8453 12.565 72.9658 12.0299L73.8075 10.3784C74.5273 10.8276 75.6768 11.3114 77.0387 11.3114C78.2599 11.3114 79.3904 10.8432 79.3904 9.76813C79.3904 7.23577 73.3609 8.34939 73.3609 4.31237C73.3609 2.15821 75.0821 0.974915 77.5766 0.974915Z" fill="#F4F7FB"/>
<path d="M91.144 1.08252H93.1716V12.9087H91.144V7.81223H85.4007V12.9087H83.373V1.08252H85.4007V5.92802H91.144V1.08252Z" fill="#F4F7FB"/>
<path d="M38.0216 14.9857C39.3132 14.9857 40.2996 15.2387 41.3063 15.6853L40.6947 17.4085C40.1203 17.1406 39.366 16.8178 38.2381 16.8178C35.994 16.8178 34.5956 18.719 34.5956 21.0335C34.5956 23.3683 35.904 25.2687 38.2381 25.2687C39.366 25.2687 40.1203 24.9473 40.6947 24.6754L41.3063 26.4006C40.2996 26.8478 39.3132 27.0988 38.0216 27.0988C34.4853 27.0988 32.459 24.6233 32.459 21.07C32.459 17.7508 34.4853 14.9857 38.0216 14.9857Z" fill="#F4F7FB"/>
<path d="M82.3898 14.9857C83.6821 14.9857 84.6685 15.2387 85.6725 15.6853L85.0636 17.4085C84.4885 17.1406 83.7342 16.8178 82.6036 16.8178C80.3602 16.8178 78.9611 18.719 78.9611 21.0335C78.9611 23.3683 80.2716 25.2687 82.6036 25.2687C83.7342 25.2687 84.4885 24.9473 85.0636 24.6754L85.6725 26.4006C84.6685 26.8478 83.6821 27.0988 82.3898 27.0988C78.8528 27.0988 76.8252 24.6233 76.8252 21.07C76.8252 17.7508 78.8528 14.9857 82.3898 14.9857Z" fill="#F4F7FB"/>
<path d="M50.7597 21.0328C50.7597 18.4497 49.2902 16.7989 47.2971 16.7989C45.3059 16.7989 43.8331 18.4497 43.8331 21.0511C43.8331 23.6375 45.3059 25.2863 47.2971 25.2863C49.2909 25.2863 50.7597 23.6375 50.7597 21.0328ZM52.8969 20.9956C52.8969 24.5509 50.6345 27.0981 47.2977 27.0981C43.9251 27.0981 41.6992 24.6395 41.6992 21.0883C41.6992 17.535 43.9596 14.9857 47.2977 14.9857C50.6731 14.9857 52.8969 17.4457 52.8969 20.9956Z" fill="#F4F7FB"/>
<path d="M54.2676 22.4678V15.094H56.2952V22.5409C56.2952 24.513 57.3547 25.2505 59.0407 25.2505C60.7639 25.2505 61.7875 24.513 61.7875 22.5409V15.094H63.8152V22.4678C63.8152 25.6814 61.983 27.0981 59.0069 27.0981C56.0801 27.0981 54.2676 25.6814 54.2676 22.4678Z" fill="#F4F7FB"/>
<path d="M67.6263 18.3076H67.5904C67.6263 18.7007 67.6438 19.3292 67.6438 19.8867V26.9188H65.6162V15.0953H67.8062L73.2945 23.1518H73.3317C73.2945 22.7567 73.2782 22.1281 73.2782 21.5707V15.0953H75.3045V26.9188H73.5116L67.6263 18.3076Z" fill="#F4F7FB"/>
<path d="M89.2908 15.094H87.2666V26.9202H89.2908V15.094Z" fill="#F4F7FB"/>
<path d="M93.1712 25.0881H97.8002V26.9202H91.1436V15.094H93.1712V25.0881Z" fill="#F4F7FB"/>
<path d="M57.8516 1.08453V2.93289H61.6362V12.9087H63.6639V2.93289H67.4506V1.08453H57.8516Z" fill="#F4F7FB"/>
<path d="M47.9574 2.91462H45.8573V6.50443H47.8667C49.3213 6.50443 50.0026 5.75007 50.0026 4.67299C50.0026 3.70416 49.3748 2.91462 47.9574 2.91462ZM50.6291 12.9087C48.908 9.3392 48.4587 8.33317 47.7409 8.33317H45.8573V12.9087H43.8311V1.08521H47.8309C50.8801 1.08521 52.0479 2.70015 52.0479 4.4937C52.0479 6.07279 51.1332 7.1316 49.8585 7.524V7.54362C50.3957 7.84943 50.9694 8.96169 52.9436 12.9087H50.6291Z" fill="#F4F7FB"/>
<path d="M13.6592 6.76354C13.6592 10.4988 10.631 13.5271 6.89568 13.5271C3.16108 13.5271 0.132812 10.4988 0.132812 6.76354C0.132812 3.02827 3.16108 0 6.89568 0C10.631 0.000676557 13.6592 3.02827 13.6592 6.76354Z" fill="#F4F7FB"/>
<path d="M28.1329 6.76354C28.1329 10.4988 25.1046 13.5271 21.3693 13.5271C17.6347 13.5271 14.6064 10.4988 14.6064 6.76354C14.6064 3.02827 17.6347 0 21.3693 0C25.1046 0.000676557 28.1329 3.02827 28.1329 6.76354Z" fill="#F4F7FB"/>
<path d="M13.6592 21.2371C13.6592 24.9731 10.631 28 6.89568 28C3.16108 28 0.132812 24.9731 0.132812 21.2371C0.132812 17.5012 3.16108 14.4742 6.89568 14.4742C10.631 14.4742 13.6592 17.5012 13.6592 21.2371Z" fill="#F4F7FB"/>
<path d="M28.1329 21.2371C28.1329 24.9731 25.1046 28 21.3693 28C17.6347 28 14.6064 24.9731 14.6064 21.2371C14.6064 17.5012 17.6347 14.4742 21.3693 14.4742C25.1046 14.4742 28.1329 17.5012 28.1329 21.2371Z" fill="#F4F7FB"/>
</g>
<defs>
<clipPath id="clip0_677_3067">
<rect width="97.6744" height="28" fill="white" transform="translate(0.132812)"/>
</clipPath>
</defs>
</svg>
