<svg width="81" height="20" viewBox="0 0 81 20" fill="none" xmlns="http://www.w3.org/2000/svg">
<g clip-path="url(#clip0_1218_3622)">
<path d="M7.62946 10.5856H4.87615L6.34256 5.8011L7.62946 10.5856ZM3.44806 15.8582L4.38802 12.7076H8.09742L8.97687 15.8502H12.4059L8.99905 3.86874C8.79735 3.16075 8.37376 2.83398 7.62946 2.83398H2.76629V3.96556H3.1697C3.67801 3.96556 3.95233 4.16727 3.95233 4.55253C3.95233 4.8087 3.89585 5.02251 3.69414 5.60545L0.28125 15.8582H3.44806Z" fill="#C5CFE0"/>
<path d="M16.3736 15.8582V3.83244C16.3736 3.20513 16.0065 2.83398 15.3993 2.83398H12.3838V3.96556H12.5855C13.0918 3.96556 13.3076 4.18139 13.3076 4.69373V15.8582H16.3736Z" fill="#C5CFE0"/>
<path d="M21.5852 15.8582V3.83244C21.5852 3.20513 21.2121 2.83398 20.609 2.83398H17.6035V3.96556H17.8052C18.3135 3.96556 18.5294 4.18139 18.5294 4.69373V15.8582H21.5852Z" fill="#C5CFE0"/>
<path d="M26.9326 4.02328C26.9326 3.14989 26.2851 2.61133 25.1757 2.61133C24.0663 2.61133 23.4148 3.1398 23.4148 4.02328C23.4148 4.90676 24.0825 5.43524 25.1757 5.43524C26.269 5.43524 26.9326 4.9108 26.9326 4.02328ZM26.8741 15.8595V7.09327C26.8741 6.46798 26.503 6.09885 25.8958 6.09885H22.9287V7.20825H23.1042C23.6105 7.20825 23.8263 7.44223 23.8263 7.95053V15.8595H26.8741Z" fill="#C5CFE0"/>
<path d="M33.5874 11.1712V13.0692C33.0771 13.5957 32.4558 13.9184 31.9294 13.9184C31.4029 13.9184 31.1871 13.6481 31.1871 12.9099C31.1871 12.1716 31.3404 11.859 31.889 11.6472C32.4353 11.4248 33.0051 11.2651 33.5874 11.1712ZM29.4645 8.89188C30.4015 8.42704 31.4267 8.16712 32.4719 8.12942C33.2949 8.12942 33.5874 8.4219 33.5874 9.27512V9.49297C32.3388 9.69467 31.9475 9.77132 31.2436 9.92664C30.8493 10.0135 30.4632 10.1343 30.0898 10.2877C28.8573 10.7819 28.2744 11.7339 28.2744 13.1963C28.2744 15.052 29.0812 15.9476 30.7332 15.9476C31.2952 15.9499 31.8524 15.8452 32.3751 15.639C32.8493 15.4232 33.2901 15.1406 33.6842 14.7999V14.9371C33.6842 15.5422 33.9948 15.8508 34.602 15.8508H37.3956V14.808H37.2585C36.732 14.808 36.5384 14.572 36.5384 13.9487V9.29933C36.5384 6.82034 35.6771 5.95703 33.1941 5.95703C32.4069 5.96096 31.6227 6.05366 30.8563 6.23337C30.1322 6.39485 29.4347 6.65835 28.7847 7.016L29.4645 8.89188Z" fill="#C5CFE0"/>
<path d="M41.8429 15.8581V9.25822C42.3532 8.69142 42.8776 8.43525 43.4827 8.43525C44.1302 8.43525 44.2896 8.69142 44.2896 9.67374V15.8581H47.3354V9.22191C47.3354 7.67683 47.2244 7.1887 46.7302 6.66426C46.3268 6.21042 45.6955 5.98047 44.8907 5.98047C43.6986 5.98047 42.8595 6.34959 41.7319 7.40452V7.01523C41.7319 6.41011 41.4152 6.09746 40.792 6.09746H37.8975V7.20685H38.0729C38.5792 7.20685 38.7971 7.44083 38.7971 7.94914V15.8581H41.8429Z" fill="#C5CFE0"/>
<path d="M56.3704 13.8091H52.1204L56.1848 8.11083V6.09375H49.8109C49.0888 6.09375 48.756 6.42455 48.756 7.14868V8.92371H49.8875V8.75024C49.8875 8.30043 50.1215 8.08662 50.6076 8.08662H52.7982L48.6914 13.8494V15.8665H56.3563L56.3704 13.8091Z" fill="#C5CFE0"/>
<path d="M72.3599 15.6102V4.57473C72.3599 3.69528 72.0473 3.39877 71.1941 3.39877H68.6102V4.63928H68.7655C69.3545 4.63928 69.4695 4.7724 69.4695 5.48241V15.6102H72.3599ZM73.6347 15.6102H76.503V7.01539C76.503 6.15208 76.1702 5.84145 75.3291 5.84145H73.6347V15.6102ZM68.2027 15.6102V5.84952H66.5023C65.6612 5.84952 65.3324 6.16015 65.3324 7.02346V15.6102H68.2027ZM79.218 10.0007C79.218 14.8638 75.7204 18.3998 70.9177 18.3998C66.1151 18.3998 62.6094 14.8638 62.6094 10.0007C62.6094 5.13749 66.113 1.60156 70.9177 1.60156C75.7224 1.60156 79.218 5.15766 79.218 10.0007ZM80.9164 10.0007C80.9164 4.28225 76.6381 0 70.9177 0C65.1973 0 60.915 4.28225 60.915 10.0007C60.915 15.7191 65.1933 19.9993 70.9177 19.9993C76.6422 19.9993 80.9164 15.7332 80.9164 10.0007Z" fill="#C5CFE0"/>
</g>
<defs>
<clipPath id="clip0_1218_3622">
<rect width="80.6347" height="20" fill="white" transform="translate(0.28125)"/>
</clipPath>
</defs>
</svg>
