<svg width="39" height="35" viewBox="0 0 39 35" fill="none" xmlns="http://www.w3.org/2000/svg">
<path d="M9.95352 2.48633H2.35352V32.1311H9.95352V28.306H6.15352V18.7432H9.95352V15.8743H6.15352V6.31146H9.95352V2.48633Z" fill="white"/>
<path fill-rule="evenodd" clip-rule="evenodd" d="M17.5529 32.1311V18.7432H21.3529V32.1311H25.1529V2.48633H13.7529V32.1311H17.5529ZM21.3529 15.8743H17.5529V5.35518H21.3529V15.8743Z" fill="white"/>
<path d="M17.5529 18.7432V18.2432H17.0529V18.7432H17.5529ZM17.5529 32.1311V32.6311H18.0529V32.1311H17.5529ZM21.3529 18.7432H21.8529V18.2432H21.3529V18.7432ZM21.3529 32.1311H20.8529V32.6311H21.3529V32.1311ZM25.1529 32.1311V32.6311H25.6529V32.1311H25.1529ZM25.1529 2.48633H25.6529V1.98633H25.1529V2.48633ZM13.7529 2.48633V1.98633H13.2529V2.48633H13.7529ZM13.7529 32.1311H13.2529V32.6311H13.7529V32.1311ZM17.5529 15.8743H17.0529V16.3743H17.5529V15.8743ZM21.3529 15.8743V16.3743H21.8529V15.8743H21.3529ZM17.5529 5.35518V4.85518H17.0529V5.35518H17.5529ZM21.3529 5.35518H21.8529V4.85518H21.3529V5.35518ZM17.0529 18.7432V32.1311H18.0529V18.7432H17.0529ZM21.3529 18.2432H17.5529V19.2432H21.3529V18.2432ZM21.8529 32.1311V18.7432H20.8529V32.1311H21.8529ZM25.1529 31.6311H21.3529V32.6311H25.1529V31.6311ZM24.6529 2.48633V32.1311H25.6529V2.48633H24.6529ZM13.7529 2.98633H25.1529V1.98633H13.7529V2.98633ZM14.2529 32.1311V2.48633H13.2529V32.1311H14.2529ZM17.5529 31.6311H13.7529V32.6311H17.5529V31.6311ZM17.5529 16.3743H21.3529V15.3743H17.5529V16.3743ZM17.0529 5.35518V15.8743H18.0529V5.35518H17.0529ZM21.3529 4.85518H17.5529V5.85518H21.3529V4.85518ZM21.8529 15.8743V5.35518H20.8529V15.8743H21.8529Z" fill="white"/>
<path d="M36.5531 2.48633H28.9531V32.1311H36.5531V28.306H32.7531V6.31146H36.5531V2.48633Z" fill="white" stroke="white"/>
</svg>
