<svg width="50" height="14" viewBox="0 0 50 14" fill="none" xmlns="http://www.w3.org/2000/svg">
<g clip-path="url(#clip0_1218_3654)">
<path d="M47.7811 3.46509C47.3565 2.9616 46.6011 2.89967 46.1045 3.32263C45.9834 3.42396 45.8836 3.54829 45.8108 3.68843C45.738 3.82857 45.6937 3.98175 45.6805 4.13911C45.6672 4.29647 45.6853 4.4549 45.7336 4.60524C45.7819 4.75558 45.8596 4.89485 45.9621 5.015C46.5708 5.73654 46.9067 6.64901 46.911 7.59301C46.9077 9.80721 45.1128 11.6021 42.9095 11.5946C42.3832 11.5995 41.8612 11.4985 41.3749 11.2974C40.8885 11.0962 40.4476 10.7992 40.0785 10.424C39.322 9.67418 38.906 8.6697 38.9082 7.59301C38.9062 7.06946 39.0086 6.55078 39.2096 6.06734C39.4105 5.58389 39.7059 5.1454 40.0785 4.77756C40.4475 4.4023 40.8884 4.10527 41.3748 3.9042C41.8612 3.70313 42.3832 3.60215 42.9095 3.60728C43.3055 3.59978 43.6987 3.65782 44.08 3.7653C44.7077 3.96553 45.3761 3.60922 45.5669 2.97437C45.6132 2.82484 45.6295 2.66763 45.6147 2.51179C45.6 2.35595 45.5545 2.20457 45.481 2.06637C45.4075 1.92818 45.3073 1.8059 45.1863 1.7066C45.0653 1.6073 44.9259 1.53293 44.776 1.48778C44.1713 1.30104 43.5423 1.20511 42.9095 1.20312C39.3811 1.20646 36.5126 4.07495 36.5196 7.59301C36.5126 9.30871 37.1778 10.9144 38.3861 12.1167C39.5933 13.33 41.199 13.9951 42.9095 13.9987C44.6149 13.9948 46.2206 13.33 47.4331 12.1167C48.6359 10.9144 49.301 9.30871 49.2993 7.59301C49.2996 6.08039 48.7614 4.61707 47.7811 3.46509Z" fill="#C5CFE0"/>
<path d="M36.03 9.28509C35.4705 8.9349 34.734 9.11375 34.3852 9.68056C33.6567 10.8828 32.3778 11.6015 30.9687 11.5945C29.9015 11.6015 28.897 11.1855 28.1377 10.424C27.3854 9.67417 26.9691 8.66941 26.9672 7.593C26.967 7.0697 27.0703 6.55153 27.2712 6.06833C27.4721 5.58514 27.7666 5.14645 28.1377 4.77755C28.8967 4.01579 29.9015 3.59978 30.9687 3.60728C32.3015 3.59978 33.542 4.25962 34.2902 5.36269C34.3776 5.49346 34.4903 5.60552 34.6214 5.69236C34.7526 5.7792 34.8998 5.83908 35.0543 5.86852C35.2089 5.89795 35.3677 5.89636 35.5216 5.86382C35.6756 5.83129 35.8215 5.76846 35.9509 5.67901C36.4974 5.31604 36.6413 4.57232 36.2672 4.01829C35.6813 3.15172 34.892 2.44198 33.9682 1.9512C33.0445 1.46042 32.0145 1.20356 30.9685 1.20312C27.4443 1.20618 24.5761 4.07466 24.5791 7.59272C24.5761 9.30842 25.2412 10.9142 26.4453 12.1164C27.6567 13.3294 29.2625 13.9948 30.969 13.9984C33.2201 13.9945 35.2627 12.8465 36.4419 10.93C36.7779 10.3587 36.5994 9.62251 36.03 9.28509Z" fill="#C5CFE0"/>
<path d="M24.0247 9.28539C23.891 9.20215 23.7422 9.14632 23.5868 9.12114C23.4314 9.09597 23.2725 9.10196 23.1194 9.13876C22.9664 9.17556 22.8221 9.24244 22.6951 9.33551C22.5682 9.42857 22.461 9.54596 22.3798 9.68085C21.6438 10.8831 20.3652 11.6021 18.9633 11.5948C17.8883 11.6021 16.8836 11.1858 16.1323 10.4243C15.3725 9.67446 14.9562 8.66997 14.9618 7.59328C14.9581 7.06948 15.0599 6.5503 15.261 6.06663C15.4621 5.58295 15.7584 5.14466 16.1323 4.77784C16.8838 4.01607 17.8886 3.60006 18.9633 3.60756C19.6164 3.60454 20.2601 3.76327 20.8369 4.06958C21.4137 4.37589 21.9057 4.82024 22.269 5.36298C22.6455 5.91257 23.3893 6.05643 23.9297 5.67929C24.4846 5.31632 24.6287 4.57289 24.2618 4.01857C23.6747 3.15326 22.8852 2.44445 21.9617 1.95377C21.0383 1.4631 20.009 1.20542 18.9633 1.20312C15.4314 1.20646 12.5629 4.07495 12.5576 7.59301C12.5629 9.30871 13.228 10.9144 14.4397 12.1167C15.6436 13.33 17.249 13.9951 18.9633 13.9987C21.2067 13.9948 23.2496 12.8468 24.4201 10.9303C24.765 10.359 24.5862 9.62281 24.0247 9.28539Z" fill="#C5CFE0"/>
<path d="M12.1309 9.28618C11.5702 8.93598 10.8337 9.11483 10.486 9.68164C9.75645 10.8839 8.47786 11.6026 7.06959 11.5956C6.40181 11.6021 5.74332 11.4389 5.15587 11.1213L11.6088 5.55345C12.0876 5.13466 12.1634 4.42316 11.7829 3.92439C11.1538 3.08686 10.3287 2.41664 9.38 1.97261C8.43131 1.52857 7.38808 1.32431 6.34198 1.37777C5.62021 1.42026 4.91732 1.57744 4.25414 1.85238C3.64151 2.09982 3.34852 2.79826 3.60569 3.40257C3.66303 3.5486 3.7488 3.6818 3.85802 3.79443C3.96724 3.90706 4.09775 3.99688 4.24195 4.05867C4.38616 4.12047 4.54121 4.15301 4.69809 4.15442C4.85498 4.15582 5.01058 4.12606 5.15587 4.06685C5.57414 3.89572 6.01757 3.79413 6.46862 3.76609C7.41728 3.72249 8.33706 4.01326 9.07828 4.57285L3.49516 9.39699C3.21302 8.83785 3.06669 8.22008 3.06804 7.5938C3.06866 6.86244 3.27115 6.14544 3.65317 5.52179C3.99365 4.95942 3.8148 4.22321 3.25771 3.8769C2.6859 3.53559 1.94969 3.71416 1.61282 4.27236C0.99948 5.27142 0.676381 6.4215 0.679713 7.5938C0.675547 9.30951 1.34067 10.9152 2.54594 12.1175C3.75621 13.3305 5.36221 13.9959 7.06959 13.9995C9.31989 13.9956 11.3622 12.8476 12.5263 10.9311C12.8777 10.3598 12.6988 9.6236 12.1309 9.28618ZM46.8007 1.28307C46.8065 0.544352 47.4081 -0.00218567 48.1135 0.00198001C48.8222 -0.00246339 49.4237 0.544352 49.4262 1.28307C49.4237 2.03428 48.8222 2.58082 48.1135 2.57998C47.4081 2.58082 46.8065 2.034 46.8007 1.28307Z" fill="#C5CFE0"/>
<path d="M48.1133 2.35819C48.7028 2.36541 49.1638 1.90746 49.1572 1.28261C49.1638 0.673866 48.7028 0.212585 48.1133 0.207031C47.527 0.212585 47.066 0.673866 47.0694 1.28261C47.066 1.90746 47.527 2.36569 48.1133 2.35819Z" fill="#C5CFE0"/>
<path d="M47.8444 2.02594H47.623V0.539062H48.1924C48.5387 0.544061 48.7131 0.673753 48.7145 0.966185C48.7131 1.23418 48.5456 1.35026 48.319 1.3772L48.7459 2.02594H48.4929L48.0974 1.39303H47.8444V2.02594Z" fill="#C5CFE0"/>
<path d="M48.1138 1.20313C48.3068 1.19618 48.4776 1.18258 48.4776 0.95013C48.4776 0.769062 48.3101 0.734903 48.1455 0.728516H47.8447V1.20313H48.1138Z" fill="#C5CFE0"/>
</g>
<defs>
<clipPath id="clip0_1218_3654">
<rect width="48.7465" height="14" fill="white" transform="translate(0.679688)"/>
</clipPath>
</defs>
</svg>
