<svg width="111" height="18" viewBox="0 0 111 18" fill="none" xmlns="http://www.w3.org/2000/svg">
<g clip-path="url(#clip0_1218_3662)">
<path d="M11.4225 8.06423L11.3778 8.17959C12.1221 8.50707 13.7929 9.80581 13.7929 12.4219C13.7929 14.8854 11.7164 17.3675 8.45285 17.3675C4.39289 17.3675 2.99367 14.9933 2.99367 12.8126C2.99367 10.0179 4.94737 8.15726 4.94737 5.61188C4.93672 4.71165 4.62103 3.84164 4.05188 3.14406C3.48274 2.44649 2.6938 1.9626 1.81402 1.77148L1.74703 1.88685C2.06609 2.19642 2.31924 2.56733 2.49126 2.97725C2.66329 3.38718 2.75064 3.82766 2.74807 4.27221C2.74807 7.02226 0.429688 8.97595 0.429688 12.1316C0.429688 15.038 2.46153 18.0001 8.34493 18.0001C13.5883 18.0001 16.3532 15.4324 16.3532 12.701C16.3495 10.3566 14.6712 8.3731 11.4225 8.06423Z" fill="#C5CFE0"/>
<path d="M34.4574 17.5311L27.4873 8.54414V16.6454L28.9089 16.9841V17.3562H25.6676V16.9841L26.8287 16.6454V7.81849C26.5461 7.55508 26.2058 7.36138 25.8351 7.25285C25.6937 7.22307 25.5039 7.18958 25.5039 7.18958V6.81745H28.2539L34.208 14.5578V7.53566L32.7865 7.1933V6.82117H36.0278V7.1933L34.8667 7.53566V15.57C34.8667 16.3143 34.9188 17.3972 34.93 17.5348L34.4574 17.5311ZM49.03 11.8077C49.03 15.5291 46.4251 17.6874 43.5783 17.6874C40.7315 17.6874 38.1154 15.4993 38.1154 12.098C38.1154 8.69672 40.7203 6.48625 43.5523 6.48625C44.2651 6.46272 44.9754 6.58323 45.6406 6.84058C46.3058 7.09792 46.9122 7.4868 47.4236 7.98396C47.935 8.48112 48.3409 9.07634 48.6169 9.734C48.8929 10.3917 49.0334 11.0982 49.03 11.8115V11.8077ZM47.2178 12.3659C47.2178 9.63077 45.5804 6.97747 43.355 6.97747C40.9883 6.97747 39.9203 9.26608 39.9203 11.7147C39.9203 14.1633 41.2711 17.1999 43.8128 17.1999C46.2018 17.1999 47.2178 14.7811 47.2178 12.3659ZM51.2814 7.52822L50.165 7.18586V6.81373H54.4408V7.18586L53.1012 7.52822L56.0522 15.5737L59.0032 7.52822L57.6635 7.18586V6.81373H60.8266V7.18586L59.7102 7.52822L56.015 17.5572H55.0697L51.2814 7.52822ZM76.5492 11.9752H75.8719V7.36821C78.1047 7.36821 79.4332 7.88175 79.4332 9.70519C79.422 11.0598 78.261 11.9752 76.5492 11.9752ZM95.6805 16.9841L97.169 16.6454V7.53194L95.6805 7.18958V6.81745H100.321V7.18958L98.8324 7.53194V16.6454L100.321 16.9841V17.3562H95.6805V16.9841ZM103.164 14.461H103.458L104.444 16.731C105.03 17.0255 105.675 17.1857 106.331 17.1999C107.611 17.1999 108.779 16.4557 108.779 15.1234C108.779 14.1112 108.125 13.5084 107.064 12.9539L106.015 12.4106C104.76 11.7594 103.506 10.8365 103.506 9.35167C103.506 7.73662 104.623 6.48998 107.012 6.48998C107.851 6.4985 108.685 6.63529 109.483 6.8956L109.732 9.33678H109.416L108.504 7.37937C108.032 7.11577 107.5 6.97741 106.96 6.97747C105.75 6.97747 104.928 7.72173 104.928 8.75253C104.928 9.68659 105.549 10.2746 106.614 10.8253L107.857 11.4728C109.554 12.351 110.357 13.166 110.357 14.6731C110.357 16.5338 108.612 17.6911 106.442 17.6911C105.421 17.7067 104.404 17.5546 103.432 17.2409L103.164 14.461ZM60.1456 16.9841L61.3402 16.6454L65.028 6.81001L66.2597 6.4937L70.0666 16.6417L71.2612 16.9841V17.3562H66.7435V16.9841L68.273 16.6417L67.1938 13.7242H63.1376L62.0658 16.6417L63.5953 16.9804V17.3525H60.1456V16.9841ZM63.4204 12.9465H66.9296L65.188 8.24271L63.4204 12.9465ZM78.6778 12.2022C79.0499 12.1092 81.1376 11.577 81.1376 9.59727C81.1376 8.00827 79.9207 6.77652 76.9213 6.77652C75.0606 6.77652 73.2 6.81745 72.9655 6.82489V7.19702L74.1899 7.53939V16.6417L72.9655 16.9841V17.3562H77.2972V16.9841L75.8756 16.6417V12.526H77.0999L80.2296 17.3637H83.0019V16.9915L81.599 16.6194L78.6778 12.2022ZM87.8248 7.36448V16.6454L86.3362 16.9841V17.3562H90.9767V16.9841L89.4882 16.6454V7.36821H91.9926L92.8188 9.14699H93.1388L92.9006 6.82862H84.4123L84.1741 9.14699H84.4942L85.3129 7.38681L87.8248 7.36448ZM8.4156 14.0629L9.90412 0H6.81543L8.30396 14.0629H8.4156Z" fill="#C5CFE0"/>
</g>
<defs>
<clipPath id="clip0_1218_3662">
<rect width="109.928" height="18" fill="white" transform="translate(0.429688)"/>
</clipPath>
</defs>
</svg>
