<svg width="24" height="28" viewBox="0 0 24 28" fill="none" xmlns="http://www.w3.org/2000/svg">
<g clip-path="url(#clip0_677_3056)">
<path d="M22.5199 9.5452C22.3575 9.6712 19.4903 11.2868 19.4903 14.8792C19.4903 19.0344 23.1387 20.5044 23.2479 20.5408C23.2311 20.6304 22.6683 22.554 21.3243 24.514C20.1259 26.2388 18.8743 27.9608 16.9703 27.9608C15.0663 27.9608 14.5763 26.8548 12.3783 26.8548C10.2363 26.8548 9.47472 27.9972 7.73312 27.9972C5.99152 27.9972 4.77632 26.4012 3.37912 24.4412C1.76073 22.1396 0.453125 18.564 0.453125 15.1704C0.453125 9.7272 3.99232 6.8404 7.47552 6.8404C9.32632 6.8404 10.8691 8.0556 12.0311 8.0556C13.1371 8.0556 14.8619 6.7676 16.9675 6.7676C17.7655 6.7676 20.6327 6.8404 22.5199 9.5452ZM15.9679 4.4632C16.8387 3.43 17.4547 1.9964 17.4547 0.5628C17.4547 0.364 17.4379 0.1624 17.4015 0C15.9847 0.0532 14.2991 0.9436 13.2827 2.1224C12.4847 3.0296 11.7399 4.4632 11.7399 5.9164C11.7399 6.1348 11.7763 6.3532 11.7931 6.4232C11.8827 6.44 12.0283 6.4596 12.1739 6.4596C13.4451 6.4596 15.0439 5.6084 15.9679 4.4632Z" fill="#F4F7FB"/>
</g>
<defs>
<clipPath id="clip0_677_3056">
<rect width="22.792" height="28" fill="white" transform="translate(0.453125)"/>
</clipPath>
</defs>
</svg>
