<svg width="75" height="24" viewBox="0 0 75 24" fill="none" xmlns="http://www.w3.org/2000/svg">
<path fill-rule="evenodd" clip-rule="evenodd" d="M10.3236 0.170458C12.6944 -0.234465 15.1862 0.085137 17.3699 1.09612C19.7572 2.19748 21.7728 4.09847 22.9837 6.43488C24.4492 9.19278 24.7573 12.5389 23.8304 15.5196C23.125 17.8701 21.6569 19.9786 19.719 21.4797C17.6614 23.0993 15.05 24.0135 12.4296 23.9983C9.70222 24.0467 6.97745 23.084 4.85494 21.3741C2.93868 19.8436 1.50881 17.7122 0.830197 15.3541C0.0394759 12.628 0.248277 9.62188 1.42986 7.03842C3.024 3.46945 6.46307 0.804529 10.3236 0.170458ZM13.918 7.16318C13.1299 8.33078 12.9555 9.76065 12.6409 11.1014C12.194 11.3039 11.7064 11.4159 11.2162 11.3357C11.2607 10.9206 11.3868 10.4266 11.0786 10.079C10.6751 9.76448 9.95054 9.95035 9.86269 10.4902C9.67043 11.025 10.0524 11.5114 10.4586 11.8081C9.83595 13.0711 9.30117 14.4208 8.36915 15.4954C8.02919 14.9059 7.90695 14.2209 7.90824 13.5473C7.92604 12.4587 8.15523 11.3879 8.43028 10.34C7.7249 10.0306 6.95584 9.77592 6.17661 9.88669C5.11725 10.0764 4.53663 11.4057 4.97335 12.3505C5.28534 12.4383 5.70801 12.4625 5.84047 12.0907C6.06706 11.6807 5.71318 11.3357 5.47125 11.0466C5.5705 10.955 5.67618 10.8735 5.78825 10.8009C6.25684 10.9219 6.72538 11.0696 7.21559 11.0555C6.71773 12.2945 6.58787 13.7014 6.9253 14.9988C7.08313 15.5094 7.37729 16.1384 7.98079 16.1995C8.52449 16.2785 8.9205 15.8162 9.21331 15.4279C9.96454 14.3571 10.47 13.1437 11.0086 11.9596C11.4874 12.0398 11.975 12.0767 12.4602 12.0385C12.1571 13.4315 11.8884 14.8308 11.5867 16.225C11.4568 16.6986 11.3728 17.2704 10.9017 17.5339C10.6687 17.278 10.5528 16.7559 10.1275 16.803C9.76336 16.7738 9.56095 17.1965 9.62076 17.511C9.67043 18.0457 10.2879 18.322 10.7693 18.1999C11.5536 18.0763 12.0285 17.3455 12.3316 16.677C13.0127 15.1236 13.1859 13.4162 13.5793 11.78C14.1523 11.5585 14.696 11.2707 15.218 10.9499C15.1709 11.2987 15.0805 11.6578 15.1709 12.0079C15.3797 12.9744 16.1972 13.6568 16.4582 14.5991C16.5626 14.9734 16.229 15.3299 15.8725 15.3846C15.2397 15.3669 15.4078 14.3011 14.7355 14.3469C14.1307 14.4424 14.1332 15.3286 14.5228 15.6724C15.3836 16.4669 16.9942 15.9538 17.2425 14.8066C17.5315 13.7498 16.8936 12.7821 16.3449 11.9392C16.1564 11.5954 15.8177 11.1969 16.0227 10.7882C16.3232 10.27 16.9981 10.1617 17.5455 10.2279C17.3444 10.5119 17.1432 10.876 17.324 11.2224C17.5405 11.6718 18.2955 11.6183 18.4254 11.1256C18.6176 10.3438 17.8893 9.64606 17.1483 9.59131C15.9718 9.45253 14.8883 10.0255 13.8556 10.5017C14.0568 9.711 14.1841 8.90501 14.3548 8.10795C14.4477 7.72598 14.5279 7.30453 14.8462 7.03716C15.1162 7.2065 15.2206 7.54772 15.5007 7.69923C15.7159 7.7298 16.0164 7.67379 16.08 7.4306C16.2608 6.98114 15.9922 6.41326 15.5045 6.32159C14.8564 6.19808 14.2542 6.64245 13.918 7.16318ZM18.0727 13.9904C17.953 14.2871 17.79 14.6156 17.9377 14.9339C18.0574 15.3223 18.5833 15.4228 18.8901 15.2039C19.2161 14.9008 19.2008 14.3049 18.8672 14.0134C18.6418 13.8071 18.3324 13.9586 18.0727 13.9904ZM39.6481 10.0866C40.463 9.48816 41.7477 9.72373 42.2596 10.6125C42.0342 10.7589 41.8063 10.9028 41.5809 11.0466C41.3339 10.7436 41.0003 10.438 40.5738 10.5361C40.039 10.5437 39.7984 11.2835 40.2071 11.6183C40.7775 12.064 41.5554 12.1709 42.0851 12.6828C42.7867 13.3131 42.6835 14.6436 41.8241 15.0867C40.7839 15.6291 39.3285 15.2764 38.781 14.1992C39.0191 14.0643 39.2598 13.9293 39.5004 13.7969C39.7296 14.0528 39.9384 14.3673 40.2822 14.4781C40.6909 14.6029 41.2027 14.5812 41.516 14.2578C41.7872 13.9663 41.7082 13.4722 41.3925 13.2468C40.8793 12.875 40.2351 12.7401 39.7283 12.3581C38.9975 11.8603 38.9504 10.6316 39.6481 10.0866ZM45.3548 11.0925C46.1787 9.58366 48.5189 9.30102 49.7285 10.4864C49.5375 10.6812 49.3465 10.8735 49.1568 11.0683C48.4247 10.41 47.1871 10.3578 46.474 11.067C45.6031 11.8857 45.6999 13.4913 46.6829 14.184C47.4214 14.7009 48.4247 14.6156 49.1976 14.2196C49.1937 13.9026 49.1912 13.5855 49.1912 13.2685C48.7137 13.2736 48.2363 13.2723 47.7588 13.2685C47.7601 13.0138 47.7613 12.7592 47.7626 12.5045C48.5049 12.5083 49.2459 12.5071 49.9883 12.5071C49.987 13.2315 49.9933 13.9561 49.9819 14.6818C48.636 15.6584 46.4448 15.5833 45.4516 14.1407C44.871 13.243 44.8379 12.0258 45.3548 11.0925V11.0925ZM56.7849 9.82176C57.6647 9.64859 58.6592 9.82685 59.3238 10.4622C60.5232 11.4923 60.5169 13.5843 59.3302 14.622C58.5866 15.2994 57.4712 15.4954 56.5227 15.1936C55.6097 14.9161 54.875 14.1139 54.6929 13.1755C54.5656 12.5262 54.6255 11.8284 54.9247 11.2338C55.2888 10.5144 55.998 9.98858 56.7849 9.82176ZM57.0472 10.5806C56.0923 10.7385 55.4289 11.7177 55.5231 12.6624C55.5155 13.7523 56.5583 14.7047 57.6482 14.5316C58.6834 14.4577 59.432 13.4136 59.3213 12.4103C59.3327 11.2644 58.1741 10.2992 57.0472 10.5806ZM65.7271 15.2421C66.519 13.3882 67.2919 11.5279 68.0915 9.67663C68.9726 11.5025 69.7162 13.3933 70.5425 15.2446C70.2357 15.2446 69.9314 15.2446 69.6258 15.2408C69.4564 14.841 69.2909 14.4386 69.1292 14.0363C68.4429 14.0363 67.7566 14.0363 67.0716 14.0324C66.9073 14.4348 66.7457 14.8397 66.5865 15.2446C66.2987 15.2446 66.0135 15.2446 65.7271 15.2421ZM67.3823 13.2341C67.8559 13.2405 68.3296 13.2405 68.8045 13.2392C68.5639 12.6255 68.2939 12.0232 68.0953 11.3955C67.889 12.0194 67.6357 12.6267 67.3823 13.2341ZM29.0342 9.83324C29.35 9.83451 29.667 9.83451 29.9841 9.83067C30.4781 11.0976 31.0867 12.3225 31.503 13.6186C31.8927 12.3161 32.5051 11.0938 33.0042 9.83067C33.2882 9.83194 33.5721 9.83194 33.8573 9.83194C33.0755 11.6884 32.2937 13.5461 31.5069 15.4012C31.4037 15.2306 31.3044 15.0587 31.2229 14.8779C30.4908 13.1972 29.7689 11.5127 29.0342 9.83324ZM34.8696 15.2433C34.8708 13.4391 34.8645 11.6336 34.8734 9.82941C36.0053 9.83576 37.1372 9.83706 38.2679 9.82941C38.2704 10.084 38.273 10.34 38.2755 10.5946C37.4364 10.5997 36.5974 10.5972 35.7583 10.5985C35.7621 11.2236 35.7608 11.8488 35.7596 12.474C36.5235 12.4765 37.2875 12.4791 38.0514 12.4714C38.0514 12.7375 38.0527 13.0024 38.0578 13.2685C37.29 13.2749 36.5235 13.2685 35.7583 13.271C35.7621 13.9293 35.7608 14.5863 35.7596 15.2433C35.4629 15.2446 35.1662 15.2446 34.8696 15.2433H34.8696ZM51.0998 9.83194C51.3876 9.83194 51.6741 9.83324 51.9631 9.83194C51.9644 11.3828 51.9605 12.9323 51.9656 14.4819C52.7907 14.4793 53.6158 14.4806 54.4421 14.4819C54.4421 14.7353 54.4421 14.9874 54.4408 15.2421C53.328 15.2459 52.2152 15.2459 51.1024 15.2408C51.1036 13.4379 51.1087 11.6349 51.0998 9.83194ZM61.1955 9.83324C61.9582 9.84725 62.7221 9.80523 63.4823 9.85106C64.1851 9.89051 64.781 10.5501 64.7008 11.2593C64.7339 11.6935 64.4283 12.0373 64.0743 12.2359C64.9809 12.4663 65.3107 13.56 64.9338 14.3533C64.6906 14.9072 64.0871 15.2421 63.495 15.2433C62.7272 15.251 61.9607 15.2395 61.1942 15.2446C61.1955 13.4404 61.1942 11.6374 61.1955 9.83324H61.1955ZM62.0524 10.5959C62.055 11.0415 62.0537 11.4885 62.0524 11.9341C62.5477 11.9023 63.0787 12.0245 63.5485 11.8297C63.9725 11.5903 63.8693 11.0059 63.6134 10.6761C63.099 10.5717 62.5732 10.5959 62.0524 10.5959ZM62.0486 12.6624C62.0562 13.2685 62.055 13.8745 62.0499 14.4806C62.5745 14.459 63.1092 14.5379 63.6262 14.4284C64.38 14.2451 64.4016 13.0075 63.6809 12.7579C63.1538 12.5988 62.591 12.6853 62.0486 12.6624H62.0486ZM71.4122 9.8345C71.7088 9.83323 72.0068 9.83323 72.3047 9.83194C72.3022 11.3828 72.2996 12.9336 72.306 14.4845C73.1323 14.4768 73.9587 14.4819 74.785 14.4806C74.785 14.734 74.7863 14.9886 74.7876 15.2421C73.662 15.2471 72.5364 15.2433 71.4109 15.2433C71.4147 13.4404 71.4109 11.6375 71.4122 9.83455V9.8345ZM43.557 14.4577C43.8804 14.3138 44.3987 14.2744 44.503 14.7137C44.6724 15.1848 44.0523 15.6355 43.6729 15.293C43.3571 15.1262 43.4908 14.7276 43.557 14.4577ZM44.0714 18.0216C44.5476 18.0139 45.0238 18.0139 45.5 18.0241C45.4949 18.1578 45.4898 18.2928 45.486 18.4278C45.1741 18.4252 44.8621 18.4265 44.5514 18.4291C44.5476 18.5755 44.5438 18.7219 44.5412 18.8696C44.8163 18.8721 45.09 18.8747 45.3663 18.8797C45.3459 19.0223 45.3332 19.1662 45.2963 19.305C45.0442 19.3254 44.7921 19.3215 44.54 19.3241C44.5438 19.4693 44.5476 19.6157 44.5514 19.7621C44.8621 19.7634 45.1715 19.7647 45.4822 19.7685C45.4873 19.9124 45.4924 20.0562 45.4975 20.2014C45.0251 20.2142 44.5527 20.2116 44.0791 20.2078C44.0638 19.4795 44.0689 18.7499 44.0714 18.0216ZM46.4715 18.0585C46.8357 17.8739 47.238 18.0394 47.5614 18.2279C47.5092 18.3132 47.4035 18.4863 47.3513 18.5729C47.1579 18.5154 46.9499 18.3722 46.7481 18.4139C46.5729 18.4501 46.5526 18.5097 46.6499 18.648C46.8609 18.9482 47.373 18.9553 47.5334 19.3228C47.6913 19.6399 47.5232 20.088 47.1705 20.1798C46.8013 20.3236 46.418 20.1555 46.1023 19.9671C46.1481 19.8754 46.2411 19.6921 46.2882 19.5991C46.4988 19.6916 46.9218 19.921 47.057 19.7122C47.1559 19.5595 47.0562 19.4846 46.9348 19.4003C46.7329 19.26 46.4839 19.1905 46.3009 19.0262C46.0297 18.7486 46.1023 18.2126 46.4715 18.0585ZM48.1127 18.0228C48.6182 18.0126 49.1263 18.0165 49.633 18.0178C49.6343 18.1196 49.6381 18.3208 49.6394 18.4227C49.4586 18.4252 49.279 18.4291 49.0995 18.4328C49.0932 19.0223 49.0982 19.6106 49.0919 20.2001C48.9837 20.2026 48.7659 20.209 48.6564 20.2128C48.6501 19.617 48.6526 19.0211 48.6513 18.4252C48.5202 18.4265 48.2566 18.4278 48.1255 18.4291C48.1204 18.2941 48.1153 18.1578 48.1127 18.0228ZM52.1197 18.373C52.382 18.1795 52.6888 17.9541 53.0364 18.0636C53.4019 18.1222 53.6222 18.5334 53.5012 18.8772C53.3509 19.221 53.0874 19.4973 52.8658 19.7952C53.081 19.799 53.2987 19.8042 53.5152 19.8092C53.5152 19.9086 53.5152 20.1059 53.5152 20.2039C53.0377 20.2142 52.5602 20.2154 52.084 20.1912C52.3288 19.6891 52.7771 19.3153 53.0295 18.8224C53.0991 18.6863 53.077 18.582 52.9999 18.5118C52.8371 18.3637 52.5587 18.5052 52.368 18.6365C52.284 18.5487 52.2012 18.4609 52.1197 18.373ZM54.749 18.0751C55.2313 17.9187 55.6303 18.2063 55.737 18.6788C55.8436 19.1505 55.8365 19.715 55.4735 20.0664C55.2684 20.2474 54.9703 20.2815 54.727 20.18C54.4994 20.085 54.319 19.8598 54.2541 19.5632C54.1367 19.0262 54.1822 18.3018 54.749 18.0751ZM55.0403 19.8068C55.204 19.7706 55.2936 19.5076 55.3209 19.3624C55.3674 19.1156 55.323 18.8501 55.2155 18.6178C55.1078 18.3852 54.9237 18.4057 54.8133 18.5503C54.6642 18.7457 54.6335 19.0135 54.6646 19.269C54.6879 19.4611 54.7717 19.866 55.0403 19.8068ZM56.9301 18.0954C57.2955 17.9426 57.7755 18.1094 57.9067 18.5003C58.0671 18.9651 58.0836 19.5419 57.7946 19.9607C57.5492 20.3027 57.0205 20.307 56.72 20.0484C56.5205 19.8765 56.4586 19.5657 56.4304 19.3144C56.3771 18.8385 56.4843 18.3154 56.9301 18.0954ZM56.9985 18.6307C56.8672 18.9042 56.8415 19.2417 56.9504 19.526C57.1069 19.9345 57.3933 19.896 57.5079 19.4962C57.575 19.2625 57.5766 19.0102 57.5045 18.7785C57.459 18.6321 57.4137 18.4501 57.2172 18.4559C57.1394 18.4582 57.0583 18.5061 56.9985 18.6307ZM58.5777 18.7346C58.635 18.4609 58.8374 18.2711 59.0361 18.0903C59.129 18.089 59.3149 18.0853 59.4066 18.0827C59.4091 18.7881 59.4168 19.4947 59.3989 20.2001C59.292 20.2026 59.0793 20.209 58.9724 20.2116C58.966 19.715 58.9635 19.2185 58.9686 18.7219C58.8705 18.7257 58.6757 18.732 58.5777 18.7346ZM50.0838 19.7761C50.2378 19.5737 50.5919 19.6563 50.6198 19.9366C50.6434 20.1732 50.3684 20.276 50.2127 20.2279C50.0439 20.1758 49.9743 19.9633 50.0838 19.7761Z" fill="#C5CFE0"/>
</svg>
