<svg width="6" height="6" viewBox="0 0 6 6" xmlns="http://www.w3.org/2000/svg">
<path d="M4.64645 5.35355L5 5.70711L5.70711 5L5.35355 4.64645L4.64645 5.35355ZM0.757359 0.25736C0.481216 0.25736 0.257359 0.481217 0.257359 0.75736L0.257359 5.25736C0.257359 5.5335 0.481217 5.75736 0.757359 5.75736C1.0335 5.75736 1.25736 5.5335 1.25736 5.25736L1.25736 1.25736L5.25736 1.25736C5.5335 1.25736 5.75736 1.0335 5.75736 0.757359C5.75736 0.481217 5.5335 0.257359 5.25736 0.257359L0.757359 0.25736ZM5.35355 4.64645L1.11091 0.403806L0.403806 1.11091L4.64645 5.35355L5.35355 4.64645Z" fill="white"/>
</svg>
