<svg width="6" height="6" viewBox="0 0 6 6" xmlns="http://www.w3.org/2000/svg">
<path d="M0.646447 4.64645L0.292893 5L1 5.70711L1.35355 5.35355L0.646447 4.64645ZM5.74264 0.757359C5.74264 0.481217 5.51878 0.257359 5.24264 0.257359L0.742641 0.257359C0.466498 0.257359 0.242641 0.481217 0.242641 0.757359C0.242641 1.0335 0.466498 1.25736 0.742641 1.25736L4.74264 1.25736L4.74264 5.25736C4.74264 5.5335 4.9665 5.75736 5.24264 5.75736C5.51878 5.75736 5.74264 5.5335 5.74264 5.25736L5.74264 0.757359ZM1.35355 5.35355L5.59619 1.11091L4.88909 0.403806L0.646447 4.64645L1.35355 5.35355Z" fill="white"/>
</svg>
