<svg width="21" height="21" viewBox="0 0 21 21" xmlns="http://www.w3.org/2000/svg">
<path d="M19.8065 9.79119L11.018 0.95229C10.8002 0.737143 10.5063 0.616707 10.2001 0.617189C9.89401 0.617671 9.60045 0.73903 9.38335 0.954861C9.16625 1.17069 9.04317 1.46353 9.04089 1.76965C9.03862 2.07577 9.15732 2.37041 9.37119 2.58944L16.1911 9.44878H1.50485C1.19691 9.44878 0.901577 9.57111 0.683828 9.78886C0.46608 10.0066 0.34375 10.3019 0.34375 10.6099C0.34375 10.9178 0.46608 11.2132 0.683828 11.4309C0.901577 11.6487 1.19691 11.771 1.50485 11.771H16.1913L9.37119 18.6301C9.26209 18.7379 9.17542 18.8662 9.11619 19.0076C9.05696 19.1491 9.02634 19.3009 9.0261 19.4543C9.02586 19.6076 9.056 19.7595 9.11479 19.9011C9.17357 20.0428 9.25984 20.1714 9.36859 20.2795C9.47735 20.3876 9.60645 20.4731 9.74844 20.5311C9.89043 20.589 10.0425 20.6183 10.1958 20.6172C10.3492 20.616 10.5008 20.5845 10.6419 20.5244C10.783 20.4644 10.9108 20.377 11.018 20.2672L19.8065 11.4285C20.0228 11.2109 20.1442 10.9166 20.1442 10.6098C20.1442 10.303 20.0228 10.0087 19.8065 9.79119V9.79119Z" fill="#C5CFE0"/>
</svg>
