<svg width="40" height="34" viewBox="0 0 40 34" xmlns="http://www.w3.org/2000/svg">
<path fill-rule="evenodd" clip-rule="evenodd" d="M22.0812 5.54175C21.3313 5.54175 20.6292 5.17508 20.2002 4.56092L18.5557 2.20142C17.6133 0.848415 16.0678 0.041748 14.4197 0.041748C12.1225 0.041748 8.21749 0.041748 5.33366 0.041748C2.54883 0.041748 0.291992 2.29858 0.291992 5.08342V28.9168C0.291992 30.2533 0.823659 31.5366 1.76783 32.4826C2.71383 33.4268 3.99716 33.9584 5.33366 33.9584H34.667C36.0035 33.9584 37.2868 33.4268 38.2328 32.4826C39.177 31.5366 39.7087 30.2533 39.7087 28.9168V10.5834C39.7087 9.24692 39.177 7.96358 38.2328 7.01758C37.2868 6.07342 36.0035 5.54175 34.667 5.54175H22.0812ZM21.3753 21.0133V15.1667C21.3753 14.4078 20.7593 13.7917 20.0003 13.7917C19.2413 13.7917 18.6253 14.4078 18.6253 15.1667V21.0133L17.3053 19.6951C16.77 19.1579 15.8973 19.1579 15.362 19.6951C14.8248 20.2304 14.8248 21.1031 15.362 21.6384L19.0287 25.3051C19.1937 25.4701 19.3898 25.5856 19.5988 25.6479L19.6025 25.6498C19.718 25.6846 19.8408 25.7048 19.9673 25.7084H20.0278H20.0333C20.1598 25.7048 20.2827 25.6846 20.3982 25.6498L20.4018 25.6479C20.6108 25.5856 20.807 25.4701 20.972 25.3051L24.6387 21.6384C25.1758 21.1031 25.1758 20.2304 24.6387 19.6951C24.1033 19.1579 23.2307 19.1579 22.6953 19.6951L21.3753 21.0133Z" fill="#C5CFE0"/>
</svg>
