<svg width="24" height="24" viewBox="0 0 24 24" xmlns="http://www.w3.org/2000/svg">
<g clip-path="url(#clip0_571_3330)">
<path d="M21 5H18V4C17.9991 3.20462 17.6828 2.44207 17.1203 1.87964C16.5579 1.31722 15.7954 1.00087 15 1H9C8.20462 1.00087 7.44206 1.31722 6.87964 1.87964C6.31722 2.44207 6.00087 3.20462 6 4V5H3C2.20462 5.00088 1.44206 5.31723 0.879644 5.87965C0.317224 6.44207 0.000873479 7.20462 0 8V20C0.000873479 20.7954 0.317224 21.5579 0.879644 22.1204C1.44206 22.6828 2.20462 22.9991 3 23H21C21.7954 22.9991 22.5579 22.6828 23.1203 22.1204C23.6828 21.5579 23.9991 20.7954 24 20V8C23.9991 7.20462 23.6828 6.44207 23.1203 5.87965C22.5579 5.31723 21.7954 5.00088 21 5ZM8 4C8.00024 3.73486 8.10567 3.48064 8.29315 3.29316C8.48064 3.10567 8.73485 3.00024 9 3H15C15.2651 3.00024 15.5194 3.10567 15.7068 3.29316C15.8943 3.48064 15.9998 3.73486 16 4V5H8V4ZM3 7H21C21.2651 7.00024 21.5194 7.10568 21.7068 7.29316C21.8943 7.48065 21.9998 7.73486 22 8V9.2992L14.6962 11.9529C14.5183 11.6625 14.269 11.4225 13.9721 11.2557C13.6752 11.0889 13.3406 11.0008 13 11H11C10.6594 11.0008 10.3248 11.0889 10.0279 11.2557C9.73095 11.4225 9.48168 11.6625 9.3038 11.9529L2 9.2992V8C2.00024 7.73486 2.10567 7.48065 2.29316 7.29316C2.48064 7.10568 2.73486 7.00024 3 7ZM13 13V15H11V13H13ZM21 21H3C2.73486 20.9998 2.48064 20.8943 2.29316 20.7069C2.10567 20.5194 2.00024 20.2652 2 20V11.4275L9 13.9708V15C9.00061 15.5303 9.21152 16.0386 9.58646 16.4136C9.9614 16.7885 10.4698 16.9994 11 17H13C13.5302 16.9994 14.0386 16.7885 14.4135 16.4136C14.7885 16.0386 14.9994 15.5303 15 15V13.9708L22 11.4275V20C21.9998 20.2652 21.8943 20.5194 21.7068 20.7069C21.5194 20.8943 21.2651 20.9998 21 21Z" fill="#C5CFE0"/>
</g>
<defs>
<clipPath id="clip0_571_3330">
<rect width="24" height="24" fill="white"/>
</clipPath>
</defs>
</svg>
