<svg width="24" height="24" viewBox="0 0 24 24" xmlns="http://www.w3.org/2000/svg">
<g clip-path="url(#clip0_677_3254)">
<path d="M14 1C13.4477 1 13 1.4477 13 1.99998V9.34328C12.9964 10.6699 13.5237 11.9429 14.4644 12.8784L19.6528 18.0674C20.0424 18.4573 20.6742 18.4582 21.0649 18.0693C22.952 16.202 24.0095 13.6548 24 11C23.9939 5.4797 19.5203 1.00614 14 1ZM20.3184 15.9043L15.8784 11.4643C15.318 10.9004 15.0024 10.1383 15 9.34332V3.06203C18.9975 3.57128 21.9948 6.97023 22 11C22.0067 12.7773 21.4143 14.5051 20.3184 15.9043Z" fill="#C5CFE0"/>
<path d="M11.8174 13.4033C11.2958 12.8788 11.0021 12.1697 11 11.43V3.99998C11 3.4477 10.5523 3 10 3C4.47717 3 0 7.47717 0 13C0 18.5228 4.47717 23 9.99999 23C12.6547 23.0098 15.202 21.9524 17.0693 20.0654C17.4578 19.6744 17.4567 19.0429 17.0669 18.6533L11.8174 13.4033ZM9.99999 21C5.58174 21.0033 1.99734 17.4242 1.99406 13.0059C1.99102 8.96977 4.99509 5.5635 9 5.06198V11.43C8.99658 12.7011 9.5017 13.9207 10.4028 14.8172L14.9043 19.3191C13.5047 20.4144 11.7772 21.0065 9.99999 21Z" fill="#C5CFE0"/>
<path d="M6 18C6 18.5523 6.4477 19 6.99998 19H11C11.5522 19 11.9999 18.5523 11.9999 18C11.9999 17.4477 11.5522 17 11 17H6.99998C6.4477 17 6 17.4477 6 18Z" fill="#C5CFE0"/>
</g>
<defs>
<clipPath id="clip0_677_3254">
<rect width="24" height="24" fill="white"/>
</clipPath>
</defs>
</svg>
