<svg width="24" height="24" viewBox="0 0 24 24" xmlns="http://www.w3.org/2000/svg">
<path d="M23.9999 2.20861C23.9999 0.99078 23.0091 0 21.7906 0H21.7904C20.6313 0 19.5417 0.451353 18.7223 1.27093L14.7923 5.20091L5.01359 2.90001C3.1483 2.46111 1.18103 3.23729 0.118103 4.83159C0.0411986 4.94713 0 5.08281 0 5.2216C0 5.48033 0.142089 5.71836 0.369872 5.84086L9.32827 10.6648L4.93064 15.0624H2.20861C0.99078 15.0624 0 16.0532 0 17.2719C0 17.5187 0.129638 17.7476 0.34149 17.8747L3.95634 20.0437L6.12522 23.6586C6.25229 23.8703 6.48118 23.9999 6.72818 23.9999C7.3187 23.9999 7.8735 23.7699 8.29025 23.3528C8.70773 22.9355 8.93753 22.3807 8.93753 21.7906V19.0694L13.3352 14.6716L18.159 23.6302C18.2817 23.858 18.5198 24.0001 18.7783 24.0001C18.9171 24.0001 19.0528 23.9589 19.1683 23.8818C20.7626 22.8191 21.5388 20.8518 21.1001 18.9865L18.7992 9.20779L22.729 5.27781C23.5486 4.45805 23.9999 3.3684 23.9999 2.20861V2.20861ZM1.80322 5.01561C2.57299 4.32091 3.65495 4.02501 4.69151 4.26872L13.6228 6.37022L10.3665 9.62655L1.80322 5.01561ZM19.7312 19.3086C19.9751 20.3451 19.679 21.4271 18.9845 22.1969L14.3734 13.6334L17.6297 10.3771L19.7312 19.3086ZM21.7347 4.28337L7.73727 18.2808C7.60526 18.4128 7.53128 18.5915 7.53128 18.7781V21.7906C7.53128 22.005 7.44779 22.2066 7.29581 22.3586C7.23136 22.423 7.15793 22.4752 7.07828 22.5138L5.07164 19.1694C5.01231 19.0705 4.92955 18.9876 4.83049 18.9283L1.48644 16.9218C1.61645 16.6539 1.89129 16.4688 2.20861 16.4688H5.22196C5.40836 16.4688 5.58726 16.3947 5.71909 16.2628L19.7165 2.26519C20.2704 1.7113 21.0069 1.40624 21.7904 1.40624H21.7913C22.2337 1.40624 22.5937 1.76623 22.5937 2.20934C22.5937 2.99285 22.2886 3.7293 21.7347 4.28337V4.28337Z" fill="#F4F7FB"/>
</svg>
