<svg width="24" height="22" viewBox="0 0 24 22"  xmlns="http://www.w3.org/2000/svg">
<path d="M21 4H18V3C17.9991 2.20462 17.6828 1.44207 17.1203 0.879645C16.5579 0.317225 15.7954 0.00087348 15 0H9C8.20462 0.00087348 7.44206 0.317225 6.87964 0.879645C6.31722 1.44207 6.00087 2.20462 6 3V4H3C2.20462 4.00088 1.44206 4.31723 0.879644 4.87965C0.317224 5.44207 0.000873479 6.20462 0 7V19C0.000873479 19.7954 0.317224 20.5579 0.879644 21.1204C1.44206 21.6828 2.20462 21.9991 3 22H21C21.7954 21.9991 22.5579 21.6828 23.1203 21.1204C23.6828 20.5579 23.9991 19.7954 24 19V7C23.9991 6.20462 23.6828 5.44207 23.1203 4.87965C22.5579 4.31723 21.7954 4.00088 21 4ZM8 3C8.00024 2.73486 8.10567 2.48064 8.29315 2.29316C8.48064 2.10567 8.73485 2.00024 9 2H15C15.2651 2.00024 15.5194 2.10567 15.7068 2.29316C15.8943 2.48064 15.9998 2.73486 16 3V4H8V3ZM3 6H21C21.2651 6.00024 21.5194 6.10568 21.7068 6.29316C21.8943 6.48065 21.9998 6.73486 22 7V8.2992L14.6962 10.9529C14.5183 10.6625 14.269 10.4225 13.9721 10.2557C13.6752 10.0889 13.3406 10.0008 13 10H11C10.6594 10.0008 10.3248 10.0889 10.0279 10.2557C9.73095 10.4225 9.48168 10.6625 9.3038 10.9529L2 8.2992V7C2.00024 6.73486 2.10567 6.48065 2.29316 6.29316C2.48064 6.10568 2.73486 6.00024 3 6ZM13 12V14H11V12H13ZM21 20H3C2.73486 19.9998 2.48064 19.8943 2.29316 19.7069C2.10567 19.5194 2.00024 19.2652 2 19V10.4275L9 12.9708V14C9.00061 14.5303 9.21152 15.0386 9.58646 15.4136C9.9614 15.7885 10.4698 15.9994 11 16H13C13.5302 15.9994 14.0386 15.7885 14.4135 15.4136C14.7885 15.0386 14.9994 14.5303 15 14V12.9708L22 10.4275V19C21.9998 19.2652 21.8943 19.5194 21.7068 19.7069C21.5194 19.8943 21.2651 19.9998 21 20Z" fill="#C5CFE0"/>
</svg>
