<svg width="24" height="20" viewBox="0 0 24 20" xmlns="http://www.w3.org/2000/svg">
<path d="M20.4844 10.5697H18.1351C17.8154 10.5697 17.5058 10.6134 17.2112 10.6938C16.63 9.55133 15.4435 8.76636 14.0763 8.76636H9.92367C8.55647 8.76636 7.36997 9.55133 6.78881 10.6938C6.4942 10.6134 6.18464 10.5697 5.86491 10.5697H3.51562C1.57711 10.5697 0 12.1468 0 14.0854V17.8409C0 19.004 0.946266 19.9503 2.10938 19.9503H21.8906C23.0537 19.9503 24 19.004 24 17.8409V14.0854C24 12.1468 22.4229 10.5697 20.4844 10.5697ZM6.40805 12.2821V18.5441H2.10938C1.72167 18.5441 1.40625 18.2286 1.40625 17.8409V14.0854C1.40625 12.9223 2.35252 11.976 3.51562 11.976H5.86491C6.05578 11.976 6.24061 12.002 6.41658 12.0497C6.41152 12.1266 6.40805 12.204 6.40805 12.2821ZM16.1857 18.5441H7.8143V12.282C7.8143 11.1189 8.76056 10.1727 9.92367 10.1727H14.0763C15.2394 10.1727 16.1857 11.1189 16.1857 12.282V18.5441ZM22.5938 17.8409C22.5938 18.2286 22.2783 18.5441 21.8906 18.5441H17.592V12.282C17.592 12.2039 17.5885 12.1265 17.5834 12.0497C17.7594 12.002 17.9442 11.976 18.1351 11.976H20.4844C21.6475 11.976 22.5938 12.9222 22.5938 14.0854V17.8409Z" fill="#F4F7FB"/>
<path d="M4.69044 3.92993C2.96783 3.92993 1.56641 5.33135 1.56641 7.05396C1.56636 8.77657 2.96783 10.178 4.69044 10.178C6.413 10.178 7.81447 8.77657 7.81447 7.05396C7.81447 5.33135 6.41305 3.92993 4.69044 3.92993ZM4.69039 8.77174C3.74319 8.77174 2.97261 8.00117 2.97261 7.05396C2.97261 6.10676 3.74319 5.33618 4.69039 5.33618C5.63759 5.33618 6.40817 6.10676 6.40817 7.05396C6.40817 8.00117 5.63759 8.77174 4.69039 8.77174Z" fill="#F4F7FB"/>
<path d="M11.9998 0.0498047C9.69845 0.0498047 7.82617 1.92208 7.82617 4.22346C7.82617 6.52483 9.69845 8.39711 11.9998 8.39711C14.3012 8.39711 16.1735 6.52483 16.1735 4.22346C16.1735 1.92213 14.3012 0.0498047 11.9998 0.0498047ZM11.9998 6.99086C10.4739 6.99086 9.23242 5.74943 9.23242 4.22346C9.23242 2.69754 10.4739 1.45605 11.9998 1.45605C13.5258 1.45605 14.7672 2.69749 14.7672 4.22346C14.7672 5.74943 13.5258 6.99086 11.9998 6.99086Z" fill="#F4F7FB"/>
<path d="M19.3096 3.92993C17.587 3.92993 16.1855 5.33135 16.1855 7.05396C16.1856 8.77657 17.587 10.178 19.3096 10.178C21.0322 10.178 22.4336 8.77657 22.4336 7.05396C22.4336 5.33135 21.0322 3.92993 19.3096 3.92993ZM19.3096 8.77174C18.3624 8.77174 17.5918 8.00117 17.5918 7.05396C17.5918 6.10676 18.3624 5.33618 19.3096 5.33618C20.2568 5.33618 21.0274 6.10676 21.0274 7.05396C21.0274 8.00117 20.2568 8.77174 19.3096 8.77174Z" fill="#F4F7FB"/>
</svg>
