<svg width="24" height="24" viewBox="0 0 24 24" xmlns="http://www.w3.org/2000/svg">
<g clip-path="url(#clip0_677_3216)">
<path d="M12.0117 0.0117188H11.9884C5.36735 0.0117188 0 5.37906 0 12.0001V12.0234C0 18.6314 5.35681 23.9882 11.9648 23.9882C12.4727 23.9882 12.9296 23.5933 12.9477 23.0858C12.9666 22.5529 12.5403 22.115 12.0117 22.115C11.1472 22.0557 10.168 19.5768 9.82986 17.8545C10.5389 17.6992 11.2695 17.6194 12.0117 17.6194C13.267 17.5606 13.2494 15.7914 11.9885 15.7462C11.1448 15.7478 10.3138 15.8364 9.50603 16.0076C9.37514 15.0363 9.29258 14.0036 9.26205 12.9365H23.0597C23.579 12.9365 23.9999 12.515 23.9998 11.9957V11.9952C23.9971 5.3763 18.6306 0.0118124 12.0117 0.0117188ZM4.30788 5.45156C5.32773 6.30914 6.46976 6.98231 7.69125 7.4537C7.52529 8.59231 7.4225 9.80837 7.38827 11.0634H1.93953C2.13584 8.93397 2.99488 6.99388 4.30788 5.45156ZM1.93953 12.9365H7.38831C7.42255 14.1915 7.52534 15.4075 7.6913 16.5461C6.46976 17.0175 5.32773 17.6906 4.30793 18.5483C2.99488 17.0059 2.13584 15.0658 1.93953 12.9365ZM5.65652 19.864C6.38696 19.2724 7.18831 18.7905 8.03948 18.4271C8.29315 19.5497 8.68413 20.7777 9.16792 21.7081C7.87098 21.3276 6.68138 20.6938 5.65652 19.864ZM8.50758 3.88783C8.3323 4.41148 8.17594 4.97554 8.03948 5.57261C7.18831 5.20917 6.38696 4.72734 5.65652 4.1357C6.68138 3.30598 7.87098 2.67209 9.16792 2.29161C8.93823 2.737 8.71625 3.26444 8.50758 3.88783ZM10.2839 4.48247C11.0085 2.38681 11.6808 1.87604 12.0675 1.88494C12.9264 1.96043 13.9014 4.42122 14.2382 6.13569C12.8134 6.45792 11.2569 6.46148 9.82986 6.14524C9.96065 5.55191 10.1123 4.99488 10.2839 4.48247ZM9.26205 11.0633C9.29258 9.9962 9.37514 8.96348 9.50603 7.99219C11.145 8.34327 12.9261 8.33976 14.5629 7.98282C14.6945 8.95683 14.7775 9.99278 14.8081 11.0634H9.26205V11.0633ZM15.5626 3.88783C15.3565 3.27207 15.1374 2.74988 14.9107 2.3079C16.1862 2.69008 17.3566 3.31773 18.367 4.13579C17.6487 4.71783 16.862 5.19357 16.0266 5.55486C15.8912 4.96439 15.7362 4.40633 15.5626 3.88783ZM16.6819 11.0633C16.6475 9.80219 16.5439 8.58046 16.3765 7.43707C17.5814 6.96663 18.708 6.29926 19.7156 5.45165C21.0285 6.99402 21.8875 8.93411 22.0838 11.0633H16.6819ZM20.3593 19.0229L22.0431 17.3224C22.2898 17.0733 22.3767 16.7072 22.2683 16.3738C22.1599 16.0405 21.8744 15.7955 21.5284 15.739L15.9089 14.8218C15.6103 14.7733 15.3063 14.8717 15.0931 15.0866C14.88 15.3015 14.7838 15.6061 14.8349 15.9044L15.7982 21.524C15.8575 21.8698 16.1051 22.1535 16.4398 22.259C16.7706 22.364 17.1396 22.2752 17.3869 22.0247L19.0412 20.3539L22.4012 23.7139C22.7669 24.0796 23.3599 24.0796 23.7257 23.7139C24.0915 23.3481 24.0915 22.755 23.7257 22.3893L20.3593 19.0229ZM17.3368 19.413L16.903 16.8821L19.4339 17.2952L17.3368 19.413Z" fill="#C5CFE0"/>
</g>
<defs>
<clipPath id="clip0_677_3216">
<rect width="24" height="24" fill="white"/>
</clipPath>
</defs>
</svg>
