<svg width="24" height="25" viewBox="0 0 24 25" xmlns="http://www.w3.org/2000/svg">
<path d="M23.0769 22.9195H22.1538V12.7656C22.1538 12.5812 22.0985 12.4009 21.9951 12.2482C21.8917 12.0954 21.745 11.977 21.5738 11.9084L12.343 8.21606C12.1157 8.12508 11.8615 8.12815 11.6364 8.22459C11.4113 8.32103 11.2337 8.50294 11.1427 8.7303C11.0518 8.95766 11.0548 9.21185 11.1513 9.43694C11.2477 9.66204 11.4296 9.83961 11.657 9.93058L20.3077 13.3907V15.5349H13.8462C13.6013 15.5349 13.3665 15.6321 13.1934 15.8052C13.0203 15.9783 12.9231 16.2131 12.9231 16.4579C12.9231 16.7027 13.0203 16.9375 13.1934 17.1106C13.3665 17.2838 13.6013 17.381 13.8462 17.381H20.3077V19.2272H13.8462C13.6013 19.2272 13.3665 19.3244 13.1934 19.4975C13.0203 19.6706 12.9231 19.9054 12.9231 20.1502C12.9231 20.3951 13.0203 20.6298 13.1934 20.803C13.3665 20.9761 13.6013 21.0733 13.8462 21.0733H20.3077V22.9195H11.0031L9.22763 1.61209C9.20841 1.38133 9.10316 1.16622 8.93276 1.00942C8.76236 0.852633 8.53925 0.765613 8.30769 0.765625H4.61538C4.38382 0.765613 4.16072 0.852633 3.99032 1.00942C3.81991 1.16622 3.71467 1.38133 3.69545 1.61209L1.92 22.9195H0.923077C0.678262 22.9195 0.443473 23.0167 0.270363 23.1898C0.0972524 23.3629 0 23.5977 0 23.8425C0 24.0874 0.0972524 24.3222 0.270363 24.4953C0.443473 24.6684 0.678262 24.7656 0.923077 24.7656H23.0769C23.3217 24.7656 23.5565 24.6684 23.7296 24.4953C23.9027 24.3222 24 24.0874 24 23.8425C24 23.5977 23.9027 23.3629 23.7296 23.1898C23.5565 23.0167 23.3217 22.9195 23.0769 22.9195ZM7.45846 2.61178L7.76612 6.30409H5.15686L5.46462 2.61178H7.45846ZM5.00308 8.15024H7.92L9.15065 22.9195H3.77243L5.00308 8.15024Z" fill="#F4F7FB"/>
</svg>
