<svg width="24" height="24" viewBox="0 0 24 24" xmlns="http://www.w3.org/2000/svg">
<g clip-path="url(#clip0_677_3245)">
<path d="M0.0175781 4.89253V8.05355H3.00755V16.0268H1.51256V20.0134H0.0175781V24.0001H2.01089V22.0068H12.9741V20.0134H3.50588V18.0201H20.4491V20.0134H14.9674V22.0068H21.944V24.0001H23.9374V20.0134H22.4424V16.0268H20.9474V8.05355H23.9374V4.89253L11.9775 0L0.0175781 4.89253ZM5.00087 16.0268V8.05355H6.99418V16.0268H5.00087ZM8.9875 16.0268V8.05355H10.9808V16.0268H8.9875ZM12.9741 16.0268V8.05355H14.9674V16.0268H12.9741ZM18.9541 16.0268H16.9608V8.05355H18.9541V16.0268ZM20.9474 6.06024H2.42844L11.9775 2.15366L21.5265 6.06024H20.9474Z" fill="#C5CFE0"/>
</g>
<defs>
<clipPath id="clip0_677_3245">
<rect width="24" height="24" fill="white"/>
</clipPath>
</defs>
</svg>
