<svg width="24" height="24" viewBox="0 0 24 24" xmlns="http://www.w3.org/2000/svg">
<g>
<path d="M22.951 11.259C22.9389 11.1941 22.9197 11.1308 22.894 11.07C22.887 11.056 22.888 11.04 22.881 11.026L19.381 4.526C19.3419 4.45782 19.2942 4.39496 19.239 4.339C19.1469 4.23335 19.0334 4.14849 18.906 4.09005C18.7785 4.03161 18.6402 4.00091 18.5 4H13V2C13 1.73478 12.8946 1.48043 12.7071 1.29289C12.5196 1.10536 12.2652 1 12 1C11.7348 1 11.4804 1.10536 11.2929 1.29289C11.1054 1.48043 11 1.73478 11 2V4H5.5C5.35983 4.00091 5.22146 4.03161 5.09406 4.09005C4.96665 4.14849 4.85312 4.23335 4.761 4.339C4.70582 4.39496 4.65809 4.45782 4.619 4.526L1.119 11.026C1.112 11.04 1.113 11.056 1.106 11.07C1.08027 11.1304 1.06116 11.1935 1.049 11.258C1.02875 11.3231 1.01534 11.3901 1.009 11.458C1.009 11.473 1 11.486 1 11.502C1 12.6955 1.47411 13.8401 2.31802 14.684C3.16193 15.5279 4.30653 16.002 5.5 16.002C6.69348 16.002 7.83807 15.5279 8.68198 14.684C9.5259 13.8401 10 12.6955 10 11.502C10 11.486 9.992 11.473 9.991 11.458C9.98474 11.3901 9.97133 11.3231 9.951 11.258C9.93885 11.1931 9.91973 11.1298 9.894 11.069C9.887 11.055 9.888 11.039 9.881 11.025L7.174 6H11V18H8C7.73479 18 7.48043 18.1054 7.2929 18.2929C7.10536 18.4804 7 18.7348 7 19C7 19.2652 7.10536 19.5196 7.2929 19.7071C7.48043 19.8947 7.73479 20 8 20H16C16.2652 20 16.5196 19.8947 16.7071 19.7071C16.8947 19.5196 17 19.2652 17 19C17 18.7348 16.8947 18.4804 16.7071 18.2929C16.5196 18.1054 16.2652 18 16 18H13V6H16.826L14.119 11.026C14.112 11.04 14.113 11.056 14.106 11.07C14.0803 11.1304 14.0612 11.1935 14.049 11.258C14.0288 11.3231 14.0153 11.3901 14.009 11.458C14.009 11.473 14 11.486 14 11.502C14 12.6955 14.4741 13.8401 15.318 14.684C16.1619 15.5279 17.3065 16.002 18.5 16.002C19.6935 16.002 20.8381 15.5279 21.682 14.684C22.5259 13.8401 23 12.6955 23 11.502C23 11.486 22.992 11.473 22.991 11.458C22.9847 11.3905 22.9713 11.3238 22.951 11.259ZM5.5 14C5.01361 14 4.53779 13.858 4.13086 13.5916C3.72393 13.3251 3.40356 12.9458 3.209 12.5H7.791C7.59645 12.9458 7.27607 13.3251 6.86914 13.5916C6.46221 13.858 5.9864 14 5.5 14ZM7.326 10.5H3.674L5.5 7.109L7.326 10.5ZM18.5 7.109L20.326 10.5H16.674L18.5 7.109ZM18.5 14C18.0136 14 17.5378 13.858 17.1309 13.5916C16.7239 13.3251 16.4036 12.9458 16.209 12.5H20.791C20.5965 12.9458 20.2761 13.3251 19.8691 13.5916C19.4622 13.858 18.9864 14 18.5 14Z" fill="#C5CFE0"/>
<path d="M20 21H4C3.73478 21 3.48043 21.1054 3.29289 21.2929C3.10536 21.4804 3 21.7348 3 22C3 22.2652 3.10536 22.5196 3.29289 22.7071C3.48043 22.8947 3.73478 23 4 23H20C20.2652 23 20.5196 22.8947 20.7071 22.7071C20.8946 22.5196 21 22.2652 21 22C21 21.7348 20.8946 21.4804 20.7071 21.2929C20.5196 21.1054 20.2652 21 20 21Z" fill="#C5CFE0"/>
</g>
</svg>
