<svg width="20" height="20" viewBox="0 0 20 20" xmlns="http://www.w3.org/2000/svg">
<path d="M18.4688 5.88125C18.1687 5.44375 17.675 5.18125 17.1438 5.18125H4.9875L4.3625 2.3625C4.29375 2.08125 4.04375 1.875 3.75 1.875H1.875C1.53125 1.875 1.25 2.15625 1.25 2.5C1.25 2.84375 1.53125 3.125 1.875 3.125H3.25L3.875 5.94375V5.95V5.95625L5.6375 13.2938C5.64375 13.3188 5.65 13.35 5.6625 13.375C5.9 13.9875 6.5 14.4 7.15625 14.4H14.7063C15.3625 14.4 15.9625 13.9875 16.2 13.3875L18.6375 7.375C18.8312 6.86875 18.7687 6.3125 18.4688 5.88125ZM17.4812 6.9L15.0437 12.9125C14.9937 13.05 14.8563 13.1375 14.7125 13.1375H7.1625C7.03125 13.1375 6.90625 13.0563 6.84375 12.9375L5.28125 6.425H17.1438C17.3125 6.425 17.4062 6.53125 17.4375 6.58125C17.4688 6.63125 17.5375 6.75625 17.4812 6.9ZM8.75 16.8687C8.75 17.5562 8.19375 18.1125 7.50625 18.1125C6.81875 18.1125 6.2625 17.5562 6.2625 16.8687C6.2625 16.1812 6.81875 15.625 7.50625 15.625C8.19375 15.625 8.75 16.1812 8.75 16.8687ZM15.625 16.8687C15.625 17.5562 15.0688 18.1125 14.3813 18.1125C13.6938 18.1125 13.1375 17.5562 13.1375 16.8687C13.1375 16.1812 13.6938 15.625 14.3813 15.625C15.0688 15.625 15.625 16.1812 15.625 16.8687Z" fill="#3F3D56"/>
</svg>
