<svg width="24" height="24" viewBox="0 0 24 24" xmlns="http://www.w3.org/2000/svg">
<path d="M12.0008 0.761719C5.79232 0.761719 0.750843 5.88207 0.750843 12.1882C0.754593 14.2062 1.29448 16.1812 2.29479 17.922L0.769885 22.5681C0.672145 22.866 0.951314 23.1493 1.24449 23.0502L5.61998 21.5691C7.49535 22.8877 9.71559 23.6098 12.0001 23.6133C18.209 23.6131 23.2501 18.4932 23.2501 12.1875C23.2501 5.88162 18.2094 0.761863 12.0008 0.761719ZM8.24133 11.0449C8.85819 11.0449 9.36633 11.561 9.36633 12.1875C9.36631 12.8141 8.85818 13.3301 8.24133 13.3301C7.62447 13.3301 7.11706 12.8141 7.11706 12.1875C7.11705 11.561 7.62447 11.0449 8.24133 11.0449ZM12.0008 11.0449C12.6177 11.0449 13.1259 11.561 13.1258 12.1875C13.1258 12.8141 12.6177 13.3301 12.0008 13.3301C11.384 13.3301 10.8759 12.8141 10.8758 12.1875C10.8758 11.561 11.384 11.0449 12.0008 11.0449ZM15.7413 11.0449C16.3582 11.0449 16.8663 11.561 16.8663 12.1875C16.8663 12.8141 16.3582 13.3301 15.7413 13.3301C15.1245 13.3301 14.6163 12.8141 14.6163 12.1875C14.6163 11.561 15.1245 11.0449 15.7413 11.0449Z" fill="white"/>
</svg>
