<svg width="16" height="16" viewBox="0 0 16 16" xmlns="http://www.w3.org/2000/svg">
<path fill-rule="evenodd" clip-rule="evenodd" d="M3.55544 1.34824C4.87103 0.469192 6.41775 0 8 0C10.121 0.00250216 12.1543 0.84616 13.6541 2.34591C15.1538 3.84566 15.9975 5.87904 16 8C16 9.58225 15.5308 11.129 14.6518 12.4446C13.7727 13.7602 12.5233 14.7855 11.0615 15.391C9.59966 15.9965 7.99113 16.155 6.43928 15.8463C4.88743 15.5376 3.46197 14.7757 2.34315 13.6569C1.22433 12.538 0.462403 11.1126 0.153721 9.56072C-0.15496 8.00887 0.0034663 6.40034 0.608967 4.93853C1.21447 3.47672 2.23985 2.22729 3.55544 1.34824ZM4.36354 13.4423C5.43994 14.1616 6.70543 14.5455 8 14.5455C9.73531 14.5433 11.3989 13.853 12.626 12.626C13.8531 11.3989 14.5433 9.73531 14.5455 8C14.5455 6.70543 14.1616 5.43993 13.4423 4.36354C12.7231 3.28715 11.7009 2.4482 10.5048 1.95279C9.30881 1.45738 7.99274 1.32776 6.72305 1.58031C5.45335 1.83287 4.28707 2.45627 3.37167 3.37166C2.45627 4.28706 1.83288 5.45335 1.58032 6.72304C1.32776 7.99274 1.45738 9.30881 1.95279 10.5048C2.4482 11.7009 3.28715 12.7231 4.36354 13.4423ZM8.72749 3.63639V7.69894L10.6962 9.66766C10.8287 9.80483 10.902 9.98854 10.9003 10.1792C10.8987 10.3699 10.8222 10.5523 10.6874 10.6872C10.5525 10.822 10.3701 10.8985 10.1794 10.9002C9.98873 10.9018 9.80502 10.8285 9.66786 10.696L7.48604 8.51421C7.34964 8.37785 7.27299 8.1929 7.27295 8.00003V3.63639C7.27295 3.44351 7.34957 3.25852 7.48596 3.12213C7.62235 2.98574 7.80734 2.90912 8.00022 2.90912C8.19311 2.90912 8.37809 2.98574 8.51448 3.12213C8.65087 3.25852 8.72749 3.44351 8.72749 3.63639Z" fill="#C5CFE0"/>
</svg>
