<svg width="20" height="20" viewBox="0 0 20 20" xmlns="http://www.w3.org/2000/svg">
<path fill-rule="evenodd" clip-rule="evenodd" d="M11.1066 7.57107C10.3256 8.35212 9.05922 8.35212 8.27818 7.57107L0.853554 0.146447C0.658292 -0.0488155 0.341709 -0.0488155 0.146447 0.146447C-0.0488151 0.341709 -0.0488149 0.658292 0.146447 0.853554L7.57107 8.27817C8.35212 9.05922 8.35212 10.3256 7.57107 11.1066L0.146447 18.5312C-0.0488155 18.7265 -0.0488155 19.0431 0.146447 19.2383C0.341709 19.4336 0.658292 19.4336 0.853554 19.2383L8.27818 11.8137C9.05922 11.0327 10.3256 11.0327 11.1066 11.8137L18.5312 19.2383C18.7265 19.4336 19.0431 19.4336 19.2383 19.2383C19.4336 19.0431 19.4336 18.7265 19.2383 18.5312L11.8137 11.1066C11.0327 10.3256 11.0327 9.05922 11.8137 8.27818L19.2383 0.853555C19.4336 0.658292 19.4336 0.34171 19.2383 0.146448C19.0431 -0.0488145 18.7265 -0.0488142 18.5312 0.146448L11.1066 7.57107Z" fill="#232230"/>
</svg>
