<svg width="24" height="24" viewBox="0 0 24 24" xmlns="http://www.w3.org/2000/svg">
<g clip-path="url(#clip0_603_2999)">
<path d="M6.32941 19.5943C6.13568 19.5943 5.94031 19.5568 5.75372 19.4793C5.19104 19.2464 4.82739 18.7022 4.82739 18.0932V16.4996C4.82739 15.9311 4.36487 15.4684 3.79633 15.4684C1.72888 15.4684 0.046875 13.7864 0.046875 11.7189V3.74945C0.046875 1.68201 1.72888 0 3.79633 0H16.5447C18.6121 0 20.2941 1.68201 20.2941 3.74945V11.7189C20.2941 13.7864 18.6121 15.4684 16.5447 15.4684H12.496C11.5792 15.4684 10.7173 15.8254 10.0692 16.4736L7.38867 19.1541C7.10101 19.4418 6.71887 19.5943 6.32941 19.5943ZM3.79633 1.87482C2.7627 1.87482 1.92169 2.71582 1.92169 3.74945V11.7189C1.92169 12.7527 2.7627 13.5938 3.79633 13.5938C5.39868 13.5938 6.70221 14.8973 6.70221 16.4996V17.1892L8.74347 15.1481C9.74579 14.1458 11.0784 13.5938 12.496 13.5938H16.5447C17.5785 13.5938 18.4195 12.7527 18.4195 11.7189V3.74945C18.4195 2.71582 17.5785 1.87482 16.5447 1.87482H3.79633ZM18.3369 23.885C18.8994 23.6519 19.2631 23.1079 19.2631 22.4989V20.9052C19.2631 20.3366 19.7256 19.8741 20.2941 19.8741C22.3616 19.8741 24.0436 18.1921 24.0436 16.1246V6.28033C24.0436 5.7627 23.6239 5.34302 23.1063 5.34302C22.5886 5.34302 22.1689 5.7627 22.1689 6.28033V16.1246C22.1689 17.1584 21.3279 17.9995 20.2941 17.9995C18.6918 17.9995 17.3882 19.303 17.3882 20.9052V21.5949L15.3472 19.5536C14.3447 18.5513 13.012 17.9995 11.5946 17.9995H10.8267C10.309 17.9995 9.88934 18.4189 9.88934 18.9368C9.88934 19.4544 10.309 19.8741 10.8267 19.8741H11.5946C12.5114 19.8741 13.3733 20.2311 14.0215 20.8793L16.702 23.5598C16.9896 23.8475 17.3716 24 17.7612 24C17.9548 24 18.1501 23.9623 18.3369 23.885ZM11.1548 7.78198C11.1548 7.26434 10.7351 6.84467 10.2175 6.84467C9.69965 6.84467 9.27997 7.26434 9.27997 7.78198C9.27997 8.2998 9.69965 8.7193 10.2175 8.7193C10.7351 8.7193 11.1548 8.2998 11.1548 7.78198ZM14.9042 7.78198C14.9042 7.26434 14.4846 6.84467 13.9669 6.84467C13.4491 6.84467 13.0296 7.26434 13.0296 7.78198C13.0296 8.2998 13.4491 8.7193 13.9669 8.7193C14.4846 8.7193 14.9042 8.2998 14.9042 7.78198ZM7.40533 7.78198C7.40533 7.26434 6.98566 6.84467 6.46783 6.84467C5.9502 6.84467 5.53052 7.26434 5.53052 7.78198C5.53052 8.2998 5.9502 8.7193 6.46783 8.7193C6.98566 8.7193 7.40533 8.2998 7.40533 7.78198Z" fill="#C5CFE0"/>
</g>
<defs>
<clipPath id="clip0_603_2999">
<rect width="24" height="24" fill="white"/>
</clipPath>
</defs>
</svg>
