<svg width="25" height="18" viewBox="0 0 25 18" xmlns="http://www.w3.org/2000/svg">
<path fill-rule="evenodd" clip-rule="evenodd" d="M18.6988 6.69727C15.7719 6.69727 13.3965 9.07271 13.3965 11.9996C13.3965 14.9265 15.7719 17.3019 18.6988 17.3019C21.6257 17.3019 24.0012 14.9265 24.0012 11.9996C24.0012 9.07271 21.6257 6.69727 18.6988 6.69727ZM18.6988 8.37169C20.7014 8.37169 22.3267 9.99699 22.3267 11.9996C22.3267 14.0022 20.7014 15.6275 18.6988 15.6275C16.6962 15.6275 15.0709 14.0022 15.0709 11.9996C15.0709 9.99699 16.6962 8.37169 18.6988 8.37169Z" fill="#C5CFE0"/>
<path fill-rule="evenodd" clip-rule="evenodd" d="M16.5277 13.1501L17.6439 14.2664C17.8136 14.436 18.0458 14.5242 18.2847 14.5108C18.5225 14.4963 18.7446 14.3825 18.892 14.1949L21.0296 11.5002C21.3165 11.1374 21.2551 10.6105 20.8934 10.3237C20.5318 10.0368 20.0038 10.0971 19.7169 10.4599L18.1641 12.4189L17.712 11.9668C17.385 11.6398 16.8547 11.6398 16.5277 11.9668C16.2017 12.2928 16.2017 12.8241 16.5277 13.1501Z" fill="#C5CFE0"/>
<path fill-rule="evenodd" clip-rule="evenodd" d="M21.7675 8.13322C21.7675 6.00671 21.7675 4.66717 21.7675 3.06977C21.7675 2.256 21.4438 1.47461 20.8689 0.898606C20.2929 0.323721 19.5115 0 18.6977 0C14.832 0 6.93545 0 3.06977 0C2.256 0 1.47461 0.323721 0.898606 0.898606C0.323722 1.47461 0 2.256 0 3.06977V13.1163C0 13.9301 0.323722 14.7115 0.898606 15.2875C1.47461 15.8623 2.256 16.1861 3.06977 16.1861H15.7451C16.2073 16.1861 16.5823 15.811 16.5823 15.3489C16.5823 14.8867 16.2073 14.5117 15.7451 14.5117C11.5892 14.5117 6.30587 14.5117 3.06977 14.5117C2.69917 14.5117 2.34531 14.3643 2.08298 14.1031C1.82177 13.8408 1.67442 13.4869 1.67442 13.1163C1.67442 10.3881 1.67442 5.79796 1.67442 3.06977C1.67442 2.69917 1.82177 2.34531 2.08298 2.08298C2.34531 1.82177 2.69917 1.67442 3.06977 1.67442H18.6977C19.0683 1.67442 19.4222 1.82177 19.6845 2.08298C19.9457 2.34531 20.0931 2.69917 20.0931 3.06977V8.13322C20.0931 8.59536 20.4681 8.97043 20.9303 8.97043C21.3924 8.97043 21.7675 8.59536 21.7675 8.13322Z" fill="#C5CFE0"/>
<path fill-rule="evenodd" clip-rule="evenodd" d="M20.9303 4.4668H0.837211C0.37507 4.4668 0 4.84187 0 5.30401C0 5.76615 0.37507 6.14122 0.837211 6.14122H20.9303C21.3924 6.14122 21.7675 5.76615 21.7675 5.30401C21.7675 4.84187 21.3924 4.4668 20.9303 4.4668Z" fill="#C5CFE0"/>
<path fill-rule="evenodd" clip-rule="evenodd" d="M7.53483 11.1621H4.18487C3.72273 11.1621 3.34766 11.5372 3.34766 11.9993C3.34766 12.4615 3.72273 12.8365 4.18487 12.8365H7.53483C7.99697 12.8365 8.37204 12.4615 8.37204 11.9993C8.37204 11.5372 7.99697 11.1621 7.53483 11.1621Z" fill="#C5CFE0"/>
</svg>
