<svg width="24" height="24" viewBox="0 0 24 24" xmlns="http://www.w3.org/2000/svg">
<g clip-path="url(#clip0_597_3032)">
<path d="M21.8906 0.75H2.10938C0.946289 0.75 0 1.69629 0 2.85938V16.9219C0 18.085 0.946289 19.0312 2.10938 19.0312H8.21191L7.27441 21.8438H4.96875C4.58038 21.8438 4.26562 22.1585 4.26562 22.5469C4.26562 22.9352 4.58038 23.25 4.96875 23.25H19.0312C19.4196 23.25 19.7344 22.9352 19.7344 22.5469C19.7344 22.1585 19.4196 21.8438 19.0312 21.8438H16.7256L15.7881 19.0312H21.8906C23.0537 19.0312 24 18.085 24 16.9219V2.85938C24 1.69629 23.0537 0.75 21.8906 0.75ZM8.75684 21.8438L9.69434 19.0312H14.3057L15.2432 21.8438H8.75684ZM22.5938 16.9219C22.5938 17.3095 22.2783 17.625 21.8906 17.625C19.8477 17.625 4.17352 17.625 2.10938 17.625C1.72174 17.625 1.40625 17.3095 1.40625 16.9219V16.2188H22.5938V16.9219ZM7.66772 10.7714L7.02814 10.132L8.0224 9.13751L8.66199 9.7771C8.88867 10.0038 9.24005 10.0485 9.51636 9.8855C9.9115 9.65259 10.3334 9.47699 10.7701 9.36383C11.0803 9.28363 11.2969 9.00366 11.2969 8.68323V7.78125H12.7031V8.68323C12.7031 9.00366 12.9197 9.28363 13.2299 9.36383C13.6664 9.47699 14.0883 9.65259 14.4835 9.88568C14.7598 10.0485 15.1111 10.0038 15.3378 9.7771L15.9774 9.13751L16.9719 10.132L16.3323 10.7715C16.1056 10.9982 16.0609 11.3496 16.2239 11.6257C16.457 12.0211 16.6324 12.4429 16.7455 12.8795C16.8257 13.1896 17.1057 13.4062 17.4261 13.4062H18.3281V14.8125H15.4446C15.4915 14.5822 15.5156 14.3465 15.5156 14.1094C15.5156 12.1708 13.9385 10.5938 12 10.5938C10.0615 10.5938 8.48438 12.1708 8.48438 14.1094C8.48438 14.3465 8.50854 14.5822 8.55542 14.8125H5.67188V13.4062H6.57385C6.89429 13.4062 7.17426 13.1896 7.25464 12.8795C7.36761 12.4429 7.54321 12.0211 7.77612 11.6257C7.9389 11.3496 7.89441 10.9982 7.66772 10.7714ZM14.1094 14.1094C14.1094 14.3502 14.0676 14.588 13.9885 14.8125H10.0115C9.93237 14.588 9.89062 14.3502 9.89062 14.1094C9.89062 12.9463 10.8369 12 12 12C13.1631 12 14.1094 12.9463 14.1094 14.1094ZM22.5938 14.8125H19.7344V12.7031C19.7344 12.3148 19.4196 12 19.0312 12H17.9451C17.8722 11.7957 17.7885 11.5948 17.6944 11.3979L18.4634 10.6291C18.7379 10.3544 18.7379 9.9093 18.4633 9.63464L16.4745 7.64594C16.3427 7.5141 16.1638 7.44012 15.9774 7.44012C15.791 7.44012 15.6121 7.5141 15.4803 7.64594L14.7114 8.41498C14.5146 8.32086 14.3137 8.23718 14.1094 8.16449V7.07812C14.1094 6.68976 13.7946 6.375 13.4062 6.375H10.5938C10.2054 6.375 9.89062 6.68976 9.89062 7.07812V8.16449C9.68628 8.23718 9.48541 8.32086 9.28857 8.41498L8.51971 7.64594C8.38788 7.5141 8.20898 7.44012 8.02258 7.44012C7.836 7.44012 7.65729 7.5141 7.52527 7.64594L5.53674 9.63464C5.26208 9.9093 5.26208 10.3544 5.53674 10.6291L6.3056 11.3981C6.21149 11.5948 6.12799 11.7957 6.05511 12H4.96875C4.58038 12 4.26562 12.3149 4.26562 12.7031V14.8125H1.40625V2.85938C1.40625 2.47174 1.72174 2.15625 2.10938 2.15625H21.8906C22.2783 2.15625 22.5938 2.47174 22.5938 2.85938V14.8125Z" fill="#C5CFE0"/>
<path d="M19.0312 3.5625C17.8682 3.5625 16.9219 4.50879 16.9219 5.67188C16.9219 6.83496 17.8682 7.78125 19.0312 7.78125C20.1943 7.78125 21.1406 6.83496 21.1406 5.67188C21.1406 4.50879 20.1943 3.5625 19.0312 3.5625ZM19.0312 6.375C18.6436 6.375 18.3281 6.05951 18.3281 5.67188C18.3281 5.28424 18.6436 4.96875 19.0312 4.96875C19.4189 4.96875 19.7344 5.28424 19.7344 5.67188C19.7344 6.05951 19.4189 6.375 19.0312 6.375Z" fill="#C5CFE0"/>
</g>
<defs>
<clipPath id="clip0_597_3032">
<rect width="24" height="24" fill="white"/>
</clipPath>
</defs>
</svg>
