<svg width="24" height="24" viewBox="0 0 24 24" xmlns="http://www.w3.org/2000/svg">
<path d="M16.5215 10.3125C16.5215 9.79472 16.1018 9.375 15.584 9.375H5.92773C5.40995 9.375 4.99023 9.79472 4.99023 10.3125C4.99023 10.8303 5.40995 11.25 5.92773 11.25H15.584C16.1018 11.25 16.5215 10.8303 16.5215 10.3125Z" fill="#C5CFE0"/>
<path d="M5.92773 13.125C5.40995 13.125 4.99023 13.5447 4.99023 14.0625C4.99023 14.5803 5.40995 15 5.92773 15H11.7923C12.3101 15 12.7298 14.5803 12.7298 14.0625C12.7298 13.5447 12.3101 13.125 11.7923 13.125H5.92773Z" fill="#C5CFE0"/>
<path d="M8.13151 22.125H4.99609C3.96222 22.125 3.12109 21.2839 3.12109 20.25V3.75C3.12109 2.71613 3.96222 1.875 4.99609 1.875H16.5221C17.556 1.875 18.3971 2.71613 18.3971 3.75V9.51562C18.3971 10.0334 18.8169 10.4531 19.3346 10.4531C19.8524 10.4531 20.2721 10.0334 20.2721 9.51562V3.75C20.2721 1.68225 18.5899 0 16.5221 0H4.99609C2.92834 0 1.24609 1.68225 1.24609 3.75V20.25C1.24609 22.3177 2.92834 24 4.99609 24H8.13151C8.6493 24 9.06901 23.5803 9.06901 23.0625C9.06901 22.5447 8.6493 22.125 8.13151 22.125Z" fill="#C5CFE0"/>
<path d="M21.9321 13.5735C20.8355 12.4769 19.0513 12.4769 17.9554 13.5728L12.8084 18.7084C12.6991 18.8175 12.6184 18.9518 12.5735 19.0996L11.4526 22.7898C11.3532 23.117 11.4398 23.4723 11.6786 23.717C11.8575 23.9003 12.1005 23.9998 12.3497 23.9998C12.4331 23.9998 12.5173 23.9887 12.5999 23.9658L16.3839 22.9176C16.5396 22.8745 16.6816 22.7918 16.7959 22.6776L21.9322 17.5511C23.0288 16.4545 23.0288 14.6702 21.9321 13.5735ZM15.6458 21.1765L13.7421 21.7038L14.2992 19.8696L17.7722 16.4044L19.0983 17.7305L15.6458 21.1765ZM20.607 16.2247L20.4254 16.406L19.0995 15.0801L19.2805 14.8994C19.6461 14.5339 20.2408 14.5339 20.6064 14.8994C20.9719 15.265 20.9719 15.8597 20.607 16.2247Z" fill="#C5CFE0"/>
<path d="M15.584 5.625H5.92773C5.40995 5.625 4.99023 6.04472 4.99023 6.5625C4.99023 7.08028 5.40995 7.5 5.92773 7.5H15.584C16.1018 7.5 16.5215 7.08028 16.5215 6.5625C16.5215 6.04472 16.1018 5.625 15.584 5.625Z" fill="#C5CFE0"/>
</svg>
