<svg width="22" height="24" viewBox="0 0 22 24" xmlns="http://www.w3.org/2000/svg">
<g>
<path fill-rule="evenodd" clip-rule="evenodd" d="M21.3333 8.096C21.3333 7.19877 20.9798 6.33846 20.352 5.70338C19.1781 4.51938 16.857 2.176 15.6843 0.990769C15.0552 0.356923 14.2031 0 13.3144 0C11.7236 0 8.53577 0 5.79048 0C4.25448 0 2.78187 0.615385 1.6957 1.712C0.609524 2.80862 0 4.29538 0 5.84615V18.1538C0 21.3822 2.59291 24 5.79048 24H15.5429C18.7404 24 21.3333 21.3822 21.3333 18.1538C21.3333 14.5982 21.3333 10.0849 21.3333 8.096ZM13.4095 1.84862C13.3778 1.84738 13.3461 1.84615 13.3144 1.84615C11.7236 1.84615 8.53577 1.84615 5.79048 1.84615C4.73966 1.84615 3.73151 2.26708 2.9891 3.01785C2.24549 3.76739 1.82857 4.78523 1.82857 5.84615V18.1538C1.82857 20.3631 3.60229 22.1538 5.79048 22.1538H15.5429C17.731 22.1538 19.5048 20.3631 19.5048 18.1538C19.5048 14.5982 19.5048 10.0849 19.5048 8.096C19.5048 8.064 19.5035 8.032 19.5023 8H16.7619C15.8732 8 15.0199 7.64308 14.3909 7.00923C13.763 6.37415 13.4095 5.51262 13.4095 4.61538V1.84862ZM18.2114 6.15385L15.2381 3.152V4.61538C15.2381 5.024 15.399 5.41415 15.6843 5.70338C15.9707 5.99138 16.3572 6.15385 16.7619 6.15385H18.2114Z" fill="#174184"/>
<path fill-rule="evenodd" clip-rule="evenodd" d="M10.6665 8.61523H10.6885C10.7726 8.6177 10.8543 8.63123 10.9311 8.65462L10.9335 8.65585C11.0725 8.6977 11.2029 8.77523 11.3126 8.886L13.7507 11.3475C14.1079 11.7069 14.1079 12.2928 13.7507 12.6522C13.3948 13.0128 12.8145 13.0128 12.4585 12.6522L11.5808 11.7672V15.6922C11.5808 16.2017 11.1712 16.6152 10.6665 16.6152C10.1618 16.6152 9.75224 16.2017 9.75224 15.6922V11.7672L8.87453 12.6522C8.51857 13.0128 7.9383 13.0128 7.58234 12.6522C7.22516 12.2928 7.22516 11.7069 7.58234 11.3475L10.0204 8.886C10.1301 8.77523 10.2606 8.6977 10.3996 8.65585L10.402 8.65462C10.4788 8.63123 10.5605 8.6177 10.6446 8.61523H10.6665Z" fill="#174184"/>
</g>
</svg>
