<svg width="24" height="20" viewBox="0 0 24 20" xmlns="http://www.w3.org/2000/svg">
<path d="M21.3217 0.860121H17.1851C17.1838 0.860121 17.1829 0.859375 17.1816 0.859375H12.8609C12.8597 0.859375 12.8587 0.860121 12.8574 0.860121H3.43478C2.97683 0.860121 2.60547 1.23149 2.60547 1.68943C2.60547 2.14738 2.97683 2.51874 3.43478 2.51874H12.0316V7.51053C12.0316 7.96666 12.4048 8.33985 12.8609 8.33985H17.1816C17.6377 8.33985 18.0109 7.96666 18.0109 7.51053V2.51874H21.3217C21.8833 2.51874 22.3401 2.97553 22.3401 3.53714V16.6588C22.3401 17.2204 21.8833 17.6771 21.3217 17.6771H8.20009C7.63881 17.6771 7.18211 17.2204 7.18211 16.6588V7.54279C7.18211 7.08485 6.81074 6.71348 6.35279 6.71348H4.1601C3.70215 6.71348 3.33078 7.08485 3.33078 7.54279C3.33078 8.00074 3.70215 8.37211 4.1601 8.37211H5.52348V16.6588C5.52348 18.1348 6.72416 19.3358 8.20009 19.3358H21.3217C22.7977 19.3358 23.9987 18.1348 23.9987 16.6588V3.53722C23.9987 2.06121 22.7977 0.860121 21.3217 0.860121ZM16.3523 6.68122H13.6902V2.51874H16.3523V6.68122Z" fill="#C5CFE0"/>
<path d="M0.82931 5.44573H5.94649C6.40443 5.44573 6.7758 5.07437 6.7758 4.61642C6.7758 4.15847 6.40443 3.78711 5.94649 3.78711H0.82931C0.371365 3.78711 0 4.15847 0 4.61642C0 5.07437 0.371282 5.44573 0.82931 5.44573Z" fill="#C5CFE0"/>
<path d="M19.7708 16.1059C20.2288 16.1059 20.6001 15.7345 20.6001 15.2766C20.6001 14.8186 20.2288 14.4473 19.7708 14.4473H17.1809C16.7229 14.4473 16.3516 14.8186 16.3516 15.2766C16.3516 15.7345 16.7229 16.1059 17.1809 16.1059H19.7708Z" fill="#C5CFE0"/>
</svg>
