<svg width="24" height="24" viewBox="0 0 24 24" xmlns="http://www.w3.org/2000/svg">
<g clip-path="url(#clip0_603_3055)">
<path d="M23.1088 0H0.984375C0.466553 0 0.046875 0.419678 0.046875 0.9375V17.5309C0.046875 18.0485 0.466553 18.4682 0.984375 18.4682H12.9527V23.062C12.9527 23.9019 13.9676 24.3102 14.5532 23.7248L16.6798 21.5982L18.7824 23.7008C19.3713 24.2895 20.3827 23.8724 20.3827 23.038V18.4682H23.1088C23.6265 18.4682 24.0463 18.0485 24.0463 17.5309V0.9375C24.0463 0.419678 23.6265 0 23.1088 0V0ZM18.5079 20.7748L17.3426 19.6095C16.9766 19.2435 16.383 19.2435 16.017 19.6095L14.8277 20.7986V12.9371H18.5079V20.7748ZM22.1713 16.5934H20.3827V11.9996C20.3827 11.482 19.9631 11.0621 19.4454 11.0621H13.8902C13.3726 11.0621 12.9527 11.482 12.9527 11.9996V16.5934H1.92187V1.875H22.1713V16.5934ZM3.73425 4.62488C3.73425 4.10706 4.15393 3.68738 4.67175 3.68738H19.4214C19.9391 3.68738 20.3589 4.10706 20.3589 4.62488C20.3589 5.1427 19.9391 5.56238 19.4214 5.56238H4.67175C4.15393 5.56238 3.73425 5.1427 3.73425 4.62488ZM3.73425 8.31226C3.73425 7.79444 4.15393 7.37476 4.67175 7.37476H19.4214C19.9391 7.37476 20.3589 7.79444 20.3589 8.31226C20.3589 8.83008 19.9391 9.24976 19.4214 9.24976H4.67175C4.15393 9.24976 3.73425 8.83008 3.73425 8.31226ZM3.73425 11.9996C3.73425 11.482 4.15393 11.0621 4.67175 11.0621H10.2028C10.7206 11.0621 11.1403 11.482 11.1403 11.9996C11.1403 12.5175 10.7206 12.9371 10.2028 12.9371H4.67175C4.15393 12.9371 3.73425 12.5175 3.73425 11.9996Z" fill="#C5CFE0"/>
</g>
<defs>
<clipPath id="clip0_603_3055">
<rect width="24" height="24" fill="white"/>
</clipPath>
</defs>
</svg>
