<svg width="22" height="22" viewBox="0 0 22 22" xmlns="http://www.w3.org/2000/svg">
<g clip-path="url(#clip0_474_8651)">
<path d="M21.1096 5.56055L15.6479 11.0008L21.107 16.4371C21.1368 16.0601 21.1238 5.73825 21.1096 5.56055Z" fill="white"/>
<path d="M19.1422 3.73828H2.85803C2.32832 3.73824 1.8409 3.94691 1.48486 4.28808C5.19592 7.98459 7.13708 9.91807 10.5329 13.3006C10.7905 13.5583 11.2088 13.5585 11.4664 13.3017C14.8838 9.89766 17.1235 7.66668 20.5122 4.29124C20.1539 3.94521 19.6691 3.73828 19.1422 3.73828Z" fill="white"/>
<path d="M0.891019 5.56055C0.876227 5.7428 0.862938 16.0625 0.893392 16.4394L6.36257 11.0106L0.891019 5.56055Z" fill="white"/>
<path d="M14.7124 11.9316L12.399 14.2358C11.6283 15.0066 10.3751 15.0099 9.60017 14.235L7.29795 11.9418L1.48975 17.7071C1.84578 18.0489 2.32656 18.2618 2.85797 18.2618H19.1421C19.6739 18.2618 20.1552 18.0486 20.5113 17.7063L14.7124 11.9316Z" fill="white"/>
</g>
<defs>
<clipPath id="clip0_474_8651">
<rect width="20.25" height="20.25" fill="white" transform="translate(0.875 0.875)"/>
</clipPath>
</defs>
</svg>
