<svg width="14" height="14" viewBox="0 0 14 14" xmlns="http://www.w3.org/2000/svg">
<path d="M10.5 1.77237C9.98353 1.30168 9.37824 0.938847 8.71967 0.705139C8.0611 0.471431 7.3625 0.371551 6.66482 0.411356C5.96715 0.451161 5.28444 0.629849 4.65673 0.936945C4.02901 1.24404 3.46892 1.67336 3.00929 2.19974C2.54966 2.72612 2.19975 3.33896 1.98006 4.00234C1.76036 4.66572 1.67532 5.36628 1.72991 6.06295C1.7845 6.75963 1.97763 7.43839 2.29796 8.05945C2.6183 8.68051 3.0594 9.23137 3.59541 9.67974C4.82084 10.6985 5.84472 11.9377 6.61416 13.3333C6.65178 13.4028 6.70752 13.4608 6.77546 13.5012C6.8434 13.5415 6.92101 13.5628 7.00004 13.5625C7.07901 13.5625 7.15649 13.5411 7.22427 13.5006C7.29206 13.4601 7.34761 13.402 7.38504 13.3324L7.42091 13.265C8.19588 11.8864 9.21765 10.6619 10.4353 9.65261C10.9996 9.16497 11.4534 8.5626 11.7664 7.88569C12.0794 7.20878 12.2445 6.4729 12.2507 5.72714C12.2568 4.98138 12.1038 4.24288 11.8019 3.56092C11.5001 2.87896 11.0562 2.26922 10.5 1.77237ZM7.00004 7.87505C6.56739 7.87505 6.14446 7.74676 5.78473 7.50639C5.425 7.26603 5.14462 6.92439 4.97905 6.52467C4.81348 6.12496 4.77016 5.68513 4.85457 5.26079C4.93898 4.83646 5.14731 4.44668 5.45324 4.14076C5.75917 3.83483 6.14895 3.62649 6.57328 3.54209C6.99761 3.45768 7.43745 3.501 7.83716 3.66657C8.23687 3.83213 8.57851 4.11251 8.81888 4.47224C9.05925 4.83198 9.18754 5.25491 9.18754 5.68755C9.18684 6.2675 8.95615 6.8235 8.54607 7.23358C8.13598 7.64367 7.57999 7.87436 7.00004 7.87505Z" fill="white"/>
</svg>
