<svg width="30" height="30" viewBox="0 0 30 30" xmlns="http://www.w3.org/2000/svg">
<g clip-path="url(#clip0_237_613)">
<path d="M27.3633 0.937622H2.63672C1.18286 0.937622 0 2.12048 0 3.57434V21.1525C0 22.6063 1.18286 23.7892 2.63672 23.7892H10.2649L9.09302 27.3048H6.21094C5.72548 27.3048 5.33203 27.6983 5.33203 28.1837C5.33203 28.6692 5.72548 29.0626 6.21094 29.0626H23.7891C24.2745 29.0626 24.668 28.6692 24.668 28.1837C24.668 27.6983 24.2745 27.3048 23.7891 27.3048H20.907L19.7351 23.7892H27.3633C28.8171 23.7892 30 22.6063 30 21.1525V3.57434C30 2.12048 28.8171 0.937622 27.3633 0.937622ZM10.946 27.3048L12.1179 23.7892H17.8821L19.054 27.3048H10.946ZM28.2422 21.1525C28.2422 21.637 27.8478 22.0314 27.3633 22.0314C24.8096 22.0314 5.2169 22.0314 2.63672 22.0314C2.15218 22.0314 1.75781 21.637 1.75781 21.1525V20.2736H28.2422V21.1525ZM9.58466 13.4643L8.78517 12.6651L10.028 11.422L10.8275 12.2215C11.1108 12.5049 11.5501 12.5607 11.8954 12.357C12.3894 12.0659 12.9167 11.8464 13.4626 11.7049C13.8503 11.6047 14.1211 11.2547 14.1211 10.8542V9.72668H15.8789V10.8542C15.8789 11.2547 16.1497 11.6047 16.5374 11.7049C17.0831 11.8464 17.6104 12.0659 18.1043 12.3572C18.4497 12.5607 18.8889 12.5049 19.1723 12.2215L19.9718 11.422L21.2148 12.6651L20.4153 13.4646C20.132 13.7479 20.0761 14.1871 20.2798 14.5323C20.5712 15.0264 20.7905 15.5538 20.9319 16.0994C21.0322 16.4872 21.3821 16.7579 21.7827 16.7579H22.9102V18.5157H19.3057C19.3643 18.2278 19.3945 17.9332 19.3945 17.6368C19.3945 15.2137 17.4232 13.2423 15 13.2423C12.5768 13.2423 10.6055 15.2137 10.6055 17.6368C10.6055 17.9332 10.6357 18.2278 10.6943 18.5157H7.08984V16.7579H8.21732C8.61786 16.7579 8.96782 16.4872 9.0683 16.0994C9.20952 15.5538 9.42902 15.0264 9.72015 14.5323C9.92363 14.1871 9.86801 13.7479 9.58466 13.4643ZM17.6367 17.6368C17.6367 17.9378 17.5845 18.2351 17.4857 18.5157H12.5143C12.4155 18.2351 12.3633 17.9378 12.3633 17.6368C12.3633 16.183 13.5461 15.0001 15 15.0001C16.4539 15.0001 17.6367 16.183 17.6367 17.6368ZM28.2422 18.5157H24.668V15.879C24.668 15.3936 24.2745 15.0001 23.7891 15.0001H22.4313C22.3402 14.7447 22.2356 14.4936 22.118 14.2476L23.0793 13.2865C23.4224 12.9432 23.4224 12.3867 23.0791 12.0434L20.5932 9.55754C20.4284 9.39275 20.2048 9.30028 19.9718 9.30028C19.7388 9.30028 19.5152 9.39275 19.3504 9.55754L18.3893 10.5188C18.1432 10.4012 17.8922 10.2966 17.6367 10.2057V8.84778C17.6367 8.36232 17.2433 7.96887 16.7578 7.96887H13.2422C12.7567 7.96887 12.3633 8.36232 12.3633 8.84778V10.2057C12.1078 10.2966 11.8568 10.4012 11.6107 10.5188L10.6496 9.55754C10.4848 9.39275 10.2612 9.30028 10.0282 9.30028C9.795 9.30028 9.57161 9.39275 9.40659 9.55754L6.92093 12.0434C6.57761 12.3867 6.57761 12.9432 6.92093 13.2865L7.882 14.2478C7.76436 14.4936 7.65999 14.7447 7.56889 15.0001H6.21094C5.72548 15.0001 5.33203 15.3938 5.33203 15.879V18.5157H1.75781V3.57434C1.75781 3.0898 2.15218 2.69543 2.63672 2.69543H27.3633C27.8478 2.69543 28.2422 3.0898 28.2422 3.57434V18.5157Z" fill="#C5CFE0"/>
<path d="M23.7891 4.45325C22.3352 4.45325 21.1523 5.63611 21.1523 7.08997C21.1523 8.54382 22.3352 9.72668 23.7891 9.72668C25.2429 9.72668 26.4258 8.54382 26.4258 7.08997C26.4258 5.63611 25.2429 4.45325 23.7891 4.45325ZM23.7891 7.96887C23.3045 7.96887 22.9102 7.57451 22.9102 7.08997C22.9102 6.60542 23.3045 6.21106 23.7891 6.21106C24.2736 6.21106 24.668 6.60542 24.668 7.08997C24.668 7.57451 24.2736 7.96887 23.7891 7.96887Z" fill="#C5CFE0"/>
</g>
<defs>
<clipPath id="clip0_237_613">
<rect width="30" height="30" fill="white"/>
</clipPath>
</defs>
</svg>
