<svg width="24" height="27" viewBox="0 0 24 27" xmlns="http://www.w3.org/2000/svg">
<g>
<path fill-rule="evenodd" clip-rule="evenodd" d="M24 9.10898C24 8.09959 23.6023 7.13175 22.896 6.41728C21.5753 5.08528 18.9641 2.44898 17.6448 1.11559C16.9371 0.402515 15.9785 0.000976562 14.9787 0.000976562C13.189 0.000976562 9.60274 0.000976562 6.51429 0.000976562C4.78629 0.000976562 3.1296 0.693284 1.90766 1.92698C0.685714 3.16067 0 4.83328 0 6.5779V20.4241C0 24.0559 2.91703 27.001 6.51429 27.001H17.4857C21.083 27.001 24 24.0559 24 20.4241C24 16.4239 24 11.3465 24 9.10898ZM15.0857 2.08067C15.0501 2.07928 15.0144 2.0779 14.9787 2.0779C13.189 2.0779 9.60274 2.0779 6.51429 2.0779C5.33211 2.0779 4.19794 2.55144 3.36274 3.39605C2.52617 4.23928 2.05714 5.38436 2.05714 6.5779V20.4241C2.05714 22.9094 4.05257 24.9241 6.51429 24.9241H17.4857C19.9474 24.9241 21.9429 22.9094 21.9429 20.4241C21.9429 16.4239 21.9429 11.3465 21.9429 9.10898C21.9429 9.07298 21.9415 9.03698 21.9401 9.00098H18.8571C17.8574 9.00098 16.8974 8.59944 16.1897 7.88636C15.4834 7.1719 15.0857 6.20267 15.0857 5.19328V2.08067ZM20.4878 6.92405L17.1429 3.54698V5.19328C17.1429 5.65298 17.3239 6.0919 17.6448 6.41728C17.9671 6.74128 18.4018 6.92405 18.8571 6.92405H20.4878Z" fill="#174184"/>
<path fill-rule="evenodd" clip-rule="evenodd" d="M12.0001 9.69336H12.0248C12.1194 9.69613 12.2113 9.71136 12.2977 9.73767L12.3004 9.73905C12.4568 9.78613 12.6035 9.87336 12.7269 9.99798L15.4698 12.7672C15.8716 13.1715 15.8716 13.8306 15.4698 14.2349C15.0693 14.6406 14.4165 14.6406 14.0161 14.2349L13.0287 13.2394V17.6549C13.0287 18.2281 12.5679 18.6934 12.0001 18.6934C11.4323 18.6934 10.9715 18.2281 10.9715 17.6549V13.2394L9.98409 14.2349C9.58363 14.6406 8.93083 14.6406 8.53038 14.2349C8.12855 13.8306 8.12855 13.1715 8.53038 12.7672L11.2732 9.99798C11.3967 9.87336 11.5434 9.78613 11.6997 9.73905L11.7025 9.73767C11.7889 9.71136 11.8808 9.69613 11.9754 9.69336H12.0001Z" fill="#174184"/>
</g>
</svg>
