<svg width="24" height="24" viewBox="0 0 24 24" xmlns="http://www.w3.org/2000/svg">
<path d="M12 -0.000366211C9.62663 -0.000366211 7.30655 0.703421 5.33316 2.022C3.35977 3.34057 1.8217 5.21472 0.913451 7.40743C0.00519935 9.60014 -0.232441 12.0129 0.230582 14.3407C0.693604 16.6685 1.83649 18.8067 3.51472 20.4849C5.19295 22.1631 7.33115 23.306 9.65892 23.7691C11.9867 24.2321 14.3995 23.9944 16.5922 23.0862C18.7849 22.1779 20.6591 20.6399 21.9776 18.6665C23.2962 16.6931 24 14.373 24 11.9996C23.9965 8.81812 22.7311 5.76792 20.4814 3.51825C18.2317 1.26858 15.1815 0.00316293 12 -0.000366211ZM12 21.333C10.154 21.333 8.34954 20.7856 6.81468 19.76C5.27982 18.7345 4.08355 17.2768 3.37713 15.5713C2.67071 13.8659 2.48588 11.9893 2.84601 10.1788C3.20614 8.3683 4.09505 6.70526 5.40034 5.39997C6.70563 4.09468 8.36867 3.20577 10.1792 2.84564C11.9896 2.48551 13.8663 2.67034 15.5717 3.37676C17.2772 4.08317 18.7348 5.27945 19.7604 6.81431C20.7859 8.34917 21.3333 10.1537 21.3333 11.9996C21.3305 14.4741 20.3463 16.8464 18.5965 18.5962C16.8468 20.3459 14.4745 21.3301 12 21.333Z" fill="#C5CFE0"/>
<path d="M15.0573 8.39008L10.6667 12.7807L8.94266 11.0567C8.69119 10.8139 8.35439 10.6795 8.00479 10.6825C7.6552 10.6856 7.32078 10.8258 7.07357 11.073C6.82636 11.3202 6.68613 11.6546 6.68309 12.0042C6.68006 12.3538 6.81445 12.6906 7.05733 12.9421L9.72399 15.6087C9.97403 15.8587 10.3131 15.9991 10.6667 15.9991C11.0202 15.9991 11.3593 15.8587 11.6093 15.6087L16.9427 10.2754C17.07 10.1524 17.1716 10.0053 17.2415 9.84262C17.3113 9.67995 17.3481 9.50499 17.3497 9.32795C17.3512 9.15091 17.3175 8.97534 17.2504 8.81148C17.1834 8.64762 17.0844 8.49875 16.9592 8.37356C16.834 8.24837 16.6851 8.14936 16.5213 8.08232C16.3574 8.01528 16.1818 7.98154 16.0048 7.98308C15.8278 7.98462 15.6528 8.0214 15.4901 8.09128C15.3274 8.16116 15.1803 8.26274 15.0573 8.39008Z" fill="#C5CFE0"/>
</svg>
