<svg width="30" height="22" viewBox="0 0 30 22" xmlns="http://www.w3.org/2000/svg">
<path fill-rule="evenodd" clip-rule="evenodd" d="M23.3725 8.3717C19.7139 8.3717 16.7446 11.341 16.7446 14.9996C16.7446 18.6582 19.7139 21.6275 23.3725 21.6275C27.0311 21.6275 30.0004 18.6582 30.0004 14.9996C30.0004 11.341 27.0311 8.3717 23.3725 8.3717ZM23.3725 10.4647C25.8758 10.4647 27.9074 12.4964 27.9074 14.9996C27.9074 17.5029 25.8758 19.5345 23.3725 19.5345C20.8693 19.5345 18.8377 17.5029 18.8377 14.9996C18.8377 12.4964 20.8693 10.4647 23.3725 10.4647Z" fill="#C5CFE0"/>
<path fill-rule="evenodd" clip-rule="evenodd" d="M20.6586 16.4367L22.054 17.8321C22.2661 18.0442 22.5563 18.1544 22.8549 18.1377C23.1521 18.1195 23.4298 17.9772 23.614 17.7428L26.286 14.3744C26.6447 13.9209 26.5679 13.2623 26.1158 12.9037C25.6637 12.5451 25.0037 12.6205 24.6451 13.074L22.7042 15.5228L22.1391 14.9577C21.7302 14.5488 21.0674 14.5488 20.6586 14.9577C20.2512 15.3651 20.2512 16.0293 20.6586 16.4367Z" fill="#C5CFE0"/>
<path fill-rule="evenodd" clip-rule="evenodd" d="M27.2093 10.1661C27.2093 7.50801 27.2093 5.83359 27.2093 3.83684C27.2093 2.81963 26.8047 1.84289 26.086 1.12289C25.366 0.404285 24.3893 -0.000366211 23.3721 -0.000366211C18.54 -0.000366211 8.6693 -0.000366211 3.83721 -0.000366211C2.82 -0.000366211 1.84326 0.404285 1.12326 1.12289C0.404651 1.84289 0 2.81963 0 3.83684V16.395C0 17.4122 0.404651 18.3889 1.12326 19.1089C1.84326 19.8275 2.82 20.2322 3.83721 20.2322H19.6814C20.2591 20.2322 20.7279 19.7634 20.7279 19.1857C20.7279 18.608 20.2591 18.1392 19.6814 18.1392C14.4865 18.1392 7.88233 18.1392 3.83721 18.1392C3.37395 18.1392 2.93163 17.955 2.60372 17.6285C2.27721 17.3006 2.09302 16.8582 2.09302 16.395C2.09302 12.9848 2.09302 7.24708 2.09302 3.83684C2.09302 3.37359 2.27721 2.93126 2.60372 2.60336C2.93163 2.27684 3.37395 2.09266 3.83721 2.09266H23.3721C23.8354 2.09266 24.2777 2.27684 24.6056 2.60336C24.9321 2.93126 25.1163 3.37359 25.1163 3.83684V10.1661C25.1163 10.7438 25.5851 11.2127 26.1628 11.2127C26.7405 11.2127 27.2093 10.7438 27.2093 10.1661Z" fill="#C5CFE0"/>
<path fill-rule="evenodd" clip-rule="evenodd" d="M26.1628 5.58118H1.04651C0.468837 5.58118 0 6.05001 0 6.62769C0 7.20536 0.468837 7.6742 1.04651 7.6742H26.1628C26.7405 7.6742 27.2093 7.20536 27.2093 6.62769C27.2093 6.05001 26.7405 5.58118 26.1628 5.58118Z" fill="#C5CFE0"/>
<path fill-rule="evenodd" clip-rule="evenodd" d="M9.41999 13.9532H5.23255C4.65487 13.9532 4.18604 14.4221 4.18604 14.9998C4.18604 15.5774 4.65487 16.0463 5.23255 16.0463H9.41999C9.99766 16.0463 10.4665 15.5774 10.4665 14.9998C10.4665 14.4221 9.99766 13.9532 9.41999 13.9532Z" fill="#C5CFE0"/>
</svg>
