<svg width="30" height="31" viewBox="0 0 30 31" xmlns="http://www.w3.org/2000/svg">
<g clip-path="url(#clip0_181_364)">
<path d="M10.3125 22.09H19.6875C21.626 22.09 23.2031 20.5129 23.2031 18.5743V6.3702L17.8291 0.996216H10.3125C8.37398 0.996216 6.79688 2.57333 6.79688 4.51184V18.5743C6.79688 20.5129 8.37398 22.09 10.3125 22.09ZM18.5156 4.99723L19.2021 5.68372H18.5156V4.99723ZM9.14062 4.51184C9.14062 3.86567 9.66633 3.33997 10.3125 3.33997H16.1719V8.02747H20.8594V18.5743C20.8594 19.2205 20.3337 19.7462 19.6875 19.7462H10.3125C9.66633 19.7462 9.14062 19.2205 9.14062 18.5743V4.51184Z" fill="#C5CFE0"/>
<path d="M26.4844 8.02747H25.3125V10.3712H26.4844C27.1305 10.3712 27.6562 10.8969 27.6562 11.5431V23.2618C27.6562 23.908 27.1305 24.4337 26.4844 24.4337H3.51562C2.86945 24.4337 2.34375 23.908 2.34375 23.2618V11.5431C2.34375 10.8969 2.86945 10.3712 3.51562 10.3712H4.6875V8.02747H3.51562C1.57711 8.02747 0 9.60458 0 11.5431V23.2618C0 25.2004 1.57711 26.7775 3.51562 26.7775H13.8281V28.6525H9.14062V30.9962H20.8594V28.6525H16.1719V26.7775H26.4844C28.4229 26.7775 30 25.2004 30 23.2618V11.5431C30 9.60458 28.4229 8.02747 26.4844 8.02747Z" fill="#C5CFE0"/>
<path d="M11.4844 10.3712H18.5156V12.715H11.4844V10.3712Z" fill="#C5CFE0"/>
<path d="M11.4844 15.0587H18.5156V17.4025H11.4844V15.0587Z" fill="#C5CFE0"/>
</g>
<defs>
<clipPath id="clip0_181_364">
<rect width="30" height="30" fill="white" transform="translate(0 0.996216)"/>
</clipPath>
</defs>
</svg>
