<svg width="8" height="9" viewBox="0 0 8 9" fill="" xmlns="http://www.w3.org/2000/svg">
<path d="M7.3333 0.5H4.56242C4.37913 0.5 4.12294 0.606191 3.99342 0.735604L0.194545 4.53447C-0.0648482 4.79357 -0.0648482 5.21837 0.194545 5.47716L3.02312 8.30564C3.28193 8.56474 3.70632 8.56474 3.96551 8.30534L7.7644 4.50707C7.89379 4.37767 8 4.12107 8 3.93816V1.1667C8 0.800096 7.69988 0.5 7.3333 0.5ZM5.9999 3.16668C5.63169 3.16668 5.3332 2.86788 5.3332 2.49999C5.3332 2.13149 5.63169 1.83329 5.9999 1.83329C6.3681 1.83329 6.66669 2.13149 6.66669 2.49999C6.66671 2.86788 6.3681 3.16668 5.9999 3.16668Z" fill="#C5CFE0"/>
</svg>
