<svg width="16" height="16" viewBox="0 0 16 16" xmlns="http://www.w3.org/2000/svg">
<g clip-path="url(#clip0_549_3411)">
<path d="M14.7919 1.20855C14.0351 0.451059 12.9751 0.00887597 11.9045 0.000126059C10.8057 -0.00862385 9.73073 0.438559 8.95042 1.20855L6.99232 3.16697C7.27013 3.12041 7.55294 3.09634 7.83856 3.09634C8.39636 3.09634 8.94573 3.18697 9.47198 3.36509C9.61604 3.41384 9.75666 3.46884 9.89447 3.52947L10.5829 2.84104C10.9042 2.51885 11.3501 2.32573 11.8045 2.30917C12.3054 2.29073 12.8054 2.48666 13.1598 2.84104C13.8701 3.55165 13.8701 4.70727 13.1598 5.41788L11.7476 6.82943L9.45042 9.12691C9.00386 9.57347 8.3248 9.7594 7.71293 9.60378C7.1795 9.46816 6.71732 9.07691 6.49544 8.57316C6.4692 8.51348 6.44638 8.45254 6.42701 8.39035L4.71796 10.1103C4.87734 10.3488 5.06202 10.57 5.26671 10.771C5.72514 11.221 6.28576 11.5688 6.897 11.7684C7.007 11.8044 7.11856 11.8356 7.23138 11.8616C8.54761 12.1659 10.0023 11.7753 10.9876 10.851C11.0198 10.821 14.7919 7.05006 14.7919 7.05006C16.4025 5.43945 16.4025 2.81916 14.7919 1.20855ZM6.52888 12.635C6.38482 12.5863 6.2442 12.5312 6.10639 12.4706C6.10639 12.4706 5.41796 13.1591 5.41796 13.1594C5.09483 13.4825 4.64765 13.6756 4.19109 13.6912C3.69297 13.7081 3.19266 13.5131 2.84111 13.1591C2.1308 12.4488 2.1308 11.2928 2.84111 10.5822L6.73107 6.73193C6.81169 6.65037 6.90982 6.58818 7.012 6.53662C7.47919 6.30038 8.04949 6.2785 8.53324 6.47819C9.03136 6.6835 9.44135 7.12693 9.58667 7.64849C9.58792 7.65286 9.58916 7.65724 9.59042 7.66161C9.59042 7.66161 11.317 5.93507 11.3179 5.93413C11.3635 5.88819 10.8182 5.3032 10.7626 5.24789C10.5442 5.03133 10.3013 4.83883 10.041 4.67477C9.52042 4.34696 8.92792 4.13133 8.31605 4.06009C7.08513 3.91696 5.79233 4.36008 4.91827 5.24101L1.20893 8.95004C-0.401676 10.5606 -0.401676 13.1809 1.20893 14.7915C1.97049 15.5534 3.03798 15.9962 4.11484 16C5.20202 16.0037 6.28138 15.5603 7.05044 14.7915L9.00855 12.8334C8.73074 12.88 8.44824 12.9037 8.1623 12.9037C7.60481 12.9037 7.05513 12.8134 6.52888 12.635Z" fill="#C5CFE0"/>
</g>
<defs>
<clipPath id="clip0_549_3411">
<rect width="16" height="16" fill="white"/>
</clipPath>
</defs>
</svg>
