<svg width="49" height="46" viewBox="0 0 49 46" fill="" xmlns="http://www.w3.org/2000/svg">
<path d="M4.35355 22.6464C4.15829 22.4512 3.84171 22.4512 3.64645 22.6464L0.464466 25.8284C0.269204 26.0237 0.269204 26.3403 0.464466 26.5355C0.659728 26.7308 0.976311 26.7308 1.17157 26.5355L4 23.7071L6.82843 26.5355C7.02369 26.7308 7.34027 26.7308 7.53553 26.5355C7.7308 26.3403 7.7308 26.0237 7.53553 25.8284L4.35355 22.6464ZM47.5 23C47.5 34.8741 37.8741 44.5 26 44.5V45.5C38.4264 45.5 48.5 35.4264 48.5 23H47.5ZM26 44.5C14.1259 44.5 4.5 34.8741 4.5 23H3.5C3.5 35.4264 13.5736 45.5 26 45.5V44.5ZM26 1.5C37.8741 1.5 47.5 11.1259 47.5 23H48.5C48.5 10.5736 38.4264 0.5 26 0.5V1.5Z" fill="#C5CFE0"/>
</svg>
