<svg width="44" height="44" viewBox="0 0 44 44" xmlns="http://www.w3.org/2000/svg">
<path d="M43.583 41.6062L32.2229 30.4277C35.1978 27.1956 37.0256 22.9211 37.0256 18.2175C37.0242 8.15561 28.7365 0 18.5123 0C8.28817 0 0.000488281 8.15561 0.000488281 18.2175C0.000488281 28.2794 8.28817 36.435 18.5123 36.435C22.9299 36.435 26.9815 34.907 30.1641 32.3668L41.5683 43.5894C42.1239 44.1368 43.0261 44.1368 43.5817 43.5894C44.1387 43.0421 44.1387 42.1536 43.583 41.6062ZM18.5123 33.6321C9.86158 33.6321 2.8488 26.7308 2.8488 18.2175C2.8488 9.70421 9.86158 2.80287 18.5123 2.80287C27.1632 2.80287 34.1759 9.70421 34.1759 18.2175C34.1759 26.7308 27.1632 33.6321 18.5123 33.6321Z" fill="white"/>
</svg>
