<svg width="22" height="22" viewBox="0 0 22 22" xmlns="http://www.w3.org/2000/svg">
<g clip-path="url(#clip0_549_4168)">
<path d="M21.1091 5.55957L15.6475 10.9998L21.1065 16.4361C21.1363 16.0591 21.1233 5.73727 21.1091 5.55957Z" fill="#3F3D56"/>
<path d="M19.1417 3.73828H2.85754C2.32784 3.73824 1.84041 3.94691 1.48438 4.28808C5.19543 7.98459 7.13659 9.91807 10.5324 13.3006C10.7901 13.5583 11.2083 13.5585 11.4659 13.3017C14.8833 9.89766 17.1231 7.66668 20.5117 4.29124C20.1534 3.94521 19.6686 3.73828 19.1417 3.73828Z" fill="#3F3D56"/>
<path d="M0.891019 5.56055C0.876227 5.7428 0.862938 16.0625 0.893392 16.4394L6.36257 11.0106L0.891019 5.56055Z" fill="#3F3D56"/>
<path d="M14.7119 11.9316L12.3985 14.2358C11.6278 15.0066 10.3746 15.0099 9.59968 14.235L7.29746 11.9418L1.48926 17.7071C1.84529 18.0489 2.32608 18.2618 2.85748 18.2618H19.1416C19.6734 18.2618 20.1547 18.0486 20.5108 17.7063L14.7119 11.9316Z" fill="#3F3D56"/>
</g>
<defs>
<clipPath id="clip0_549_4168">
<rect width="20.25" height="20.25" fill="white" transform="translate(0.875 0.875)"/>
</clipPath>
</defs>
</svg>
