<svg width="15" height="16" viewBox="0 0 15 16" xmlns="http://www.w3.org/2000/svg">
<path d="M12.4127 2.02783C11.1051 0.720215 9.36646 0 7.51709 0C5.66785 0 3.9292 0.720215 2.62158 2.02783C1.31396 3.33545 0.59375 5.0741 0.59375 6.92334C0.59375 8.77271 1.31396 10.5114 2.62158 11.819L6.2998 15.4973C6.62402 15.8215 7.05627 16 7.51709 16C7.97778 16 8.41003 15.8215 8.73425 15.4973L12.4127 11.819C13.7205 10.5114 14.4406 8.77271 14.4406 6.92334C14.4406 5.0741 13.7205 3.33545 12.4127 2.02783V2.02783ZM7.51709 9.40051C6.15125 9.40051 5.04004 8.28931 5.04004 6.92334C5.04004 5.5575 6.15125 4.44629 7.51709 4.44629C8.88293 4.44629 9.99414 5.5575 9.99414 6.92334C9.99414 8.28931 8.88293 9.40051 7.51709 9.40051V9.40051Z" fill="#295AA8"/>
</svg>
