<svg width="20" height="20" viewBox="0 0 20 20" xmlns="http://www.w3.org/2000/svg">
<path d="M19.3963 12.1077C20.846 5.60898 15.1471 -0.289896 8.44839 0.83489C4.82408 -1.41468 0 1.13483 0 5.45901C0 6.45882 0.274948 7.40864 0.749857 8.20849C-0.574891 14.7322 5.14902 20.5561 11.8477 19.3314C16.5718 21.8309 21.7709 16.8568 19.3963 12.1077ZM13.0475 16.032C11.2978 16.7569 8.3984 16.7569 6.64873 15.832C4.14921 14.5073 3.72429 11.5079 5.87388 11.5079C7.49857 11.5079 6.97367 13.4075 8.62336 14.1574C9.37321 14.5073 10.9979 14.5323 11.9227 13.9074C12.8476 13.2825 12.7726 12.3077 12.2727 11.8578C10.9479 10.633 7.12364 11.1079 5.37398 8.95834C4.62412 8.03352 4.47415 6.38383 5.39897 5.18406C7.02366 3.08446 11.7978 2.95949 13.8474 4.53419C15.747 6.0089 15.2221 7.93354 13.6974 7.93354C11.8727 7.93354 12.8226 5.53399 9.84812 5.53399C7.69853 5.53399 6.8487 7.0587 8.37341 7.80856C10.423 8.85836 15.647 8.50843 15.647 12.5077C15.647 14.1574 14.6222 15.3821 13.0475 16.032Z" fill="white"/>
</svg>
