<svg width="44" height="44" viewBox="0 0 44 44" xmlns="http://www.w3.org/2000/svg">
<path d="M33.6728 4.19994L38.3397 8.0918C38.661 8.35983 39.0514 8.49063 39.4395 8.49063C39.9319 8.49063 40.4205 8.28026 40.7605 7.87266C41.3684 7.14365 41.2703 6.0598 40.5412 5.45188L35.8742 1.55994C35.1454 0.952022 34.0615 1.05008 33.4535 1.77917C32.8455 2.50818 32.9437 3.59194 33.6728 4.19994Z" fill="white"/>
<path d="M4.55962 8.49049C4.94772 8.49049 5.33813 8.35969 5.65945 8.09165L10.3263 4.19989C11.0553 3.59196 11.1535 2.50812 10.5456 1.77911C9.93776 1.05019 8.85383 0.951966 8.12482 1.55989L3.4579 5.45174C2.7289 6.05966 2.63067 7.1435 3.23859 7.87251C3.57865 8.28011 4.06729 8.49049 4.55962 8.49049Z" fill="white"/>
<path d="M36.341 9.37776C32.9184 5.95521 28.4878 3.90792 23.7188 3.51029V1.71875C23.7188 0.769484 22.9493 0 22 0C21.0507 0 20.2812 0.769484 20.2812 1.71875V3.51029C15.5122 3.90792 11.0816 5.95513 7.65901 9.37767C3.82834 13.2083 1.71875 18.3014 1.71875 23.7188C1.71875 29.1361 3.82834 34.2292 7.65901 38.0597C11.4896 41.8904 16.5827 44 22 44C26.3617 44 30.518 42.6363 34.0196 40.056C34.7838 39.4929 34.9467 38.417 34.3837 37.6527C33.8205 36.8884 32.7445 36.7256 31.9804 37.2886C29.0738 39.4304 25.6226 40.5625 22 40.5625C12.7123 40.5625 5.15625 33.0064 5.15625 23.7188C5.15625 14.4311 12.7123 6.875 22 6.875C31.2877 6.875 38.8438 14.4311 38.8438 23.7188C38.8438 26.5555 38.1258 29.3595 36.7674 31.8275C36.3097 32.6591 36.6128 33.7043 37.4444 34.162C38.2758 34.6195 39.3211 34.3167 39.7789 33.4849C41.4159 30.5106 42.2812 27.1335 42.2812 23.7188C42.2812 18.3014 40.1717 13.2083 36.341 9.37776Z" fill="white"/>
<path d="M30.3732 13.372C29.6355 12.775 28.5532 12.8888 27.956 13.6268L22.5367 20.3235C22.3617 20.2959 22.1825 20.2813 22 20.2813C20.1046 20.2813 18.5625 21.8233 18.5625 23.7188C18.5625 25.6142 20.1046 27.1563 22 27.1563C23.8954 27.1563 25.4375 25.6142 25.4375 23.7188C25.4375 23.2846 25.3558 22.8694 25.2082 22.4866L30.628 15.7892C31.2252 15.0513 31.1112 13.969 30.3732 13.372Z" fill="white"/>
</svg>
