<svg width="34" height="14" viewBox="0 0 34 14" fill="none" xmlns="http://www.w3.org/2000/svg">
<path fill-rule="evenodd" clip-rule="evenodd" d="M33.2128 7.19303C33.2128 4.8919 32.0982 3.07617 29.9679 3.07617C27.8286 3.07617 26.5342 4.8919 26.5342 7.17505C26.5342 9.88067 28.0623 11.247 30.2555 11.247C31.3252 11.247 32.1342 11.0043 32.7454 10.6627V8.86494C32.1342 9.17055 31.4331 9.35932 30.5432 9.35932C29.6713 9.35932 28.8982 9.0537 28.7993 7.99303H33.1948C33.1948 7.87617 33.2128 7.40876 33.2128 7.19303ZM28.7724 6.33909C28.7724 5.32336 29.3926 4.90089 29.9589 4.90089C30.5072 4.90089 31.0915 5.32336 31.0915 6.33909H28.7724Z" fill="#635BFF"/>
<path fill-rule="evenodd" clip-rule="evenodd" d="M23.0652 3.07617C22.1843 3.07617 21.618 3.48966 21.3034 3.7773L21.1865 3.21999H19.209V13.7009L21.4562 13.2245L21.4652 10.6807C21.7888 10.9144 22.2652 11.247 23.0562 11.247C24.6652 11.247 26.1303 9.95258 26.1303 7.10314C26.1213 4.4964 24.6382 3.07617 23.0652 3.07617ZM22.5258 9.26943C21.9955 9.26943 21.6809 9.08067 21.4652 8.84696L21.4562 5.51213C21.6899 5.25145 22.0135 5.07168 22.5258 5.07168C23.3438 5.07168 23.9101 5.98853 23.9101 7.16606C23.9101 8.37055 23.3528 9.26943 22.5258 9.26943Z" fill="#635BFF"/>
<path fill-rule="evenodd" clip-rule="evenodd" d="M16.1162 2.54644L18.3724 2.06105V0.236328L16.1162 0.712733V2.54644Z" fill="#635BFF"/>
<path d="M18.3724 3.23047H16.1162V11.0956H18.3724V3.23047Z" fill="#635BFF"/>
<path fill-rule="evenodd" clip-rule="evenodd" d="M13.6987 3.8948L13.5549 3.22963H11.6133V11.0948H13.8605V5.76446C14.3908 5.07233 15.2897 5.19817 15.5683 5.29705V3.22963C15.2807 3.12177 14.229 2.92401 13.6987 3.8948Z" fill="#635BFF"/>
<path fill-rule="evenodd" clip-rule="evenodd" d="M9.2042 1.2793L7.01094 1.74671L7.00195 8.94671C7.00195 10.2771 7.99971 11.2568 9.33005 11.2568C10.0671 11.2568 10.6065 11.122 10.9031 10.9602V9.13548C10.6154 9.25233 9.19522 9.66581 9.19522 8.33548V5.14447H10.9031V3.22986H9.19522L9.2042 1.2793Z" fill="#635BFF"/>
<path fill-rule="evenodd" clip-rule="evenodd" d="M3.12767 5.51213C3.12767 5.16157 3.41531 5.02673 3.89172 5.02673C4.57486 5.02673 5.43779 5.23348 6.12093 5.60201V3.48965C5.37486 3.19303 4.63779 3.07617 3.89172 3.07617C2.067 3.07617 0.853516 4.02898 0.853516 5.61999C0.853516 8.10089 4.26925 7.70539 4.26925 8.77505C4.26925 9.18853 3.9097 9.32336 3.40632 9.32336C2.66026 9.32336 1.70745 9.01775 0.952392 8.60426V10.7436C1.78835 11.1031 2.63329 11.2559 3.40632 11.2559C5.27599 11.2559 6.56138 10.3301 6.56138 8.72112C6.55239 6.04246 3.12767 6.51887 3.12767 5.51213Z" fill="#635BFF"/>
</svg>
