<svg width="32" height="32" viewBox="0 0 32 32" xmlns="http://www.w3.org/2000/svg">
<g clip-path="url(#clip0_281_763)">
<path d="M3.21165 5.81947H9.45573C9.45573 6.21511 9.49501 6.60925 9.57498 6.9918C9.65059 7.36412 9.76404 7.73065 9.9139 8.08559C10.0608 8.4303 10.2412 8.76336 10.4492 9.07316C10.6746 9.40622 11.1255 9.49348 11.4586 9.26952C11.7916 9.04405 11.8789 8.59318 11.6549 8.26013C11.4978 8.02744 11.3626 7.77872 11.252 7.51978C11.1415 7.25361 11.0557 6.97871 10.999 6.69945C10.9408 6.41289 10.9103 6.11618 10.9103 5.81947C10.9103 5.52275 10.9408 5.22604 10.999 4.93948C11.0557 4.66022 11.1415 4.38533 11.252 4.12209C11.3626 3.86028 11.4964 3.613 11.6535 3.3803C11.8106 3.14761 11.9895 2.93087 12.1858 2.73451C12.3851 2.53673 12.6033 2.35783 12.8345 2.20074C13.0672 2.04366 13.3159 1.90839 13.5749 1.79787C13.8396 1.68586 14.1145 1.60152 14.3938 1.54479C14.9683 1.42698 15.5792 1.42698 16.1537 1.54479C16.4315 1.60152 16.7078 1.68736 16.9711 1.79787C17.2329 1.90839 17.4802 2.04223 17.7129 2.19931C17.9456 2.35639 18.1623 2.5353 18.3587 2.73165C18.5564 2.92944 18.7353 3.14761 18.8924 3.37887C19.0495 3.61157 19.1848 3.86028 19.2953 4.11922C19.4073 4.38396 19.4916 4.65886 19.5484 4.93812C19.6065 5.22611 19.6371 5.52282 19.6371 5.81954C19.6371 6.11625 19.6065 6.41296 19.5484 6.69952C19.4916 6.97735 19.4058 7.25367 19.2953 7.51691C19.1848 7.77872 19.0509 8.026 18.8924 8.2587C18.6685 8.59175 18.7557 9.04412 19.0888 9.26809C19.2139 9.35242 19.3549 9.39169 19.4946 9.39169C19.7288 9.39169 19.9571 9.27968 20.0982 9.07173C20.3076 8.76336 20.4879 8.4303 20.6349 8.08266C20.7847 7.72922 20.8981 7.36269 20.9738 6.9918C21.0523 6.60925 21.0916 6.21511 21.0916 5.81947C21.0916 5.42383 21.0523 5.02968 20.9724 4.64713C20.8967 4.27481 20.7833 3.90828 20.6334 3.55334C20.4865 3.2072 20.3062 2.87408 20.0967 2.56427C19.8887 2.2574 19.6502 1.96791 19.3869 1.70324C19.1237 1.44144 18.8357 1.20288 18.5273 0.993433C18.219 0.783988 17.8859 0.603655 17.5383 0.45673C17.1848 0.306941 16.8183 0.193491 16.4474 0.117813C15.6824 -0.039271 14.8678 -0.039271 14.1028 0.117813C13.7305 0.193423 13.3639 0.306873 13.009 0.45673C12.6629 0.606518 12.3297 0.786919 12.0199 0.996364C11.7131 1.20438 11.4236 1.44287 11.1589 1.70617C10.8971 1.96941 10.6585 2.2574 10.4491 2.56577C10.2411 2.87558 10.0608 3.20863 9.9124 3.55484C9.80188 3.81665 9.73206 4.09154 9.66225 4.36501H3.21165L4.87849 2.69817C5.16211 2.41455 5.16211 1.95346 4.87849 1.66983C4.59486 1.38621 4.13377 1.38621 3.85015 1.66983L0.942665 4.57732C0.875782 4.6442 0.82192 4.72567 0.784149 4.81438C0.709971 4.99184 0.709971 5.19256 0.784149 5.36996C0.820489 5.46016 0.87435 5.54014 0.942665 5.60702L3.85015 8.51451C3.99271 8.65707 4.17884 8.72831 4.36503 8.72831C4.55123 8.72831 4.73736 8.65707 4.87992 8.51594C5.16354 8.23088 5.16354 7.77122 4.87992 7.48617L3.21165 5.81947Z" fill="#C5CFE0"/>
<path d="M29.0942 16.0487C28.3306 15.8567 27.535 15.9862 26.9096 16.3469V15.9571C26.9096 14.3601 25.6049 13.0627 24.0006 13.0627C23.4712 13.0627 22.9737 13.2038 22.5461 13.451V13.0627C22.5461 11.4584 21.2415 10.1537 19.6371 10.1537C19.1077 10.1537 18.6103 10.2963 18.1827 10.545V5.80479C18.1827 4.2092 16.878 2.9104 15.2737 2.9104C13.6694 2.9104 12.3647 4.20927 12.3647 5.80479V14.8633C11.9546 14.6335 11.479 14.5026 10.9684 14.5026C10.0594 14.5026 9.29869 14.8284 8.76635 15.4436C8.13072 16.1796 7.87185 17.2967 8.05218 18.5097C8.82744 23.5917 10.676 27.8736 13.5443 31.2364C13.9588 31.7222 14.5697 32 15.2199 32H26.6084C27.4898 32 28.2796 31.4851 28.617 30.6852C30.265 26.7726 31.2321 22.5372 31.2714 19.0697C31.2889 17.6181 30.393 16.376 29.0942 16.0487ZM27.2761 30.1194C27.167 30.3782 26.9052 30.5456 26.607 30.5456H15.2185C14.9974 30.5456 14.7865 30.4525 14.6512 30.2939C11.959 27.1391 10.2224 23.1015 9.48931 18.293C9.37293 17.5134 9.51406 16.8037 9.866 16.3935C10.1191 16.0997 10.4798 15.9571 10.9656 15.9571C11.7481 15.9571 12.3619 16.5956 12.3619 17.4116C12.3619 17.813 12.6877 18.1389 13.0891 18.1389C13.4906 18.1389 13.8164 17.813 13.8164 17.4116V5.80479C13.8193 5.02517 14.4854 4.36486 15.2738 4.36486C16.0621 4.36486 16.7282 5.02517 16.7282 5.80479V13.0626C16.7282 13.4641 17.0541 13.7899 17.4555 13.7899C17.8569 13.7899 18.1828 13.4641 18.1828 13.0626C18.1828 12.2612 18.8358 11.6082 19.6372 11.6082C20.4387 11.6082 21.0917 12.2612 21.0917 13.0626V15.957C21.0917 16.3584 21.4175 16.6843 21.8189 16.6843C22.2204 16.6843 22.5462 16.3584 22.5462 15.957C22.5462 15.176 23.2124 14.5171 24.0006 14.5171C24.7889 14.5171 25.4551 15.1774 25.4551 15.957V18.8514C25.4551 19.2528 25.7809 19.5787 26.1824 19.5787C26.5838 19.5787 26.9096 19.2528 26.9096 18.8514C26.9096 17.9482 27.8289 17.2369 28.7379 17.458C29.372 17.618 29.8258 18.2885 29.8171 19.0521C29.7807 22.2914 28.8309 26.4293 27.2761 30.1194Z" fill="#C5CFE0"/>
</g>
<defs>
<clipPath id="clip0_281_763">
<rect width="32" height="32" fill="white"/>
</clipPath>
</defs>
</svg>
