<svg width="30" height="30" viewBox="0 0 30 30" fill="none" xmlns="http://www.w3.org/2000/svg">
<path fill-rule="evenodd" clip-rule="evenodd" d="M15.0003 6.66699C10.4017 6.66699 6.66699 10.4017 6.66699 15.0003C6.66699 19.599 10.4017 23.3337 15.0003 23.3337C19.599 23.3337 23.3337 19.599 23.3337 15.0003C23.3337 10.4017 19.599 6.66699 15.0003 6.66699ZM15.0003 8.66699C18.4963 8.66699 21.3337 11.5043 21.3337 15.0003C21.3337 18.4963 18.4963 21.3337 15.0003 21.3337C11.5043 21.3337 8.66699 18.4963 8.66699 15.0003C8.66699 11.5043 11.5043 8.66699 15.0003 8.66699Z" fill="#C5CFE0"/>
<path fill-rule="evenodd" clip-rule="evenodd" d="M24.334 2.66699C22.678 2.66699 21.334 4.01099 21.334 5.66699C21.334 7.323 22.678 8.667 24.334 8.667C25.99 8.667 27.334 7.323 27.334 5.66699C27.334 4.01099 25.99 2.66699 24.334 2.66699ZM24.334 4.66699C24.886 4.66699 25.334 5.11499 25.334 5.66699C25.334 6.21899 24.886 6.667 24.334 6.667C23.782 6.667 23.334 6.21899 23.334 5.66699C23.334 5.11499 23.782 4.66699 24.334 4.66699Z" fill="#C5CFE0"/>
<path fill-rule="evenodd" clip-rule="evenodd" d="M5.66699 2.66699C4.01099 2.66699 2.66699 4.01099 2.66699 5.66699C2.66699 7.323 4.01099 8.667 5.66699 8.667C7.323 8.667 8.667 7.323 8.667 5.66699C8.667 4.01099 7.323 2.66699 5.66699 2.66699ZM5.66699 4.66699C6.21899 4.66699 6.667 5.11499 6.667 5.66699C6.667 6.21899 6.21899 6.667 5.66699 6.667C5.11499 6.667 4.66699 6.21899 4.66699 5.66699C4.66699 5.11499 5.11499 4.66699 5.66699 4.66699Z" fill="#C5CFE0"/>
<path fill-rule="evenodd" clip-rule="evenodd" d="M24.334 21.334C22.678 21.334 21.334 22.678 21.334 24.334C21.334 25.99 22.678 27.334 24.334 27.334C25.99 27.334 27.334 25.99 27.334 24.334C27.334 22.678 25.99 21.334 24.334 21.334ZM24.334 23.334C24.886 23.334 25.334 23.782 25.334 24.334C25.334 24.886 24.886 25.334 24.334 25.334C23.782 25.334 23.334 24.886 23.334 24.334C23.334 23.782 23.782 23.334 24.334 23.334Z" fill="#C5CFE0"/>
<path fill-rule="evenodd" clip-rule="evenodd" d="M5.66699 21.334C4.01099 21.334 2.66699 22.678 2.66699 24.334C2.66699 25.99 4.01099 27.334 5.66699 27.334C7.323 27.334 8.667 25.99 8.667 24.334C8.667 22.678 7.323 21.334 5.66699 21.334ZM5.66699 23.334C6.21899 23.334 6.667 23.782 6.667 24.334C6.667 24.886 6.21899 25.334 5.66699 25.334C5.11499 25.334 4.66699 24.886 4.66699 24.334C4.66699 23.782 5.11499 23.334 5.66699 23.334Z" fill="#C5CFE0"/>
<path fill-rule="evenodd" clip-rule="evenodd" d="M7.95005 4.88166C9.94871 3.48566 12.3807 2.66699 15.0007 2.66699C17.506 2.66699 19.8367 3.41499 21.7834 4.70032C22.2434 5.00432 22.8647 4.87766 23.1687 4.41632C23.4727 3.95632 23.346 3.33499 22.8847 3.03099C20.622 1.53766 17.9127 0.666992 15.0007 0.666992C11.954 0.666992 9.12872 1.61899 6.80472 3.24299C6.35272 3.55899 6.24205 4.18299 6.55805 4.63499C6.87405 5.08699 7.49805 5.19766 7.95005 4.88166Z" fill="#C5CFE0"/>
<path fill-rule="evenodd" clip-rule="evenodd" d="M25.3002 8.21776C26.5855 10.1644 27.3335 12.4951 27.3335 15.0004C27.3335 17.5058 26.5855 19.8364 25.3002 21.7831C24.9962 22.2431 25.1229 22.8644 25.5842 23.1684C26.0442 23.4724 26.6655 23.3458 26.9695 22.8844C28.4629 20.6218 29.3335 17.9124 29.3335 15.0004C29.3335 12.0884 28.4629 9.37909 26.9695 7.11642C26.6655 6.65509 26.0442 6.52842 25.5842 6.83242C25.1229 7.13642 24.9962 7.75776 25.3002 8.21776Z" fill="#C5CFE0"/>
<path fill-rule="evenodd" clip-rule="evenodd" d="M21.7831 25.3C19.8364 26.5853 17.5058 27.3333 15.0004 27.3333C12.3738 27.3333 9.93776 26.5107 7.93643 25.1093C7.48443 24.792 6.86043 24.9013 6.54443 25.3533C6.22709 25.8053 6.33776 26.4307 6.78976 26.7467C9.11509 28.376 11.9471 29.3333 15.0004 29.3333C17.9124 29.3333 20.6218 28.4627 22.8844 26.9693C23.3458 26.6653 23.4724 26.044 23.1684 25.584C22.8644 25.1227 22.2431 24.996 21.7831 25.3Z" fill="#C5CFE0"/>
<path fill-rule="evenodd" clip-rule="evenodd" d="M4.871 22.0338C3.48166 20.0378 2.66699 17.6138 2.66699 15.0004C2.66699 12.4951 3.41499 10.1644 4.70033 8.21776C5.00433 7.75776 4.87766 7.13642 4.41633 6.83242C3.95633 6.52842 3.33499 6.65509 3.03099 7.11642C1.53766 9.37909 0.666992 12.0884 0.666992 15.0004C0.666992 18.0378 1.61366 20.8564 3.22833 23.1764C3.54433 23.6298 4.16833 23.7404 4.62033 23.4258C5.07366 23.1098 5.18566 22.4871 4.871 22.0338Z" fill="#C5CFE0"/>
<path fill-rule="evenodd" clip-rule="evenodd" d="M15.0001 6.66699C14.0121 6.66699 13.0214 7.31099 12.2814 8.57766C11.4334 10.0283 10.8574 12.363 10.8574 15.0003C10.8574 17.6377 11.4334 19.9723 12.2814 21.423C13.0214 22.6897 14.0121 23.3337 15.0001 23.3337C15.9881 23.3337 16.9788 22.6897 17.7188 21.423C18.5668 19.9723 19.1428 17.6377 19.1428 15.0003C19.1428 12.363 18.5668 10.0283 17.7188 8.57766C16.9788 7.31099 15.9881 6.66699 15.0001 6.66699ZM15.0001 8.66699C15.1348 8.66699 15.2574 8.73633 15.3788 8.83099C15.6041 9.00566 15.8054 9.26699 15.9921 9.58699C16.7054 10.807 17.1428 12.7817 17.1428 15.0003C17.1428 17.219 16.7054 19.1937 15.9921 20.4137C15.8054 20.7337 15.6041 20.995 15.3788 21.1697C15.2574 21.2643 15.1348 21.3337 15.0001 21.3337C14.8654 21.3337 14.7428 21.2643 14.6214 21.1697C14.3961 20.995 14.1948 20.7337 14.0081 20.4137C13.2948 19.1937 12.8574 17.219 12.8574 15.0003C12.8574 12.7817 13.2948 10.807 14.0081 9.58699C14.1948 9.26699 14.3961 9.00566 14.6214 8.83099C14.7428 8.73633 14.8654 8.66699 15.0001 8.66699Z" fill="#C5CFE0"/>
<path fill-rule="evenodd" clip-rule="evenodd" d="M22.3363 14.0427L7.66966 14C7.11766 13.9987 6.66833 14.4453 6.667 14.9973C6.66566 15.5493 7.11233 15.9987 7.66433 16L22.331 16.0427C22.883 16.0453 23.3323 15.5973 23.3336 15.0467C23.335 14.4947 22.8883 14.0453 22.3363 14.0427Z" fill="#C5CFE0"/>
</svg>
