<svg width="28" height="28" viewBox="0 0 28 28" fill="none" xmlns="http://www.w3.org/2000/svg">
<path d="M10.707 6.29297C10.3164 5.90234 9.68359 5.90234 9.29297 6.29297L6.29297 9.29297C5.90234 9.68359 5.90234 10.3164 6.29297 10.707L9.29297 13.707C9.48828 13.9023 9.74414 14 10 14C10.2559 14 10.5117 13.9023 10.707 13.707C11.0977 13.3164 11.0977 12.6836 10.707 12.293L8.41406 10L10.707 7.70703C11.0977 7.31641 11.0977 6.68359 10.707 6.29297V6.29297Z" fill="#C5CFE0"/>
<path d="M18.707 6.29297C18.3164 5.90234 17.6836 5.90234 17.293 6.29297C16.9023 6.68359 16.9023 7.31641 17.293 7.70703L19.5859 10L17.293 12.293C16.9023 12.6836 16.9023 13.3164 17.293 13.707C17.4883 13.9023 17.7441 14 18 14C18.2559 14 18.5117 13.9023 18.707 13.707L21.707 10.707C22.0977 10.3164 22.0977 9.68359 21.707 9.29297L18.707 6.29297Z" fill="#C5CFE0"/>
<path d="M15.3168 6.0506C14.7919 5.87335 14.2265 6.15949 14.0517 6.68292L12.0517 12.6829C11.8769 13.2068 12.1601 13.7733 12.684 13.9481C12.789 13.9832 12.8959 13.9998 13.0004 13.9998C13.4193 13.9998 13.8095 13.7347 13.9491 13.3157L15.9491 7.31574C16.1239 6.79181 15.8407 6.2254 15.3168 6.0506V6.0506Z" fill="#C5CFE0"/>
<path d="M24 0H4C1.79443 0 0 1.79443 0 4V16C0 18.2056 1.79443 20 4 20H11V22H9.61816C8.85547 22 8.16992 22.4238 7.8291 23.1055L6.10547 26.5527C5.95068 26.8628 5.96729 27.231 6.14941 27.5259C6.33154 27.8203 6.65332 28 7 28H21C21.3467 28 21.6685 27.8203 21.8506 27.5259C22.0327 27.231 22.0493 26.8628 21.8945 26.5527L20.1709 23.1055C19.8301 22.4238 19.1445 22 18.3818 22H17V20H24C26.2056 20 28 18.2056 28 16V4C28 1.79443 26.2056 0 24 0ZM16 25C16.5522 25 17 24.5522 17 24H18.3818L19.3818 26H8.61816L9.61816 24H11C11 24.5522 11.4478 25 12 25C12.5522 25 13 24.5522 13 24V20H15V24C15 24.5522 15.4478 25 16 25ZM26 16C26 17.103 25.103 18 24 18H4C2.89697 18 2 17.103 2 16V4C2 2.89697 2.89697 2 4 2H24C25.103 2 26 2.89697 26 4V16Z" fill="#C5CFE0"/>
</svg>
