<svg width="32" height="32" viewBox="0 0 32 32" fill="none" xmlns="http://www.w3.org/2000/svg">
<g clip-path="url(#clip0_1218_3712)">
<path d="M31.5508 10.7739C31.0396 7.74806 29.4673 4.99049 27.1236 3.00953C24.7798 1.02832 21.7991 -0.0625 18.7302 -0.0625C18.2131 -0.0625 17.7939 0.35669 17.7939 0.873781V12.9397C17.7939 13.2154 17.9153 13.4768 18.1257 13.6548C18.2961 13.7986 18.5105 13.876 18.7302 13.876C18.7822 13.876 18.8342 13.8716 18.8862 13.8628L30.7835 11.8531C31.0283 11.8118 31.2469 11.6748 31.3907 11.4724C31.5345 11.27 31.5921 11.0186 31.5508 10.7739V10.7739ZM19.6665 11.8321V1.84888C24.3933 2.24048 28.3367 5.5735 29.5103 10.169L19.6665 11.8321Z" fill="#C5CFE0"/>
<path d="M29.4774 15.9326C29.4212 15.3968 29.1417 14.9046 28.7108 14.5825C28.2813 14.2617 27.733 14.1338 27.2059 14.2312V14.2315L15.9886 16.3086V4.92652C15.9886 4.3899 15.7625 3.8733 15.3684 3.50879C14.9754 3.14502 14.4436 2.95997 13.9102 3.00196C10.2844 3.28492 6.91945 4.91285 4.43555 7.5862C1.93775 10.2739 0.5625 13.7761 0.5625 17.4473C0.5625 21.3162 2.06885 24.9541 4.79981 27.6863C4.80714 27.6937 4.81446 27.701 4.82203 27.7083C7.5569 30.4351 11.19 31.9368 15.052 31.9368C15.0821 31.9368 15.1114 31.9354 15.1407 31.9327C18.9812 31.9122 22.5887 30.4073 25.3069 27.689C25.3282 27.6678 25.348 27.6458 25.3667 27.6233C27.2049 25.7649 28.5057 23.4502 29.1302 20.9248L29.148 20.8516C29.2193 20.5567 29.2811 20.2637 29.3311 19.982C29.5699 18.647 29.619 17.2847 29.4774 15.9326V15.9326ZM14.0557 4.8689C14.0572 4.8689 14.0591 4.86866 14.0616 4.86866C14.0699 4.86866 14.0828 4.87061 14.0967 4.88355C14.1158 4.90113 14.1158 4.91969 14.1158 4.92652V17.0462L11.6526 19.5096L5.48634 25.6756C3.51197 23.3875 2.43506 20.5003 2.43506 17.4473C2.43506 10.9024 7.53956 5.37745 14.0557 4.8689V4.8689ZM15.0616 30.0601C15.0586 30.0601 15.0562 30.0604 15.052 30.0601C15.0244 30.0601 14.9969 30.0613 14.9698 30.064C11.9414 30.0447 9.07887 28.9644 6.80983 27.0008L15.052 18.7583L23.2967 27.003C21.0074 28.9813 18.1177 30.0601 15.0616 30.0601ZM27.4874 19.6534C27.4439 19.8987 27.3902 20.1538 27.3282 20.4102L27.3128 20.4734C26.8375 22.3956 25.9124 24.177 24.6182 25.6761L19.3475 20.4056L16.9727 18.0308L27.5467 16.0728C27.5538 16.0713 27.5706 16.0684 27.5899 16.0828C27.6119 16.0994 27.6141 16.1209 27.6148 16.128C27.7383 17.305 27.6956 18.4905 27.4874 19.6534V19.6534Z" fill="#C5CFE0"/>
</g>
<defs>
<clipPath id="clip0_1218_3712">
<rect width="32" height="32" fill="white"/>
</clipPath>
</defs>
</svg>
