<svg width="32" height="32" viewBox="0 0 32 32" fill="none" xmlns="http://www.w3.org/2000/svg">
<path d="M11.9209 14.5864H10.8501V13.5156C10.8501 12.9978 10.4302 12.5781 9.9126 12.5781C9.39478 12.5781 8.9751 12.9978 8.9751 13.5156V14.5864H7.9043C7.38647 14.5864 6.9668 15.0061 6.9668 15.5239C6.9668 16.0418 7.38647 16.4614 7.9043 16.4614H8.9751V17.5322C8.9751 18.0501 9.39478 18.4697 9.9126 18.4697C10.4302 18.4697 10.8501 18.0501 10.8501 17.5322V16.4614H11.9209C12.4387 16.4614 12.8584 16.0418 12.8584 15.5239C12.8584 15.0061 12.4387 14.5864 11.9209 14.5864Z" fill="#C5CFE0"/>
<path d="M22.9004 13.5156C22.9004 14.0334 22.4805 14.4531 21.9629 14.4531C21.4451 14.4531 21.0254 14.0334 21.0254 13.5156C21.0254 12.9978 21.4451 12.5781 21.9629 12.5781C22.4805 12.5781 22.9004 12.9978 22.9004 13.5156Z" fill="#C5CFE0"/>
<path d="M20.8916 15.5254C20.8916 16.0432 20.4717 16.4629 19.9541 16.4629C19.4363 16.4629 19.0166 16.0432 19.0166 15.5254C19.0166 15.0076 19.4363 14.5879 19.9541 14.5879C20.4717 14.5879 20.8916 15.0076 20.8916 15.5254Z" fill="#C5CFE0"/>
<path d="M22.9004 17.5332C22.9004 18.051 22.4805 18.4707 21.9629 18.4707C21.4451 18.4707 21.0254 18.051 21.0254 17.5332C21.0254 17.0156 21.4451 16.5957 21.9629 16.5957C22.4805 16.5957 22.9004 17.0156 22.9004 17.5332Z" fill="#C5CFE0"/>
<path d="M24.9082 15.5254C24.9082 16.0432 24.4883 16.4629 23.9707 16.4629C23.4529 16.4629 23.0332 16.0432 23.0332 15.5254C23.0332 15.0076 23.4529 14.5879 23.9707 14.5879C24.4883 14.5879 24.9082 15.0076 24.9082 15.5254Z" fill="#C5CFE0"/>
<path d="M31.8935 23.3697L29.7485 12.7839C29.1274 9.71818 26.7292 7 23.4606 7H8.53949C5.09246 7 2.82903 9.93222 2.2514 12.7839L0.106622 23.3697C-0.476386 26.247 1.40545 29 3.94744 29C5.02899 29 6.04632 28.3309 6.60223 27.2542L8.25457 24.0566C8.53704 23.5095 9.05389 23.1699 9.60321 23.1699H22.3969C22.9462 23.1699 23.4628 23.5095 23.7455 24.0569L25.3974 27.2539C25.9536 28.3309 26.9709 29 28.0537 29C30.5986 29 32.4755 26.2418 31.8935 23.3697V23.3697ZM28.0524 26.8227C27.6259 26.8227 27.2246 26.5588 27.0051 26.1338L25.3532 22.9368C24.7341 21.7376 23.6013 20.9926 22.3969 20.9926H9.60321C8.39886 20.9926 7.26605 21.7376 6.64691 22.9365L4.99456 26.1341C4.77532 26.5588 4.37396 26.8227 3.94622 26.8227C2.61346 26.8227 1.62591 25.3766 1.93157 23.8684L4.07635 13.2826C4.5661 10.8655 6.4013 9.17726 8.53949 9.17726H23.4606C25.5986 9.17726 27.434 10.8655 27.9235 13.2826L30.0685 23.8684C30.3737 25.3758 29.3881 26.8227 28.0524 26.8227V26.8227Z" fill="#C5CFE0"/>
</svg>
