<svg width="32" height="32" viewBox="0 0 32 32" fill="none" xmlns="http://www.w3.org/2000/svg">
<path d="M30 16.8947L25.6461 8.25259H27.959V6.61196H19.0076L19.1503 5.88626C19.33 4.97254 19.1295 4.01693 18.5666 3.27515C17.9531 2.4667 17.0096 2 16.0006 2C15.0343 2 14.1282 2.42798 13.5143 3.17425C12.9005 3.92052 12.6554 4.89231 12.8419 5.84043L12.9936 6.61196H4.0423V8.25259H6.35515L2 16.8947V16.8959V19.8463C2 21.5075 3.34663 22.8541 5.00781 22.8541H10.3872C12.0484 22.8541 13.395 21.5075 13.395 19.8463V16.8959V16.8947H13.3944L9.04047 8.25259H15.1803V24.8047H11.1517C9.18851 24.8047 7.59699 26.3962 7.59699 28.3594V30H23.8209V28.3594C23.8209 26.3962 22.2294 24.8047 20.2662 24.8047H16.8209V8.25259H22.9607L18.6068 16.8947H18.6061V16.8959V19.8463C18.6061 21.5075 19.9528 22.8541 21.6139 22.8541H26.9925C28.6535 22.8541 30.0002 21.5077 30.0003 19.8467L30.0007 16.8959V16.8947H30ZM26.6334 21.2135H21.9735C21.0214 21.2135 20.2468 20.4389 20.2468 19.4868V18.5353H28.3601V19.4868C28.36 20.4389 27.5854 21.2135 26.6334 21.2135ZM20.4439 16.8947L24.3034 9.23395L28.1629 16.8947H20.4439ZM14.6656 6.61196L14.4516 5.52384C14.3602 5.05889 14.4804 4.5824 14.7814 4.21643C15.0824 3.85052 15.5268 3.64063 16.0006 3.64063C16.4745 3.64063 16.9189 3.85052 17.2199 4.21648C17.5209 4.58245 17.641 5.05895 17.5496 5.52384L17.3356 6.61196H14.6656ZM10.0278 21.2135H5.36782C4.41577 21.2135 3.64123 20.4389 3.64123 19.4868V18.5353H11.7544V19.4868C11.7544 20.4389 10.9799 21.2135 10.0278 21.2135ZM3.83832 16.8947L7.69784 9.23395L11.5574 16.8947H3.83832ZM22.1803 28.3594H9.23762C9.23762 27.304 10.0963 26.4453 11.1517 26.4453H20.2662C21.3216 26.4453 22.1803 27.304 22.1803 28.3594Z" fill="#C5CFE0"/>
</svg>
