<svg width="32" height="32" viewBox="0 0 32 32" fill="none" xmlns="http://www.w3.org/2000/svg">
<g clip-path="url(#clip0_1218_3720)">
<path d="M31.977 2.85858C32.0826 2.07252 31.8216 1.29996 31.2608 0.739153C30.6998 0.178282 29.9273 -0.0824667 29.1414 0.0229701C27.1781 0.286906 25.3254 1.20365 23.9246 2.60446L20.861 5.66806L7.39204 1.8499C7.06523 1.75734 6.71367 1.84865 6.47348 2.08896L3.60006 4.96238C3.389 5.17344 3.29106 5.47238 3.33631 5.7675C3.38156 6.06256 3.56462 6.31837 3.82931 6.45643L14.5034 12.0257L10.0243 16.5047L3.65362 14.7406C3.32838 14.6505 2.97944 14.7424 2.74057 14.9813L0.27458 17.4471C0.0662067 17.6554 -0.0320427 17.9496 0.00926952 18.2414C0.0505193 18.5331 0.226643 18.7885 0.484579 18.9308L8.59478 23.4051L13.069 31.5153C13.2113 31.7733 13.4667 31.9493 13.7584 31.9906C13.8023 31.9968 13.8462 31.9998 13.8899 31.9998C14.1367 31.9998 14.3757 31.9023 14.5527 31.7252L17.0187 29.2593C17.2575 29.0205 17.3494 28.6717 17.2593 28.3462L15.4952 21.9755L19.9743 17.4964L25.5435 28.1705C25.6816 28.4351 25.9374 28.6182 26.2324 28.6635C26.2799 28.6708 26.3274 28.6744 26.3747 28.6744C26.6213 28.6744 26.8604 28.5769 27.0375 28.3997L29.9109 25.5263C30.1512 25.2861 30.2427 24.9346 30.15 24.6078L26.3318 11.1388L29.3954 8.07517C30.7962 6.67456 31.713 4.82182 31.977 2.85858V2.85858ZM13.783 21.0362C13.5442 21.275 13.4523 21.6237 13.5424 21.9492L15.3065 28.32L14.1085 29.5179L10.1056 22.2622C10.0202 22.1073 9.89259 21.9797 9.73765 21.8942L2.48201 17.8914L3.67994 16.6934L10.0507 18.4575C10.3762 18.5478 10.7251 18.4558 10.9638 18.2169L25.2504 3.93026C26.3623 2.81845 27.8328 2.09071 29.3912 1.88127C29.6673 1.8444 29.8505 1.9804 29.935 2.06496C30.0195 2.14952 30.1558 2.33258 30.1187 2.60877C29.9092 4.16713 29.1815 5.63762 28.0697 6.74949L13.783 21.0362ZM5.82911 5.38494L7.41023 3.80389L19.3426 7.18643L15.8932 10.6358L5.82911 5.38494ZM28.196 24.5898L26.615 26.1709L21.364 16.1067L24.8134 12.6574L28.196 24.5898Z" fill="#C5CFE0"/>
</g>
<defs>
<clipPath id="clip0_1218_3720">
<rect width="32" height="32" fill="white"/>
</clipPath>
</defs>
</svg>
