<svg width="32" height="32" viewBox="0 0 32 32" fill="none" xmlns="http://www.w3.org/2000/svg">
<path d="M30.7516 10.9906L27.25 12.2216V3.75C27.25 3.23225 26.8303 2.8125 26.3125 2.8125H20.6875C20.1697 2.8125 19.75 3.23225 19.75 3.75V14.8582L16 16.1766V11.875C16 11.2133 15.3312 10.7591 14.7156 11.004L12.25 11.9859V3.75C12.25 3.23225 11.8303 2.8125 11.3125 2.8125H5.6875C5.16975 2.8125 4.75 3.23225 4.75 3.75V14.9727L0.590625 16.6291C0.234 16.7711 0 17.1161 0 17.5V28.25C0 28.7678 0.41975 29.1875 0.9375 29.1875H31.0625C31.5803 29.1875 32 28.7678 32 28.25V11.875C32 11.2311 31.3628 10.7757 30.7516 10.9906ZM25.375 4.6875V6.5625H21.625V4.6875H25.375ZM21.625 8.4375H25.375V12.8807L21.625 14.1991V8.4375ZM10.375 4.6875V6.5625H6.625V4.6875H10.375ZM6.625 8.4375H10.375V12.7326L6.625 14.226V8.4375ZM9.4375 27.3125H7.5625V25.4375H9.4375V27.3125ZM16.9375 27.3125H15.0625V25.4375H16.9375V27.3125ZM24.4375 27.3125H22.5625V25.4375H24.4375V27.3125ZM30.125 27.3125H26.3125V24.5C26.3125 23.9822 25.8928 23.5625 25.375 23.5625H21.625C21.1072 23.5625 20.6875 23.9822 20.6875 24.5V27.3125H18.8125V24.5C18.8125 23.9822 18.3928 23.5625 17.875 23.5625H14.125C13.6072 23.5625 13.1875 23.9822 13.1875 24.5V27.3125H11.3125V24.5C11.3125 23.9822 10.8928 23.5625 10.375 23.5625H6.625C6.10725 23.5625 5.6875 23.9822 5.6875 24.5V27.3125H1.875V18.1357L14.125 13.2574V17.5C14.125 18.1439 14.7622 18.5993 15.3734 18.3844L30.125 13.1984V27.3125Z" fill="#C5CFE0"/>
</svg>
