<svg width="32" height="32" viewBox="0 0 32 32" fill="none" xmlns="http://www.w3.org/2000/svg">
<path d="M30.601 15.0117C30.5848 14.9252 30.5593 14.8407 30.525 14.7597C30.5157 14.741 30.517 14.7197 30.5077 14.701L25.841 6.03434C25.7889 5.94343 25.7253 5.85963 25.6517 5.78501C25.5289 5.64415 25.3775 5.531 25.2076 5.45307C25.0377 5.37515 24.8532 5.33422 24.6664 5.33301H17.333V2.66634C17.333 2.31272 17.1925 1.97358 16.9425 1.72353C16.6924 1.47348 16.3533 1.33301 15.9997 1.33301C15.6461 1.33301 15.3069 1.47348 15.0569 1.72353C14.8068 1.97358 14.6663 2.31272 14.6663 2.66634V5.33301H7.33301C7.14612 5.33422 6.96162 5.37515 6.79175 5.45307C6.62187 5.531 6.47051 5.64415 6.34768 5.78501C6.2741 5.85963 6.21046 5.94343 6.15834 6.03434L1.49167 14.701C1.48234 14.7197 1.48367 14.741 1.47434 14.7597C1.44004 14.8403 1.41455 14.9243 1.39834 15.0103C1.37134 15.0971 1.35346 15.1865 1.34501 15.277C1.34501 15.297 1.33301 15.3143 1.33301 15.3357C1.33301 16.927 1.96515 18.4531 3.09037 19.5783C4.21559 20.7035 5.74171 21.3357 7.33301 21.3357C8.92431 21.3357 10.4504 20.7035 11.5757 19.5783C12.7009 18.4531 13.333 16.927 13.333 15.3357C13.333 15.3143 13.3223 15.297 13.321 15.277C13.3127 15.1865 13.2948 15.0971 13.2677 15.0103C13.2515 14.9239 13.226 14.8394 13.1917 14.7583C13.1823 14.7397 13.1837 14.7183 13.1743 14.6997L9.56501 7.99968H14.6663V23.9997H10.6663C10.3127 23.9997 9.97359 24.1402 9.72354 24.3902C9.47349 24.6403 9.33301 24.9794 9.33301 25.333C9.33301 25.6866 9.47349 26.0258 9.72354 26.2758C9.97359 26.5259 10.3127 26.6664 10.6663 26.6664H21.333C21.6866 26.6664 22.0258 26.5259 22.2758 26.2758C22.5259 26.0258 22.6664 25.6866 22.6664 25.333C22.6664 24.9794 22.5259 24.6403 22.2758 24.3902C22.0258 24.1402 21.6866 23.9997 21.333 23.9997H17.333V7.99968H22.4344L18.825 14.701C18.8157 14.7197 18.817 14.741 18.8077 14.7597C18.7734 14.8403 18.7479 14.9243 18.7317 15.0103C18.7047 15.0971 18.6868 15.1865 18.6783 15.277C18.6783 15.297 18.6663 15.3143 18.6663 15.3357C18.6663 16.927 19.2985 18.4531 20.4237 19.5783C21.5489 20.7035 23.0751 21.3357 24.6664 21.3357C26.2577 21.3357 27.7838 20.7035 28.909 19.5783C30.0342 18.4531 30.6664 16.927 30.6664 15.3357C30.6664 15.3143 30.6557 15.297 30.6544 15.277C30.6459 15.1869 30.628 15.098 30.601 15.0117ZM7.33301 18.6664C6.68449 18.6663 6.05007 18.477 5.50749 18.1218C4.96492 17.7665 4.53775 17.2607 4.27834 16.6663H10.3877C10.1283 17.2607 9.70111 17.7665 9.15853 18.1218C8.61596 18.477 7.98154 18.6663 7.33301 18.6664ZM9.76768 13.9997H4.89834L7.33301 9.47835L9.76768 13.9997ZM24.6664 9.47835L27.101 13.9997H22.2317L24.6664 9.47835ZM24.6664 18.6664C24.0178 18.6663 23.3834 18.477 22.8408 18.1218C22.2983 17.7665 21.8711 17.2607 21.6117 16.6663H27.721C27.4616 17.2607 27.0344 17.7665 26.4919 18.1218C25.9493 18.477 25.3149 18.6663 24.6664 18.6664Z" fill="#C5CFE0"/>
<path d="M26.6667 28H5.33333C4.97971 28 4.64057 28.1405 4.39052 28.3905C4.14048 28.6406 4 28.9797 4 29.3333C4 29.687 4.14048 30.0261 4.39052 30.2762C4.64057 30.5262 4.97971 30.6667 5.33333 30.6667H26.6667C27.0203 30.6667 27.3594 30.5262 27.6095 30.2762C27.8595 30.0261 28 29.687 28 29.3333C28 28.9797 27.8595 28.6406 27.6095 28.3905C27.3594 28.1405 27.0203 28 26.6667 28Z" fill="#C5CFE0"/>
</svg>
