<svg width="600" height="601" viewBox="0 0 600 601" fill="none" xmlns="http://www.w3.org/2000/svg">
<path opacity="0.08" fill-rule="evenodd" clip-rule="evenodd" d="M300 460.999C388.366 460.999 460 389.365 460 300.999C460 212.633 388.366 140.999 300 140.999C211.634 140.999 140 212.633 140 300.999C140 389.365 211.634 460.999 300 460.999ZM300 480.999C399.411 480.999 480 400.41 480 300.999C480 201.588 399.411 120.999 300 120.999C200.589 120.999 120 201.588 120 300.999C120 400.41 200.589 480.999 300 480.999Z" fill="#174184"/>
<path opacity="0.05" fill-rule="evenodd" clip-rule="evenodd" d="M300 521.439C421.746 521.439 520.44 422.745 520.44 300.999C520.44 179.253 421.746 80.5586 300 80.5586C178.254 80.5586 79.56 179.253 79.56 300.999C79.56 422.745 178.254 521.439 300 521.439ZM300 541.479C432.813 541.479 540.48 433.812 540.48 300.999C540.48 168.186 432.813 60.5186 300 60.5186C167.187 60.5186 59.52 168.186 59.52 300.999C59.52 433.812 167.187 541.479 300 541.479Z" fill="#295AA8"/>
<path opacity="0.02" fill-rule="evenodd" clip-rule="evenodd" d="M300 580.999C454.64 580.999 580 455.639 580 300.999C580 146.359 454.64 20.9985 300 20.9985C145.36 20.9985 20 146.359 20 300.999C20 455.639 145.36 580.999 300 580.999ZM300 600.999C465.685 600.999 600 466.684 600 300.999C600 135.314 465.685 0.998535 300 0.998535C134.315 0.998535 0 135.314 0 300.999C0 466.684 134.315 600.999 300 600.999Z" fill="#174184"/>
</svg>
