<svg width="420" height="420" viewBox="0 0 420 420" fill="none" xmlns="http://www.w3.org/2000/svg">
<path opacity="0.25" fill-rule="evenodd" clip-rule="evenodd" d="M-79.998 186.669C67.2786 186.669 186.669 67.2786 186.669 -79.998C186.669 -227.275 67.2786 -346.665 -79.998 -346.665C-227.275 -346.665 -346.665 -227.275 -346.665 -79.998C-346.665 67.2786 -227.275 186.669 -79.998 186.669ZM-79.998 220.002C85.687 220.002 220.002 85.687 220.002 -79.998C220.002 -245.683 85.687 -379.998 -79.998 -379.998C-245.683 -379.998 -379.998 -245.683 -379.998 -79.998C-379.998 85.687 -245.683 220.002 -79.998 220.002Z" fill="#C5CFE0"/>
<path opacity="0.15" fill-rule="evenodd" clip-rule="evenodd" d="M-80.0017 287.398C122.908 287.398 287.398 122.908 287.398 -80.0017C287.398 -282.912 122.908 -447.402 -80.0017 -447.402C-282.912 -447.402 -447.402 -282.912 -447.402 -80.0017C-447.402 122.908 -282.912 287.398 -80.0017 287.398ZM-80.0017 320.798C141.353 320.798 320.798 141.353 320.798 -80.0017C320.798 -301.357 141.353 -480.802 -80.0017 -480.802C-301.357 -480.802 -480.802 -301.357 -480.802 -80.0017C-480.802 141.353 -301.357 320.798 -80.0017 320.798Z" fill="#C5CFE0"/>
<path opacity="0.1" fill-rule="evenodd" clip-rule="evenodd" d="M-80 386.667C177.733 386.667 386.667 177.733 386.667 -80C386.667 -337.733 177.733 -546.667 -80 -546.667C-337.733 -546.667 -546.667 -337.733 -546.667 -80C-546.667 177.733 -337.733 386.667 -80 386.667ZM-80 420C196.142 420 420 196.142 420 -80C420 -356.142 196.142 -580 -80 -580C-356.142 -580 -580 -356.142 -580 -80C-580 196.142 -356.142 420 -80 420Z" fill="#C5CFE0"/>
</svg>
