<svg width="670" height="670" viewBox="0 0 670 670" fill="none" xmlns="http://www.w3.org/2000/svg">
<g opacity="0.5">
<path opacity="0.08" fill-rule="evenodd" clip-rule="evenodd" d="M335 513.667C433.675 513.667 513.667 433.675 513.667 335C513.667 236.325 433.675 156.333 335 156.333C236.325 156.333 156.333 236.325 156.333 335C156.333 433.675 236.325 513.667 335 513.667ZM335 536C446.009 536 536 446.009 536 335C536 223.991 446.009 134 335 134C223.991 134 134 223.991 134 335C134 446.009 223.991 536 335 536Z" fill="#174184"/>
<path opacity="0.05" fill-rule="evenodd" clip-rule="evenodd" d="M335 581.158C470.95 581.158 581.158 470.95 581.158 335C581.158 199.05 470.95 88.8421 335 88.8421C199.05 88.8421 88.842 199.05 88.842 335C88.842 470.95 199.05 581.158 335 581.158ZM335 603.536C483.308 603.536 603.536 483.308 603.536 335C603.536 186.692 483.308 66.4641 335 66.4641C186.692 66.4641 66.464 186.692 66.464 335C66.464 483.308 186.692 603.536 335 603.536Z" fill="#295AA8"/>
<path opacity="0.02" fill-rule="evenodd" clip-rule="evenodd" d="M335 647.667C507.681 647.667 647.667 507.681 647.667 335C647.667 162.319 507.681 22.3333 335 22.3333C162.319 22.3333 22.3333 162.319 22.3333 335C22.3333 507.681 162.319 647.667 335 647.667ZM335 670C520.015 670 670 520.015 670 335C670 149.985 520.015 0 335 0C149.985 0 0 149.985 0 335C0 520.015 149.985 670 335 670Z" fill="#174184"/>
</g>
</svg>
