<svg width="12" height="13" viewBox="0 0 12 13" xmlns="http://www.w3.org/2000/svg">
<path fill-rule="evenodd" clip-rule="evenodd" d="M11.1896 12.8169C11.2607 12.8463 11.337 12.8614 11.4139 12.8613C11.5298 12.8613 11.6431 12.827 11.7395 12.7626C11.8359 12.6982 11.911 12.6067 11.9554 12.4996C11.9997 12.3926 12.0113 12.2747 11.9887 12.1611C11.9661 12.0474 11.9103 11.943 11.8283 11.861L6.82873 6.86139L11.8284 1.86171C11.9383 1.75181 12 1.60276 12 1.44734C12 1.29192 11.9383 1.14287 11.8284 1.03297C11.7185 0.923068 11.5694 0.861328 11.414 0.861328C11.2586 0.861328 11.1095 0.923068 10.9996 1.03297L5.99999 6.03265L1.00037 1.03297C0.890475 0.923068 0.741422 0.861328 0.586004 0.861328C0.430586 0.861328 0.281534 0.923068 0.171637 1.03297C0.0617396 1.14287 0 1.29192 0 1.44734C0 1.60276 0.0617396 1.75181 0.171637 1.86171L5.17126 6.86139L0.171669 11.861C0.0897038 11.943 0.0338819 12.0474 0.0112647 12.1611C-0.0113525 12.2747 0.000250993 12.3926 0.0446075 12.4996C0.0889641 12.6067 0.164081 12.6982 0.260456 12.7626C0.356832 12.827 0.470136 12.8613 0.586038 12.8613C0.663002 12.8614 0.739228 12.8463 0.810338 12.8169C0.881448 12.7874 0.946041 12.7442 1.00041 12.6898L5.99999 7.69013L10.9996 12.6898C11.0539 12.7442 11.1185 12.7874 11.1896 12.8169Z" fill="#232230"/>
</svg>
