<svg width="355" height="31" viewBox="0 0 355 31" fill="none" xmlns="http://www.w3.org/2000/svg">
<rect y="15" width="355" height="0.999985" fill="#C5CFE0"/>
<rect width="31" height="43" transform="translate(199) rotate(90)" fill="white"/>
<path d="M166.345 20H164.657L167.73 11.2727H169.681L172.758 20H171.071L168.74 13.0625H168.672L166.345 20ZM166.4 16.5781H171.002V17.848H166.4V16.5781ZM181.08 11.2727V20H179.673L175.561 14.0554H175.489V20H173.908V11.2727H175.322L179.43 17.2216H179.507V11.2727H181.08ZM185.76 20H182.802V11.2727H185.819C186.686 11.2727 187.43 11.4474 188.052 11.7969C188.677 12.1435 189.157 12.642 189.493 13.2926C189.828 13.9432 189.995 14.7216 189.995 15.6278C189.995 16.5369 189.826 17.3182 189.488 17.9716C189.153 18.625 188.669 19.1264 188.035 19.4759C187.404 19.8253 186.646 20 185.76 20ZM184.383 18.6321H185.683C186.291 18.6321 186.798 18.5213 187.204 18.2997C187.61 18.0753 187.916 17.7415 188.12 17.2983C188.325 16.8523 188.427 16.2955 188.427 15.6278C188.427 14.9602 188.325 14.4062 188.12 13.9659C187.916 13.5227 187.613 13.1918 187.213 12.973C186.815 12.7514 186.321 12.6406 185.73 12.6406H184.383V18.6321Z" fill="#C5CFE0"/>
</svg>
