<svg width="43" height="251" viewBox="0 0 43 251" fill="none" xmlns="http://www.w3.org/2000/svg">
<rect x="21" y="250.5" width="250" height="1" transform="rotate(-90 21 250.5)" fill="#C5CFE0"/>
<rect width="43" height="31" transform="translate(0 110.5)" fill="white"/>
<path d="M10.3448 130.5H8.65732L11.7298 121.773H13.6815L16.7582 130.5H15.0707L12.7397 123.562H12.6715L10.3448 130.5ZM10.4002 127.078H15.0025V128.348H10.4002V127.078ZM25.0795 121.773V130.5H23.6733L19.5611 124.555H19.4886V130.5H17.9077V121.773H19.3224L23.4304 127.722H23.5071V121.773H25.0795ZM29.7596 130.5H26.8022V121.773H29.8192C30.6857 121.773 31.43 121.947 32.0522 122.297C32.6772 122.643 33.1573 123.142 33.4925 123.793C33.8278 124.443 33.9954 125.222 33.9954 126.128C33.9954 127.037 33.8263 127.818 33.4883 128.472C33.1531 129.125 32.6687 129.626 32.0352 129.976C31.4045 130.325 30.646 130.5 29.7596 130.5ZM28.3832 129.132H29.6829C30.2908 129.132 30.7979 129.021 31.2042 128.8C31.6104 128.575 31.9158 128.241 32.1204 127.798C32.3249 127.352 32.4272 126.795 32.4272 126.128C32.4272 125.46 32.3249 124.906 32.1204 124.466C31.9158 124.023 31.6133 123.692 31.2127 123.473C30.815 123.251 30.3207 123.141 29.7298 123.141H28.3832V129.132Z" fill="#C5CFE0"/>
</svg>
