<svg width="20" height="20" viewBox="0 0 20 20" fill="none" xmlns="http://www.w3.org/2000/svg">
<g clip-path="url(#clip0_360_9829)">
<path d="M17.0833 19.9997H7.08333C5.935 19.9997 5 19.0655 5 17.9163V5.41634C5 4.26718 5.935 3.33301 7.08333 3.33301H17.0833C18.2317 3.33301 19.1667 4.26718 19.1667 5.41634V17.9163C19.1667 19.0655 18.2317 19.9997 17.0833 19.9997ZM7.08333 4.16634C6.39417 4.16634 5.83333 4.72718 5.83333 5.41634V17.9163C5.83333 18.6055 6.39417 19.1663 7.08333 19.1663H17.0833C17.7725 19.1663 18.3333 18.6055 18.3333 17.9163V5.41634C18.3333 4.72718 17.7725 4.16634 17.0833 4.16634H7.08333Z" fill="#3F3D56"/>
<path d="M3.74992 17.5H2.91659C1.76825 17.5 0.833252 16.5658 0.833252 15.4167V2.08333C0.833252 0.934166 1.76825 0 2.91659 0H12.9166C14.0649 0 14.9999 0.934166 14.9999 2.08333C14.9999 2.31333 14.8133 2.5 14.5833 2.5C14.3533 2.5 14.1666 2.31333 14.1666 2.08333C14.1666 1.39417 13.6058 0.833333 12.9166 0.833333H2.91659C2.22742 0.833333 1.66659 1.39417 1.66659 2.08333V15.4167C1.66659 16.1058 2.22742 16.6667 2.91659 16.6667H3.74992C3.97992 16.6667 4.16659 16.8533 4.16659 17.0833C4.16659 17.3133 3.97992 17.5 3.74992 17.5Z" fill="#3F3D56"/>
<path d="M15.4166 14.1663H8.74992C8.51992 14.1663 8.33325 13.9797 8.33325 13.7497C8.33325 13.5197 8.51992 13.333 8.74992 13.333H15.4166C15.6466 13.333 15.8333 13.5197 15.8333 13.7497C15.8333 13.9797 15.6466 14.1663 15.4166 14.1663Z" fill="#3F3D56"/>
<path d="M15.4166 17.5003H8.74992C8.51992 17.5003 8.33325 17.3137 8.33325 17.0837C8.33325 16.8537 8.51992 16.667 8.74992 16.667H15.4166C15.6466 16.667 15.8333 16.8537 15.8333 17.0837C15.8333 17.3137 15.6466 17.5003 15.4166 17.5003Z" fill="#3F3D56"/>
<path d="M15.4166 10.8333H8.74992C8.51992 10.8333 8.33325 10.6467 8.33325 10.4167C8.33325 10.1867 8.51992 10 8.74992 10H15.4166C15.6466 10 15.8333 10.1867 15.8333 10.4167C15.8333 10.6467 15.6466 10.8333 15.4166 10.8333Z" fill="#3F3D56"/>
<path d="M15.4166 7.50033H8.74992C8.51992 7.50033 8.33325 7.31366 8.33325 7.08366C8.33325 6.85366 8.51992 6.66699 8.74992 6.66699H15.4166C15.6466 6.66699 15.8333 6.85366 15.8333 7.08366C15.8333 7.31366 15.6466 7.50033 15.4166 7.50033Z" fill="#3F3D56"/>
</g>
<defs>
<clipPath id="clip0_360_9829">
<rect width="20" height="20" fill="white"/>
</clipPath>
</defs>
</svg>
