<svg width="469" height="421" viewBox="0 0 469 421" fill="none" xmlns="http://www.w3.org/2000/svg">
<g filter="url(#filter0_d_181_395)">
<path fill-rule="evenodd" clip-rule="evenodd" d="M290.873 10.9366C278.793 10.9366 269 20.7297 269 32.8101V368.202C269 380.283 278.793 390.076 290.873 390.076H427.127C439.207 390.076 449 380.283 449 368.202V32.8101C449 20.7297 439.207 10.9366 427.127 10.9366H290.873Z" fill="#F4F7FB"/>
</g>
<path fill-rule="evenodd" clip-rule="evenodd" d="M290.873 10.9366C278.793 10.9366 269 20.7297 269 32.8101V368.202C269 380.283 278.793 390.076 290.873 390.076H427.127C439.207 390.076 449 380.283 449 368.202V32.8101C449 20.7297 439.207 10.9366 427.127 10.9366H290.873ZM291.785 15.4934C281.718 15.4934 273.557 23.6543 273.557 33.7213V367.291C273.557 377.358 281.718 385.519 291.785 385.519H426.215C436.282 385.519 444.443 377.358 444.443 367.291V33.7213C444.443 23.6543 436.282 15.4934 426.215 15.4934H406.62C404.859 15.4934 403.43 16.9216 403.43 18.6833V20.0504C403.43 25.0839 399.35 29.1643 394.316 29.1643H328.696C323.663 29.1643 319.582 25.0839 319.582 20.0504V18.6833C319.582 16.9216 318.154 15.4934 316.392 15.4934H291.785Z" fill="url(#paint0_linear_181_395)"/>
<path d="M274 33.2759C274 23.1824 282.119 15 292.133 15H316.613C318.366 15 319.787 16.4319 319.787 18.1983V19.569C319.787 24.6157 323.846 28.7069 328.853 28.7069H394.133C399.141 28.7069 403.2 24.6157 403.2 19.569V18.1983C403.2 16.4319 404.621 15 406.373 15H425.867C435.881 15 444 23.1824 444 33.2759V367.724C444 377.818 435.881 386 425.867 386H292.133C282.119 386 274 377.818 274 367.724V33.2759Z" fill="#F4F7FB"/>
<circle opacity="0.25" cx="359" cy="178" r="24" fill="url(#paint1_radial_181_395)"/>
<circle opacity="0.25" cx="359" cy="178" r="32" fill="url(#paint2_radial_181_395)"/>
<circle cx="359" cy="178" r="16" fill="#1CE69D"/>
<path fill-rule="evenodd" clip-rule="evenodd" d="M365.742 173.766C366.022 174.011 366.048 174.437 365.799 174.714L358.79 182.494C358.539 182.771 358.109 182.789 357.837 182.533L353.781 178.714C353.528 178.476 353.504 178.08 353.721 177.808C353.961 177.509 354.406 177.468 354.691 177.724L357.838 180.555C358.112 180.801 358.533 180.779 358.779 180.506L364.808 173.821C365.052 173.55 365.468 173.526 365.742 173.766Z" fill="#F4F7FB"/>
<path d="M333.82 220.064H342.108C344.217 220.064 345.841 220.615 346.98 221.716C348.137 222.817 348.716 224.311 348.716 226.196C348.716 228.081 348.137 229.575 346.98 230.676C345.841 231.777 344.217 232.328 342.108 232.328H336.172V240H333.82V220.064ZM336.172 230.2H342.108C343.489 230.2 344.525 229.864 345.216 229.192C345.925 228.501 346.28 227.503 346.28 226.196C346.28 224.889 345.925 223.9 345.216 223.228C344.525 222.537 343.489 222.192 342.108 222.192H336.172V230.2ZM362.039 238.18H362.851V240C362.478 240.056 362.067 240.084 361.619 240.084C360.107 240.084 359.295 239.393 359.183 238.012C358.175 239.561 356.607 240.336 354.479 240.336C352.892 240.336 351.642 239.972 350.727 239.244C349.831 238.497 349.383 237.452 349.383 236.108C349.383 233.495 351.166 232.001 354.731 231.628L356.803 231.404C358.315 231.236 359.071 230.573 359.071 229.416C359.071 228.613 358.819 228.035 358.315 227.68C357.83 227.325 356.999 227.148 355.823 227.148C354.572 227.148 353.667 227.363 353.107 227.792C352.566 228.203 352.258 228.94 352.183 230.004H349.943C350.13 226.812 352.09 225.216 355.823 225.216C359.444 225.216 361.255 226.616 361.255 229.416V237.48C361.255 237.947 361.516 238.18 362.039 238.18ZM354.591 238.432C355.786 238.432 356.831 238.068 357.727 237.34C358.623 236.631 359.071 235.613 359.071 234.288V232.58C358.66 232.897 358.026 233.103 357.167 233.196L355.067 233.448C353.854 233.597 352.986 233.877 352.463 234.288C351.959 234.699 351.707 235.287 351.707 236.052C351.707 236.799 351.95 237.387 352.435 237.816C352.92 238.227 353.639 238.432 354.591 238.432ZM366.984 223.368H364.604V220.624H366.984V223.368ZM366.928 240H364.688V225.552H366.928V240ZM381.157 227.624V220.064H383.397V240H381.269V237.76C380.112 239.477 378.46 240.336 376.313 240.336C374.279 240.336 372.655 239.645 371.441 238.264C370.209 236.883 369.593 235.053 369.593 232.776C369.593 230.461 370.209 228.623 371.441 227.26C372.636 225.897 374.26 225.216 376.313 225.216C378.385 225.216 380 226.019 381.157 227.624ZM371.945 232.888C371.945 234.605 372.365 235.94 373.205 236.892C374.045 237.844 375.175 238.32 376.593 238.32C378.012 238.32 379.141 237.825 379.981 236.836C380.821 235.865 381.241 234.512 381.241 232.776C381.241 231.059 380.821 229.705 379.981 228.716C379.141 227.727 378.012 227.232 376.593 227.232C375.193 227.232 374.064 227.745 373.205 228.772C372.365 229.78 371.945 231.152 371.945 232.888Z" fill="#232230"/>
<g filter="url(#filter1_d_181_395)">
<rect x="20.8192" y="86.8064" width="138.181" height="219.464" rx="8" fill="#174184"/>
</g>
<rect x="19.0129" y="85.0001" width="138.181" height="219.464" rx="8" fill="#295AA8"/>
<g clip-path="url(#clip0_181_395)">
<path d="M121.409 296.541H117.462L119.931 281.277H123.878L121.409 296.541Z" fill="white"/>
<path d="M135.717 281.65C134.939 281.341 133.704 281 132.177 281C128.279 281 125.534 283.079 125.518 286.05C125.485 288.243 127.483 289.46 128.977 290.191C130.504 290.938 131.023 291.426 131.023 292.092C131.007 293.114 129.789 293.586 128.653 293.586C127.077 293.586 126.232 293.343 124.949 292.774L124.43 292.53L123.877 295.956C124.803 296.378 126.509 296.752 128.279 296.769C132.421 296.769 135.117 294.723 135.149 291.556C135.165 289.818 134.11 288.487 131.836 287.399C130.455 286.7 129.61 286.229 129.61 285.515C129.626 284.865 130.325 284.2 131.883 284.2C133.166 284.167 134.109 284.475 134.823 284.784L135.18 284.946L135.717 281.65Z" fill="white"/>
<path d="M140.963 291.134C141.288 290.257 142.539 286.863 142.539 286.863C142.522 286.895 142.863 285.97 143.058 285.401L143.334 286.717C143.334 286.717 144.081 290.37 144.244 291.134C143.627 291.134 141.742 291.134 140.963 291.134ZM145.835 281.277H142.782C141.84 281.277 141.125 281.553 140.719 282.543L134.856 296.541H138.998C138.998 296.541 139.68 294.657 139.826 294.251C140.28 294.251 144.309 294.251 144.894 294.251C145.007 294.787 145.365 296.541 145.365 296.541H149.019L145.835 281.277Z" fill="white"/>
<path d="M114.166 281.277L110.3 291.686L109.878 289.575C109.163 287.139 106.922 284.492 104.421 283.176L107.962 296.525H112.135L118.339 281.277H114.166Z" fill="white"/>
<path d="M106.711 281.277H100.361L100.296 281.585C105.249 282.852 108.53 285.905 109.878 289.575L108.497 282.56C108.27 281.585 107.572 281.309 106.711 281.277Z" fill="white"/>
</g>
<path d="M106.647 271.196V264.52H108.903C109.427 264.52 109.855 264.614 110.187 264.803C110.522 264.99 110.77 265.243 110.931 265.563C111.091 265.882 111.172 266.239 111.172 266.632C111.172 267.025 111.091 267.383 110.931 267.704C110.772 268.026 110.526 268.282 110.194 268.474C109.861 268.663 109.435 268.757 108.916 268.757H107.299V268.04H108.89C109.249 268.04 109.536 267.978 109.754 267.854C109.971 267.731 110.129 267.563 110.226 267.352C110.326 267.139 110.376 266.899 110.376 266.632C110.376 266.365 110.326 266.126 110.226 265.915C110.129 265.704 109.97 265.539 109.751 265.419C109.531 265.298 109.24 265.237 108.877 265.237H107.456V271.196H106.647Z" fill="white"/>
<path d="M112.067 271.196H111.219L113.67 264.52H114.505L116.956 271.196H116.109L114.114 265.576H114.062L112.067 271.196ZM112.38 268.588H115.796V269.305H112.38V268.588Z" fill="white"/>
<path d="M116.741 264.52H117.667L119.519 267.636H119.597L121.448 264.52H122.374L119.962 268.444V271.196H119.153V268.444L116.741 264.52Z" fill="white"/>
<path d="M123.42 264.52H124.385L126.653 270.061H126.732L129.001 264.52H129.965V271.196H129.209V266.123H129.144L127.058 271.196H126.327L124.241 266.123H124.176V271.196H123.42V264.52Z" fill="white"/>
<path d="M131.586 271.196V264.52H135.615V265.237H132.395V267.493H135.407V268.21H132.395V270.479H135.668V271.196H131.586Z" fill="white"/>
<path d="M142.367 264.52V271.196H141.584L137.946 265.954H137.881V271.196H137.073V264.52H137.855L141.506 269.774H141.571V264.52H142.367Z" fill="white"/>
<path d="M143.619 265.237V264.52H148.626V265.237H146.527V271.196H145.718V265.237H143.619Z" fill="white"/>
<g clip-path="url(#clip1_181_395)">
<path d="M124.686 130.978C124.456 130.911 124.224 130.638 124.175 130.377C124.143 130.208 124.182 130.09 124.425 129.619C125.408 127.718 125.835 125.968 125.835 123.844C125.835 121.791 125.457 120.194 124.517 118.28C124.316 117.869 124.151 117.488 124.151 117.433C124.151 117.229 124.321 116.934 124.506 116.818C124.759 116.659 125.183 116.689 125.386 116.879C125.464 116.952 125.666 117.285 125.836 117.619C126.509 118.939 126.969 120.387 127.197 121.895C127.337 122.828 127.365 124.596 127.253 125.45C127.045 127.025 126.63 128.431 125.964 129.808C125.561 130.641 125.309 130.983 125.097 130.983C125.055 130.983 124.986 130.994 124.944 131.007C124.902 131.02 124.786 131.006 124.686 130.978ZM121.95 129.546C121.598 129.444 121.344 129.012 121.446 128.688C121.47 128.61 121.636 128.249 121.814 127.887C122.567 126.351 122.88 124.705 122.726 123.089C122.6 121.762 122.362 120.924 121.763 119.699C121.361 118.877 121.342 118.749 121.576 118.418C121.798 118.104 122.353 118.053 122.645 118.32C122.847 118.505 123.475 119.818 123.718 120.561C124.521 123.021 124.398 125.661 123.369 128.078C122.842 129.316 122.472 129.698 121.95 129.546ZM119.128 128.095C118.911 127.997 118.724 127.767 118.673 127.535C118.642 127.394 118.695 127.237 118.953 126.715C119.901 124.796 119.911 122.947 118.984 121.072C118.577 120.249 118.568 120.085 118.913 119.761C119.082 119.6 119.155 119.572 119.393 119.572C119.793 119.572 120.001 119.773 120.358 120.508C120.908 121.637 121.133 122.617 121.132 123.873C121.13 125.163 120.919 126.049 120.332 127.24C119.995 127.922 119.829 128.103 119.492 128.149C119.389 128.163 119.226 128.138 119.128 128.095ZM116.495 126.742C116.323 126.671 116.126 126.437 116.068 126.233C116.003 126.005 116.056 125.824 116.315 125.399C116.647 124.852 116.725 124.559 116.725 123.844C116.725 123.129 116.647 122.836 116.315 122.289C116.202 122.103 116.089 121.881 116.063 121.795C115.956 121.435 116.256 120.993 116.66 120.917C117.002 120.853 117.237 121.006 117.551 121.496C118.462 122.918 118.462 124.816 117.551 126.225C117.229 126.722 116.871 126.898 116.495 126.742Z" fill="white"/>
</g>
<rect x="110.206" y="109.635" width="27.949" height="19.8207" rx="3.75" transform="rotate(90 110.206 109.635)" fill="url(#paint3_linear_181_395)" stroke="#686C73" stroke-width="0.5"/>
<path fill-rule="evenodd" clip-rule="evenodd" d="M110.407 119.722L106.52 123.61L110.407 127.497L110.054 127.85L106.063 123.86H103.683C103.545 123.86 103.433 123.748 103.433 123.61V119.795H97.159V123.61V127.424H103.683C103.821 127.424 103.933 127.536 103.933 127.674V137.834H103.433V127.924H97.159V137.834H96.659V123.86H94.5289L90.538 127.85L90.1845 127.497L94.0718 123.61L90.1845 119.722L90.538 119.369L94.5289 123.36H96.659V109.385H97.159V119.295H103.433V109.385H103.933V123.36H106.063L110.054 119.369L110.407 119.722Z" fill="#686C73"/>
<rect x="19" y="85.0001" width="138.181" height="219.464" rx="8" fill="url(#paint4_linear_181_395)"/>
<path fill-rule="evenodd" clip-rule="evenodd" d="M47.3147 296.896C51.5395 296.896 54.9644 293.471 54.9644 289.246C54.9644 285.021 51.5395 281.597 47.3147 281.597C44.8123 281.597 42.5905 282.798 41.1949 284.656C39.7992 282.798 37.5775 281.597 35.0752 281.597C30.8504 281.597 27.4255 285.022 27.4255 289.246C27.4255 293.471 30.8504 296.896 35.0752 296.896C37.5776 296.896 39.7994 295.695 41.195 293.837C42.5907 295.694 44.8124 296.896 47.3147 296.896ZM41.195 293.837C42.1556 292.558 42.7249 290.969 42.7249 289.246C42.7249 287.524 42.1556 285.934 41.1949 284.656C40.2342 285.934 39.665 287.524 39.665 289.246C39.665 290.969 40.2343 292.558 41.195 293.837Z" fill="white"/>
<defs>
<filter id="filter0_d_181_395" x="249" y="0.936646" width="220" height="419.139" filterUnits="userSpaceOnUse" color-interpolation-filters="sRGB">
<feFlood flood-opacity="0" result="BackgroundImageFix"/>
<feColorMatrix in="SourceAlpha" type="matrix" values="0 0 0 0 0 0 0 0 0 0 0 0 0 0 0 0 0 0 127 0" result="hardAlpha"/>
<feOffset dy="10"/>
<feGaussianBlur stdDeviation="10"/>
<feComposite in2="hardAlpha" operator="out"/>
<feColorMatrix type="matrix" values="0 0 0 0 0.0901961 0 0 0 0 0.254902 0 0 0 0 0.517647 0 0 0 0.25 0"/>
<feBlend mode="normal" in2="BackgroundImageFix" result="effect1_dropShadow_181_395"/>
<feBlend mode="normal" in="SourceGraphic" in2="effect1_dropShadow_181_395" result="shape"/>
</filter>
<filter id="filter1_d_181_395" x="0.819214" y="76.8064" width="178.181" height="259.464" filterUnits="userSpaceOnUse" color-interpolation-filters="sRGB">
<feFlood flood-opacity="0" result="BackgroundImageFix"/>
<feColorMatrix in="SourceAlpha" type="matrix" values="0 0 0 0 0 0 0 0 0 0 0 0 0 0 0 0 0 0 127 0" result="hardAlpha"/>
<feOffset dy="10"/>
<feGaussianBlur stdDeviation="10"/>
<feColorMatrix type="matrix" values="0 0 0 0 0.0901961 0 0 0 0 0.254902 0 0 0 0 0.517647 0 0 0 0.25 0"/>
<feBlend mode="normal" in2="BackgroundImageFix" result="effect1_dropShadow_181_395"/>
<feBlend mode="normal" in="SourceGraphic" in2="effect1_dropShadow_181_395" result="shape"/>
</filter>
<linearGradient id="paint0_linear_181_395" x1="359" y1="15.4936" x2="359" y2="385.519" gradientUnits="userSpaceOnUse">
<stop stop-color="#232230"/>
<stop offset="1" stop-color="#3F3D56"/>
</linearGradient>
<radialGradient id="paint1_radial_181_395" cx="0" cy="0" r="1" gradientUnits="userSpaceOnUse" gradientTransform="translate(359 178) rotate(90) scale(24)">
<stop offset="0.8125" stop-color="#1CE69D" stop-opacity="0"/>
<stop offset="1" stop-color="#1CE69D"/>
</radialGradient>
<radialGradient id="paint2_radial_181_395" cx="0" cy="0" r="1" gradientUnits="userSpaceOnUse" gradientTransform="translate(359 178) rotate(90) scale(32)">
<stop offset="0.838542" stop-color="#1CE69D" stop-opacity="0"/>
<stop offset="1" stop-color="#1CE69D"/>
</radialGradient>
<linearGradient id="paint3_linear_181_395" x1="110.456" y1="109.611" x2="139.357" y2="129.48" gradientUnits="userSpaceOnUse">
<stop stop-color="#F3F4F8"/>
<stop offset="1" stop-color="#F8F8FF"/>
</linearGradient>
<linearGradient id="paint4_linear_181_395" x1="19" y1="304.464" x2="157.181" y2="85.0001" gradientUnits="userSpaceOnUse">
<stop stop-color="white" stop-opacity="0.33"/>
<stop offset="0.390033" stop-color="white" stop-opacity="0.2"/>
<stop offset="1" stop-color="white" stop-opacity="0"/>
</linearGradient>
<clipPath id="clip0_181_395">
<rect width="48.7697" height="15.7856" fill="white" transform="translate(100.296 281)"/>
</clipPath>
<clipPath id="clip1_181_395">
<rect width="11.3538" height="14.4503" fill="white" transform="translate(116.037 116.61)"/>
</clipPath>
</defs>
</svg>
