<svg width="32" height="32" viewBox="0 0 32 32" fill="none" xmlns="http://www.w3.org/2000/svg">
<path fill-rule="evenodd" clip-rule="evenodd" d="M16.0001 24.5327C20.713 24.5327 24.5335 20.7123 24.5335 15.9994C24.5335 11.2866 20.713 7.46608 16.0001 7.46608C11.2873 7.46608 7.46681 11.2866 7.46681 15.9994C7.46681 20.7123 11.2873 24.5327 16.0001 24.5327ZM16.0001 25.5994C21.3021 25.5994 25.6001 21.3013 25.6001 15.9994C25.6001 10.6975 21.3021 6.39941 16.0001 6.39941C10.6982 6.39941 6.40015 10.6975 6.40015 15.9994C6.40015 21.3013 10.6982 25.5994 16.0001 25.5994Z" fill="#174184"/>
<path fill-rule="evenodd" clip-rule="evenodd" d="M16.0002 27.7335C22.4804 27.7335 27.7335 22.4804 27.7335 16.0002C27.7335 9.52003 22.4804 4.26686 16.0002 4.26686C9.52003 4.26686 4.26686 9.52003 4.26686 16.0002C4.26686 22.4804 9.52003 27.7335 16.0002 27.7335ZM16.0002 28.8002C23.0694 28.8002 28.8002 23.0694 28.8002 16.0002C28.8002 8.93097 23.0694 3.2002 16.0002 3.2002C8.93097 3.2002 3.2002 8.93097 3.2002 16.0002C3.2002 23.0694 8.93097 28.8002 16.0002 28.8002Z" fill="#295AA8"/>
<path fill-rule="evenodd" clip-rule="evenodd" d="M16 30.9333C24.2475 30.9333 30.9333 24.2475 30.9333 16C30.9333 7.75253 24.2475 1.06667 16 1.06667C7.75253 1.06667 1.06667 7.75253 1.06667 16C1.06667 24.2475 7.75253 30.9333 16 30.9333ZM16 32C24.8365 32 32 24.8365 32 16C32 7.16347 24.8365 0 16 0C7.16347 0 0 7.16347 0 16C0 24.8365 7.16347 32 16 32Z" fill="#174184"/>
</svg>
