<svg width="64" height="64" viewBox="0 0 64 64" fill="none" xmlns="http://www.w3.org/2000/svg">
<rect width="64" height="64" rx="4" fill="white"/>
<g clip-path="url(#clip0_1422_3893)">
<path d="M22.4002 19.1992H19.2002V22.3992H22.4002V19.1992Z" fill="#3F3D56"/>
<path d="M38.3998 16V17.6H36.7998V19.2H38.3998V25.6H39.9998V27.2H38.3998V28.8H39.9998H41.5998V25.6H46.3998V27.2H47.9998V25.6V16H38.3998ZM46.3998 24H39.9998V17.6H46.3998V24Z" fill="#3F3D56"/>
<path d="M44.7996 19.1992H41.5996V22.3992H44.7996V19.1992Z" fill="#3F3D56"/>
<path d="M22.4002 41.6016H19.2002V44.8016H22.4002V41.6016Z" fill="#3F3D56"/>
<path d="M40.0004 38.3984H38.4004V39.9984H40.0004V38.3984Z" fill="#3F3D56"/>
<path d="M32.0004 46.3984H30.4004V47.9984H32.0004V46.3984Z" fill="#3F3D56"/>
<path d="M33.6 40H32V41.6H33.6V40Z" fill="#3F3D56"/>
<path d="M33.6 43.1992H32V44.7992H33.6V43.1992Z" fill="#3F3D56"/>
<path d="M48.0004 35.1992H46.4004V36.7992H48.0004V35.1992Z" fill="#3F3D56"/>
<path d="M17.6 35.1992H16V36.7992H17.6V35.1992Z" fill="#3F3D56"/>
<path d="M17.6 27.1992H16V28.7992H17.6V27.1992Z" fill="#3F3D56"/>
<path d="M33.6004 17.6016V19.2016H30.4004V20.8016H35.2004V19.2016V17.6016H33.6004Z" fill="#3F3D56"/>
<path d="M46.4002 28.8008V30.4008H43.2002V32.0008H38.4002V30.4008H36.8002V32.0008H33.6002V33.6008H38.4002V35.2008H35.2002H33.6002V33.6008H32.0002V35.2008H30.4002V33.6008H28.8002V35.2008H27.2002V36.8008H30.4002V38.4008H32.0002V36.8008H35.2002V38.4008H33.6002V40.0008H35.2002V43.2008H36.8002V44.8008H38.4002V43.2008H43.2002V40.0008H44.8002V38.4008H43.2002V35.2008H40.0002V33.6008H43.2002V35.2008H44.8002V33.6008H46.4002V32.0008H48.0002V30.4008V28.8008H46.4002ZM41.6002 36.8008V41.6008H36.8002V36.8008H41.6002Z" fill="#3F3D56"/>
<path d="M36.7996 25.6016H35.1996V27.2016H33.5996V28.8016V30.4016H35.1996V28.8016H36.7996V27.2016H38.3996V25.6016H36.7996Z" fill="#3F3D56"/>
<path d="M36.7996 46.3984H33.5996V47.9984H36.7996V46.3984Z" fill="#3F3D56"/>
<path d="M30.3998 17.6016H28.7998V19.2016H30.3998V17.6016Z" fill="#3F3D56"/>
<path d="M43.1996 28.8008H41.5996V30.4008H43.1996V28.8008Z" fill="#3F3D56"/>
<path d="M44.8002 27.1992H43.2002V28.7992H44.8002V27.1992Z" fill="#3F3D56"/>
<path d="M24.0004 35.1992H22.4004V36.7992H24.0004V35.1992Z" fill="#3F3D56"/>
<path d="M25.6 46.4008V40.0008H27.2V38.4008V36.8008H25.6V38.4008H20.8V36.8008H19.2H17.6V38.4008H16V48.0008H25.6H28.8V46.4008H25.6ZM24 46.4008H17.6V40.0008H24V46.4008Z" fill="#3F3D56"/>
<path d="M27.1996 25.6016H25.5996V27.2016H27.1996V25.6016Z" fill="#3F3D56"/>
<path d="M27.2 16H25.6H16V25.6H17.6V27.2H19.2V25.6H20.8V27.2H22.4V25.6H25.6V22.4H27.2V20.8H25.6V17.6H27.2H28.8V16H27.2ZM24 24H17.6V17.6H24V24Z" fill="#3F3D56"/>
<path d="M36.8002 20.8008H35.2002V22.4008H36.8002V20.8008Z" fill="#3F3D56"/>
<path d="M33.6 16H32V17.6H33.6V16Z" fill="#3F3D56"/>
<path d="M35.2 25.5984V23.9984H33.6V22.3984H32V23.9984H28.8V22.3984H27.2V23.9984V25.5984H28.8V28.7984H24V27.1984H22.4V28.7984H17.6V30.3984H20.8V31.9984H16V33.5984H20.8V35.1984H22.4V33.5984H24V35.1984H25.6V33.5984H28.8V31.9984H27.2V30.3984H28.8H30.4V31.9984H32H33.6V30.3984H32V28.7984H30.4V25.5984H35.2ZM25.6 31.9984H22.4V30.3984H25.6V31.9984Z" fill="#3F3D56"/>
<path d="M30.4002 41.5984V39.9984V38.3984H28.8002V39.9984H27.2002V41.5984H28.8002V43.1984H27.2002V44.7984H30.4002V43.1984H32.0002V41.5984H30.4002Z" fill="#3F3D56"/>
<path d="M44.8004 44.7992V43.1992H43.2004V44.7992H38.4004V46.3992H41.6004V47.9992H43.2004V46.3992H46.4004V47.9992H48.0004V46.3992V44.7992H44.8004Z" fill="#3F3D56"/>
<path d="M46.3998 38.3984V39.9984H44.7998V41.5984H47.9998V39.9984V38.3984H46.3998Z" fill="#3F3D56"/>
</g>
<circle cx="45.999" cy="18" r="6" fill="#1CE69D"/>
<g clip-path="url(#clip1_1422_3893)">
<path fill-rule="evenodd" clip-rule="evenodd" d="M48.5253 16.4173C48.6303 16.5092 48.6398 16.6692 48.5464 16.7728L45.9179 19.6903C45.8241 19.7945 45.6629 19.8011 45.5608 19.705L44.0398 18.2731C43.945 18.1838 43.9359 18.035 44.0173 17.9333C44.1071 17.821 44.2743 17.8056 44.3812 17.9017L45.5613 18.9632C45.6638 19.0554 45.8217 19.0472 45.9141 18.9447L48.175 16.438C48.2665 16.3366 48.4225 16.3274 48.5253 16.4173Z" fill="white"/>
</g>
<path d="M8 24.3431V8.73075C8 8.3273 8.3273 8 8.73075 8H24.3427C24.7462 8 25.0735 8.3273 25.0735 8.73075C25.0735 9.1342 24.7462 9.4615 24.3427 9.4615H9.4615V24.3431C9.4615 24.7466 9.1342 25.0739 8.73075 25.0739C8.3273 25.0739 8 24.7466 8 24.3431ZM39.6578 9.4615H54.5385V24.3431C54.5385 24.7466 54.8658 25.0739 55.2692 25.0739C55.6727 25.0739 56 24.7466 56 24.3431V8.73075C56 8.3273 55.6727 8 55.2692 8H39.6578C39.2544 8 38.9271 8.3273 38.9271 8.73075C38.9271 9.1342 39.2544 9.4615 39.6578 9.4615ZM24.3426 54.5385H9.4615V39.6578C9.4615 39.2544 9.1342 38.9271 8.73075 38.9271C8.3273 38.9271 8 39.2544 8 39.6578V55.2692C8 55.6727 8.3273 56 8.73075 56H24.3427C24.7462 56 25.0735 55.6727 25.0735 55.2692C25.0735 54.8658 24.7461 54.5385 24.3426 54.5385ZM55.2692 38.9271C54.8658 38.9271 54.5385 39.2544 54.5385 39.6578V54.5385H39.6578C39.2544 54.5385 38.9271 54.8658 38.9271 55.2692C38.9271 55.6727 39.2544 56 39.6578 56H55.2692C55.6727 56 56 55.6727 56 55.2692V39.6578C56 39.2544 55.6727 38.9271 55.2692 38.9271Z" fill="#C5CFE0" fill-opacity="0.7"/>
<defs>
<clipPath id="clip0_1422_3893">
<rect width="32" height="32" fill="white" transform="translate(16 16)"/>
</clipPath>
<clipPath id="clip1_1422_3893">
<rect width="6" height="6" fill="white" transform="translate(43.3721 15.0039)"/>
</clipPath>
</defs>
</svg>
