<svg width="108" height="84" viewBox="0 0 108 84" fill="none" xmlns="http://www.w3.org/2000/svg">
<g filter="url(#filter0_d_474_9051)">
<rect x="20" y="54" width="44" height="68" rx="2" transform="rotate(-90 20 54)" fill="#174184"/>
</g>
<rect x="18" y="52" width="44" height="68" rx="2" transform="rotate(-90 18 52)" fill="#295AA8"/>
<rect x="18" y="52" width="44" height="68" rx="2" transform="rotate(-90 18 52)" fill="url(#paint0_linear_474_9051)"/>
<path d="M59.2076 29.6988C58.4657 29.0469 57.5701 28.7284 56.5346 28.7284C55.5133 28.7284 54.6177 29.0475 53.8753 29.6988C53.1333 30.3364 52.7563 31.2241 52.7563 32.3611C52.7563 33.4981 53.1333 34.3852 53.8753 35.037C54.6172 35.6747 55.5133 35.9938 56.5346 35.9938C57.5701 35.9938 58.4657 35.6747 59.2076 35.037C59.9638 34.3852 60.3408 33.4981 60.3408 32.3611C60.3408 31.224 59.9633 30.3365 59.2076 29.6988ZM55.1358 33.8167C54.7444 33.4426 54.5475 32.9569 54.5475 32.3611C54.5475 31.7648 54.7429 31.2796 55.1358 30.9191C55.527 30.545 55.9896 30.3647 56.534 30.3647C57.079 30.3647 57.5553 30.545 57.9472 30.9191C58.3522 31.2796 58.5491 31.7648 58.5491 32.3611C58.5491 32.9574 58.3537 33.4426 57.9471 33.8167C57.5558 34.1771 57.0795 34.3574 56.534 34.3574C55.9896 34.3574 55.5281 34.1772 55.1358 33.8167ZM62.9869 35.7992V26.2849H61.2238V35.7992H62.9869ZM68.6783 28.9221V32.7183C68.6783 33.6331 68.1793 34.2394 67.2293 34.2394C66.2635 34.2394 65.7776 33.6337 65.7776 32.7183V28.9221H64.0113V33.0096C64.0113 34.5931 65.0188 35.9931 67.2293 35.9931H67.2428C69.4399 35.9931 70.4457 34.5622 70.4457 33.0096V28.9221H68.6783ZM50.8793 28.9221L49.1161 33.5807L47.3529 28.9221H45.4778L48.2913 35.7993H49.9431L52.756 28.9221H50.8793ZM45.4869 32.1667C45.4869 31.1685 45.1653 30.3506 44.5354 29.6988C43.9053 29.0469 43.0948 28.7284 42.101 28.7284C41.0797 28.7284 40.2116 29.0752 39.4976 29.7543C38.7974 30.4339 38.4484 31.2932 38.4484 32.3611C38.4484 33.4289 38.798 34.3024 39.4839 34.9815C40.1841 35.6611 41.0237 35.9938 42.017 35.9938C43.5431 35.9938 44.6203 35.3284 45.2767 33.9833L43.9618 33.2345C43.5288 34.0803 42.8984 34.4962 42.045 34.4962C40.9958 34.4962 40.2538 33.8308 40.1419 32.7771H45.4864V32.1667H45.4869ZM42.044 30.0593C43.0373 30.0593 43.6957 30.6136 43.8631 31.5013H40.1408C40.4075 30.6833 41.1341 30.0593 42.044 30.0593ZM38.4484 35.7993L36.0827 31.6956C37.5793 31.1548 38.3212 30.2122 38.3212 28.8394C38.3228 27.1616 36.9783 26.0938 34.8376 26.0938H30.6543V35.7993H32.5015V31.8617H34.0693L36.3357 35.7993H38.4484ZM34.8376 27.7018C35.9291 27.7018 36.4751 28.1315 36.4751 28.9772C36.4751 29.8229 35.9286 30.2525 34.8376 30.2525H32.5015V27.7018H34.8376ZM73.4348 35.9932C72.2999 35.9932 71.3796 35.0809 71.3796 33.9549V27.0642H73.1425V28.9248H74.6543V30.339H73.1425V33.8428C73.1425 34.1729 73.4124 34.4401 73.7461 34.4401H74.6543V35.9932H73.4348Z" fill="white"/>
<defs>
<filter id="filter0_d_474_9051" x="0" y="0" width="108" height="84" filterUnits="userSpaceOnUse" color-interpolation-filters="sRGB">
<feFlood flood-opacity="0" result="BackgroundImageFix"/>
<feColorMatrix in="SourceAlpha" type="matrix" values="0 0 0 0 0 0 0 0 0 0 0 0 0 0 0 0 0 0 127 0" result="hardAlpha"/>
<feOffset dy="10"/>
<feGaussianBlur stdDeviation="10"/>
<feColorMatrix type="matrix" values="0 0 0 0 0.0901961 0 0 0 0 0.254902 0 0 0 0 0.517647 0 0 0 0.25 0"/>
<feBlend mode="normal" in2="BackgroundImageFix" result="effect1_dropShadow_474_9051"/>
<feBlend mode="normal" in="SourceGraphic" in2="effect1_dropShadow_474_9051" result="shape"/>
</filter>
<linearGradient id="paint0_linear_474_9051" x1="18" y1="120" x2="60.2998" y2="50.9583" gradientUnits="userSpaceOnUse">
<stop stop-color="white" stop-opacity="0.33"/>
<stop offset="0.390033" stop-color="white" stop-opacity="0.2"/>
<stop offset="1" stop-color="white" stop-opacity="0"/>
</linearGradient>
</defs>
</svg>
