<svg width="250" height="250" viewBox="0 0 250 250" fill="none" xmlns="http://www.w3.org/2000/svg">
<path opacity="0.08" fill-rule="evenodd" clip-rule="evenodd" d="M125 191.667C161.819 191.667 191.666 161.819 191.666 125C191.666 88.1808 161.819 58.3333 125 58.3333C88.1803 58.3333 58.3328 88.1808 58.3328 125C58.3328 161.819 88.1803 191.667 125 191.667ZM125 200C166.421 200 200 166.421 200 125C200 83.5788 166.421 50 125 50C83.5783 50 49.9995 83.5788 49.9995 125C49.9995 166.421 83.5783 200 125 200Z" fill="#174184"/>
<path opacity="0.05" fill-rule="evenodd" clip-rule="evenodd" d="M125 216.85C175.728 216.85 216.85 175.727 216.85 125C216.85 74.2723 175.728 33.1498 125 33.1498C74.2728 33.1498 33.1503 74.2723 33.1503 125C33.1503 175.727 74.2728 216.85 125 216.85ZM125 225.2C180.339 225.2 225.2 180.339 225.2 125C225.2 69.661 180.339 24.7998 125 24.7998C69.6615 24.7998 24.8003 69.661 24.8003 125C24.8003 180.339 69.6615 225.2 125 225.2Z" fill="#295AA8"/>
<path opacity="0.02" fill-rule="evenodd" clip-rule="evenodd" d="M125 241.667C189.433 241.667 241.667 189.433 241.667 125C241.667 60.5667 189.433 8.33333 125 8.33333C60.5667 8.33333 8.33333 60.5667 8.33333 125C8.33333 189.433 60.5667 241.667 125 241.667ZM125 250C194.035 250 250 194.035 250 125C250 55.9646 194.035 0 125 0C55.9646 0 0 55.9646 0 125C0 194.035 55.9646 250 125 250Z" fill="#174184"/>
</svg>
