<svg width="7" height="4" viewBox="0 0 7 4" fill="none" xmlns="http://www.w3.org/2000/svg">
<path fill-rule="evenodd" clip-rule="evenodd" d="M7 0.5C7 0.223858 6.77614 -9.78463e-09 6.5 -2.18557e-08C6.22386 -3.39268e-08 6 0.223858 6 0.5L6 3.5C6 3.77614 6.22386 4 6.5 4C6.77614 4 7 3.77614 7 3.5L7 0.5ZM3 0.5C3 0.223857 3.22386 -1.6506e-07 3.5 -1.52989e-07C3.77614 -1.40918e-07 4 0.223857 4 0.5L4 3.5C4 3.77614 3.77614 4 3.5 4C3.22386 4 3 3.77614 3 3.5L3 0.5ZM-2.18557e-08 0.5C-9.78513e-09 0.223857 0.223857 -2.96194e-07 0.5 -2.84124e-07C0.776143 -2.72054e-07 1 0.223857 1 0.5L1 3.5C1 3.77614 0.776142 4 0.5 4C0.223857 4 -1.6506e-07 3.77614 -1.5299e-07 3.5L-2.18557e-08 0.5Z" fill="#C5CFE0"/>
</svg>
