<svg width="34" height="300" viewBox="0 0 34 300" fill="none" xmlns="http://www.w3.org/2000/svg">
<rect x="18" y="300" width="300" height="1" transform="rotate(-90 18 300)" fill="#C5CFE0"/>
<rect width="34" height="31" transform="translate(0 135.5)" fill="white"/>
<path d="M17.1103 151.136C17.1103 152.077 16.9341 152.882 16.5819 153.553C16.2324 154.22 15.7551 154.732 15.15 155.087C14.5478 155.442 13.8645 155.619 13.1003 155.619C12.3361 155.619 11.6515 155.442 11.0463 155.087C10.4441 154.729 9.9668 154.216 9.61452 153.548C9.26509 152.878 9.09038 152.074 9.09038 151.136C9.09038 150.196 9.26509 149.392 9.61452 148.724C9.9668 148.054 10.4441 147.541 11.0463 147.186C11.6515 146.831 12.3361 146.653 13.1003 146.653C13.8645 146.653 14.5478 146.831 15.15 147.186C15.7551 147.541 16.2324 148.054 16.5819 148.724C16.9341 149.392 17.1103 150.196 17.1103 151.136ZM15.5208 151.136C15.5208 150.474 15.4171 149.916 15.2097 149.462C15.0051 149.004 14.7211 148.659 14.3574 148.426C13.9938 148.19 13.5748 148.072 13.1003 148.072C12.6259 148.072 12.2069 148.19 11.8432 148.426C11.4796 148.659 11.1941 149.004 10.9867 149.462C10.7821 149.916 10.6799 150.474 10.6799 151.136C10.6799 151.798 10.7821 152.358 10.9867 152.815C11.1941 153.27 11.4796 153.615 11.8432 153.851C12.2069 154.084 12.6259 154.2 13.1003 154.2C13.5748 154.2 13.9938 154.084 14.3574 153.851C14.7211 153.615 15.0051 153.27 15.2097 152.815C15.4171 152.358 15.5208 151.798 15.5208 151.136ZM18.6049 155.5V146.773H21.8777C22.5481 146.773 23.1106 146.889 23.5652 147.122C24.0226 147.355 24.3677 147.682 24.6007 148.102C24.8365 148.52 24.9544 149.007 24.9544 149.564C24.9544 150.124 24.8351 150.609 24.5964 151.021C24.3606 151.43 24.0126 151.747 23.5524 151.972C23.0922 152.193 22.5268 152.304 21.8564 152.304H19.5254V150.991H21.6433C22.0353 150.991 22.3564 150.937 22.6064 150.83C22.8564 150.719 23.041 150.558 23.1603 150.348C23.2825 150.135 23.3436 149.874 23.3436 149.564C23.3436 149.254 23.2825 148.99 23.1603 148.771C23.0382 148.55 22.8521 148.382 22.6021 148.268C22.3521 148.152 22.0297 148.094 21.6348 148.094H20.1859V155.5H18.6049ZM23.1135 151.545L25.274 155.5H23.5098L21.3876 151.545H23.1135Z" fill="#C5CFE0"/>
</svg>
