<svg width="355" height="31" viewBox="0 0 355 31" fill="none" xmlns="http://www.w3.org/2000/svg">
<rect y="15" width="355" height="0.999985" fill="#C5CFE0"/>
<rect width="31" height="34" transform="translate(194) rotate(90)" fill="white"/>
<path d="M177.11 15.6364C177.11 16.5767 176.934 17.3821 176.582 18.0526C176.232 18.7202 175.755 19.2315 175.15 19.5866C174.548 19.9418 173.865 20.1193 173.1 20.1193C172.336 20.1193 171.651 19.9418 171.046 19.5866C170.444 19.2287 169.967 18.7159 169.615 18.0483C169.265 17.3778 169.09 16.5739 169.09 15.6364C169.09 14.696 169.265 13.892 169.615 13.2244C169.967 12.554 170.444 12.0412 171.046 11.6861C171.651 11.331 172.336 11.1534 173.1 11.1534C173.865 11.1534 174.548 11.331 175.15 11.6861C175.755 12.0412 176.232 12.554 176.582 13.2244C176.934 13.892 177.11 14.696 177.11 15.6364ZM175.521 15.6364C175.521 14.9744 175.417 14.4162 175.21 13.9616C175.005 13.5043 174.721 13.1591 174.357 12.9261C173.994 12.6903 173.575 12.5724 173.1 12.5724C172.626 12.5724 172.207 12.6903 171.843 12.9261C171.48 13.1591 171.194 13.5043 170.987 13.9616C170.782 14.4162 170.68 14.9744 170.68 15.6364C170.68 16.2983 170.782 16.858 170.987 17.3153C171.194 17.7699 171.48 18.1151 171.843 18.3509C172.207 18.5838 172.626 18.7003 173.1 18.7003C173.575 18.7003 173.994 18.5838 174.357 18.3509C174.721 18.1151 175.005 17.7699 175.21 17.3153C175.417 16.858 175.521 16.2983 175.521 15.6364ZM178.605 20V11.2727H181.878C182.548 11.2727 183.111 11.3892 183.565 11.6222C184.023 11.8551 184.368 12.1818 184.601 12.6023C184.836 13.0199 184.954 13.5071 184.954 14.0639C184.954 14.6236 184.835 15.1094 184.596 15.5213C184.361 15.9304 184.013 16.2472 183.552 16.4716C183.092 16.6932 182.527 16.804 181.856 16.804H179.525V15.4915H181.643C182.035 15.4915 182.356 15.4375 182.606 15.3295C182.856 15.2187 183.041 15.0582 183.16 14.848C183.282 14.6349 183.344 14.3736 183.344 14.0639C183.344 13.7543 183.282 13.4901 183.16 13.2713C183.038 13.0497 182.852 12.8821 182.602 12.7685C182.352 12.652 182.03 12.5938 181.635 12.5938H180.186V20H178.605ZM183.113 16.0455L185.274 20H183.51L181.388 16.0455H183.113Z" fill="#C5CFE0"/>
</svg>
