<svg width="108" height="84" viewBox="0 0 108 84" fill="none" xmlns="http://www.w3.org/2000/svg">
<g filter="url(#filter0_d_474_9021)">
<rect x="20" y="54" width="44" height="68" rx="2" transform="rotate(-90 20 54)" fill="#174184"/>
</g>
<rect x="18" y="52" width="44" height="68" rx="2" transform="rotate(-90 18 52)" fill="#295AA8"/>
<rect x="18" y="52" width="44" height="68" rx="2" transform="rotate(-90 18 52)" fill="url(#paint0_linear_474_9021)"/>
<path d="M44.8813 28.9453H43.2637V30.7255H44.8813V30.7257C45.5217 30.7257 45.9667 30.4979 45.9667 29.8573C45.9667 29.1733 45.4891 28.9453 44.8813 28.9453Z" fill="white"/>
<path d="M44.8252 26.1562H43.2617V27.6433H44.8252C45.1725 27.6433 45.65 27.4587 45.65 26.9052C45.65 26.3408 45.2483 26.1562 44.8252 26.1562Z" fill="white"/>
<path d="M52.2193 26.7422H52.1976L51.3184 29.4562H53.0769L52.2193 26.7422Z" fill="white"/>
<path d="M39.2771 35.0723H38.1709V36.2758H39.3368C39.7554 36.2758 39.9797 36.0516 39.9797 35.6481C39.9797 35.252 39.6658 35.0723 39.2771 35.0723Z" fill="white"/>
<path d="M44.3371 35.4395H44.3223L43.7168 37.3084H44.9278L44.3371 35.4395Z" fill="white"/>
<path d="M70.1502 35.0723H69.0439V36.2758H70.2102C70.6287 36.2758 70.8528 36.0516 70.8528 35.6481C70.8529 35.252 70.539 35.0723 70.1502 35.0723Z" fill="white"/>
<path d="M73.8164 38.5553C73.8027 38.4574 73.7899 38.3039 73.7783 38.0971C73.7758 38.053 73.7738 38.0151 73.7716 37.9854C73.771 37.9748 73.7701 37.9645 73.7691 37.954C73.731 37.5198 73.6434 37.1548 73.5238 36.8476C73.7248 36.4312 73.8351 35.9594 73.8351 35.4617C73.8351 34.731 73.6058 34.0891 73.2003 33.5819C73.3663 33.4481 73.5067 33.28 73.6094 33.0846C73.8848 32.562 73.8479 31.93 73.5139 31.443L71.0142 27.7988L72.9908 25.6947C73.2658 25.4087 73.4349 25.0202 73.4349 24.5921C73.4349 23.7133 72.7227 23.0009 71.8439 23.0009H71.8435H69.3358C68.8714 23.0009 68.4303 23.2037 68.128 23.5562L68.058 23.6377C67.7678 23.251 67.3054 23.0009 66.7848 23.0009H64.7656C64.5185 23.0009 64.2854 23.059 64.0767 23.1594C63.8681 23.0589 63.635 23.0009 63.3878 23.0009H61.4878C60.9139 23.0009 60.4108 23.3048 60.1309 23.7607C59.8425 23.2898 59.329 23.0009 58.7742 23.0009H56.7006C55.8219 23.0009 55.1093 23.7133 55.1093 24.5921V25.0523L54.7289 24.0348C54.4963 23.413 53.9022 23.0009 53.2383 23.0009H51.1869C50.523 23.0009 49.929 23.4131 49.6962 24.0348L49.1321 25.5436C48.9049 24.7109 48.3823 24.0346 47.603 23.5911C46.9139 23.1989 46.0326 23 44.9837 23H44.9835C44.9415 23 44.8993 23.0003 44.8574 23.001H41.2438C41.0249 23.001 40.8166 23.0452 40.6268 23.1251C40.4364 23.0447 40.227 23.0001 40.0075 23.0001H31.5912C30.7124 23.0001 30 23.7125 30 24.5913V26.2765C30 26.5178 30.0551 26.7456 30.1513 26.9506C30.0553 27.1555 30 27.3834 30 27.6247V29.3099C30 29.5511 30.0551 29.7789 30.1513 29.984C30.0553 30.189 30 30.4167 30 30.658V32.3431C30 32.6385 30.0818 32.9142 30.2221 33.1511C30.0819 33.3881 30 33.6638 30 33.9592V35.1552C30 36.034 30.7124 36.7465 31.5912 36.7465H31.5923V39.2967C31.5923 40.1755 32.3049 40.8879 33.1835 40.8879H34.5738C35.0023 40.8879 35.3905 40.7176 35.6766 40.4423C35.9627 40.7177 36.3507 40.8879 36.7793 40.8879H38.17C38.546 40.8879 38.8917 40.7574 39.1641 40.5392C39.4425 40.7621 39.7921 40.8879 40.1582 40.8879H41.534C41.5541 40.8879 41.5741 40.8864 41.5942 40.8855C41.6065 40.8858 41.6185 40.8879 41.631 40.8879H43.059C43.5633 40.8879 44.0266 40.6501 44.3223 40.2644C44.6178 40.65 45.0808 40.8879 45.5853 40.8879H47.0357C47.1024 40.8879 47.1683 40.8836 47.2335 40.8754C47.2963 40.883 47.3597 40.8879 47.4245 40.8879H48.7328C49.0821 40.8879 49.405 40.7753 49.6674 40.5847C49.9347 40.7785 50.2602 40.8879 50.6019 40.8879H52.0296C52.3848 40.8879 52.7118 40.7702 52.9765 40.5734C53.548 40.8489 54.228 41 54.9899 41C55.7568 41 56.4531 40.8565 57.0357 40.5862C57.2974 40.7752 57.6176 40.8878 57.9651 40.8878H59.3558C60.2165 40.8878 60.916 40.2038 60.9444 39.3499C60.9728 40.2038 61.672 40.8878 62.5329 40.8878H66.8613C66.9985 40.8878 67.1306 40.8686 67.2575 40.836C67.3843 40.8687 67.5165 40.8878 67.6537 40.8878H69.0442C69.4204 40.8878 69.7661 40.7573 70.0385 40.539C70.3169 40.7619 70.6665 40.8878 71.0326 40.8878H72.4082C73.046 40.8878 73.6221 40.5068 73.8723 39.92C74.0629 39.4728 74.0358 38.9719 73.8164 38.5553ZM31.5912 26.0334V24.5914H39.6524H40.0074V26.2766H31.5912V26.0334ZM31.5912 29.0667V27.868V27.6247H40.0074V29.3099H31.5912V29.0667ZM31.5912 30.901V30.6577H40.0074V32.3428H39.6524H31.5912V30.901ZM36.1663 35.1552H35.1879H34.5738V39.2967H33.1835V35.1552H31.5912V33.9592H35.1879H36.1663V35.1552ZM40.1581 39.2969V39.2968C40.1173 39.2357 40.0882 39.1343 40.0664 39.0216C40.0664 39.0213 40.0664 39.0208 40.0662 39.0205C40.0293 38.8279 40.0146 38.6027 40.0049 38.4851C40.0036 38.4698 40.0023 38.4559 40.0014 38.4445C39.9638 37.9062 39.8744 37.3531 39.224 37.3531H38.1699V39.2967H36.7791V36.6238V33.9591H37.7575H39.5003C39.5592 33.9591 39.6177 33.9607 39.6762 33.9642C39.7157 33.9665 39.7549 33.9707 39.7941 33.9746C39.8128 33.9764 39.8318 33.9773 39.8504 33.9795C39.8981 33.9852 39.9454 33.9929 39.9923 34.0011C40.0019 34.0028 40.0118 34.0037 40.0212 34.0054C40.7566 34.1414 41.3691 34.5868 41.3691 35.4617C41.3691 35.8578 41.2382 36.2397 40.9739 36.5102L40.9738 36.5103C40.973 36.511 40.9723 36.5116 40.9716 36.5124C40.9448 36.5396 40.9165 36.5653 40.8872 36.59C40.8777 36.598 40.8677 36.6054 40.858 36.6132C40.8363 36.6305 40.814 36.6471 40.7908 36.6631C40.7793 36.6711 40.7673 36.6789 40.7553 36.6865C40.7314 36.7018 40.7068 36.7161 40.6816 36.7298C40.6703 36.7361 40.659 36.7425 40.6474 36.7485C40.6102 36.7672 40.5721 36.7848 40.532 36.8003V36.8151C40.5639 36.8226 40.5941 36.8323 40.6235 36.8428C40.6329 36.8464 40.6421 36.8501 40.6513 36.8538C40.6713 36.8619 40.6907 36.8706 40.7096 36.88C40.7189 36.8846 40.7283 36.8893 40.7373 36.8942C40.7589 36.9061 40.7795 36.9189 40.7997 36.9325C40.804 36.9353 40.8085 36.9379 40.8126 36.9407L40.8127 36.9408C41.1579 37.1855 41.2729 37.6809 41.3094 38.0932C41.3244 38.3174 41.347 39.1023 41.5338 39.2969H40.1581ZM45.8332 39.2968H45.5852L45.2566 38.3398H43.3951L43.1148 39.1376L43.0589 39.2968H41.6309L43.6267 33.9592H45.0395L47.0355 39.2968H45.8332ZM46.7298 32.0331C46.7296 32.0332 46.7294 32.0332 46.7292 32.0333C46.6062 32.088 46.4762 32.1345 46.3406 32.1737C46.3383 32.1742 46.336 32.175 46.3338 32.1757C46.2003 32.2138 46.0614 32.2448 45.9173 32.2693C45.9123 32.2702 45.9073 32.2711 45.9021 32.2719C45.8321 32.2834 45.7612 32.2937 45.6888 32.3023C45.6822 32.3032 45.6754 32.3038 45.6688 32.3046C45.6012 32.3123 45.5329 32.319 45.4636 32.3242C45.4569 32.3247 45.4501 32.3254 45.4434 32.3259C45.373 32.3311 45.3019 32.3349 45.23 32.3376C45.2151 32.3381 45.2002 32.3387 45.1852 32.3391C45.113 32.3414 45.0405 32.3429 44.9669 32.3429H41.5986H41.2436V24.5923H41.5986H44.8694C44.9071 24.5917 44.9453 24.5913 44.9832 24.5913C44.9854 24.5913 44.9872 24.5914 44.9892 24.5914C45.0061 24.5914 45.0232 24.5916 45.0404 24.5918C45.0647 24.592 45.0891 24.5921 45.1135 24.5927C45.1312 24.593 45.1489 24.5938 45.1666 24.5942C45.1904 24.595 45.2141 24.5955 45.2378 24.5964C45.256 24.597 45.2743 24.5981 45.2925 24.599C45.3157 24.6002 45.339 24.6013 45.3621 24.6026C45.3803 24.6038 45.3986 24.6052 45.4168 24.6065C45.44 24.6082 45.4633 24.6096 45.4862 24.6117C45.5047 24.6133 45.5228 24.615 45.5411 24.6169C45.564 24.6192 45.5868 24.6211 45.6095 24.6236C45.628 24.6258 45.6464 24.6279 45.6648 24.6302C45.6874 24.6329 45.7097 24.6356 45.7321 24.6386C45.7505 24.641 45.7688 24.644 45.787 24.6466C45.8091 24.6498 45.8313 24.6532 45.8532 24.6568C45.8715 24.6597 45.8898 24.6631 45.908 24.6663C45.9297 24.6702 45.9513 24.6741 45.9729 24.6783C45.9911 24.6819 46.0091 24.6855 46.027 24.6894C46.0486 24.694 46.0698 24.6986 46.0911 24.7034C46.1089 24.7075 46.1265 24.7118 46.1441 24.7161C46.165 24.7213 46.1862 24.7266 46.2069 24.7321C46.2245 24.7367 46.242 24.7417 46.2593 24.7467C46.2797 24.7525 46.3001 24.7585 46.3204 24.7647C46.3376 24.7701 46.3545 24.7756 46.3716 24.7811C46.3916 24.7876 46.4116 24.7944 46.4314 24.8013C46.4481 24.8072 46.4647 24.8134 46.4814 24.8197C46.5009 24.8268 46.5201 24.8344 46.5395 24.842C46.5558 24.8487 46.5721 24.8555 46.5882 24.8623C46.6071 24.8703 46.6259 24.8786 46.6443 24.8871C46.6602 24.8943 46.676 24.9018 46.6915 24.9093C46.7097 24.9181 46.7278 24.9272 46.7459 24.9366C46.7612 24.9445 46.7763 24.9526 46.7912 24.9609C46.8088 24.9706 46.8263 24.9808 46.8434 24.9908C46.8582 24.9995 46.8728 25.0083 46.8872 25.0173C46.904 25.0279 46.9206 25.0387 46.9371 25.0498C46.9512 25.0592 46.9653 25.0688 46.979 25.0785C46.9951 25.0899 47.0109 25.1018 47.0265 25.1137C47.0399 25.1241 47.0534 25.1342 47.0664 25.1448C47.0817 25.1571 47.0964 25.1699 47.1113 25.1828C47.124 25.1938 47.1367 25.2049 47.149 25.2163C47.1634 25.2297 47.1773 25.2434 47.1912 25.2572C47.2031 25.269 47.2149 25.2808 47.2265 25.293C47.24 25.3074 47.253 25.3222 47.2659 25.337C47.277 25.3496 47.2882 25.3623 47.2989 25.3753C47.3115 25.3907 47.3233 25.4066 47.3354 25.4225C47.3455 25.4359 47.3559 25.4493 47.3656 25.4633C47.3771 25.4796 47.3882 25.4968 47.3992 25.5139C47.4083 25.5283 47.4179 25.5423 47.4266 25.5571C47.4371 25.5746 47.4468 25.5929 47.4567 25.6111C47.465 25.6263 47.4735 25.6413 47.4813 25.657C47.4909 25.6759 47.4994 25.6954 47.5083 25.715C47.5155 25.7309 47.5231 25.7466 47.5299 25.7628C47.5381 25.783 47.5456 25.804 47.5533 25.8249C47.5595 25.8415 47.5659 25.858 47.5715 25.8751C47.5787 25.8966 47.5848 25.9191 47.5913 25.9413C47.5965 25.9588 47.6019 25.9759 47.6064 25.9939C47.6124 26.0172 47.6173 26.0415 47.6225 26.0656C47.6263 26.0834 47.6306 26.1009 47.6339 26.1191C47.6387 26.1448 47.6422 26.1716 47.6461 26.1982C47.6485 26.2158 47.6518 26.233 47.654 26.251C47.6575 26.2813 47.6598 26.3129 47.6622 26.3442C47.6635 26.3595 47.6653 26.3742 47.6662 26.3897C47.6688 26.4372 47.6703 26.4858 47.6703 26.5357C47.6703 27.2304 47.2577 27.7948 46.6499 28.0988C46.7108 28.1164 46.7696 28.1374 46.8271 28.1603C46.8438 28.1669 46.8599 28.1741 46.8764 28.1811C46.9185 28.1992 46.9597 28.2187 46.9999 28.2394C47.015 28.2473 47.0301 28.2548 47.0449 28.2631C47.095 28.2909 47.1439 28.3203 47.1905 28.3522C47.1924 28.3535 47.1943 28.3544 47.1961 28.3558C47.2482 28.3916 47.2978 28.4303 47.3453 28.4711C47.3493 28.4744 47.3529 28.4781 47.3567 28.4817C47.3997 28.5193 47.4406 28.559 47.4795 28.6002C47.4842 28.6052 47.489 28.6102 47.4935 28.6153C47.6216 28.7543 47.7266 28.9132 47.8064 29.0879C47.8064 29.088 47.8064 29.0882 47.8066 29.0882C47.9221 29.3417 47.9852 29.6273 47.9852 29.9335C47.9849 31.0486 47.4887 31.6955 46.7298 32.0331ZM52.0294 39.2968H51.5556H50.6019L48.7476 35.9701H48.7326V39.2968H48.6263H47.4244V35.7935V33.9591H48.8521L50.706 37.2483H50.7212V33.9591H51.6374H52.0294V39.2968ZM50.8498 30.9536L50.3612 32.3429H48.8382H48.2881L51.1866 24.5922H53.238L55.109 29.5954L56.1365 32.3429H54.0763H54.0305L53.5529 30.9536H50.8498ZM55.8925 39.3092C55.8906 39.3096 55.8889 39.3101 55.8872 39.3105C55.8317 39.3238 55.7755 39.3357 55.7185 39.3462C55.7163 39.3466 55.7142 39.347 55.712 39.3474C55.6005 39.3675 55.4866 39.3825 55.3711 39.3924C55.3632 39.3932 55.3552 39.3939 55.3472 39.3946C55.2933 39.3989 55.2393 39.4024 55.1848 39.4046C55.1757 39.405 55.1663 39.4054 55.1573 39.4057C55.1016 39.4078 55.0458 39.409 54.9899 39.409C54.9336 39.409 54.8778 39.4074 54.8223 39.4051C54.8114 39.4047 54.8007 39.4042 54.7899 39.4038C54.7358 39.4011 54.6823 39.3973 54.6293 39.3925C54.6201 39.3916 54.6112 39.3907 54.6021 39.3898C54.5497 39.3845 54.4978 39.3784 54.4464 39.3708C54.4432 39.3704 54.4398 39.3699 54.4367 39.3695C54.383 39.3614 54.3301 39.3519 54.2776 39.3413C54.2689 39.3395 54.2602 39.3377 54.2515 39.3359C54.1994 39.325 54.1478 39.3128 54.0972 39.2993C54.0929 39.2981 54.0887 39.2969 54.0844 39.2956C54.0344 39.282 53.9851 39.267 53.9369 39.2507C53.933 39.2494 53.9292 39.2484 53.9256 39.2471C53.8763 39.2302 53.8281 39.2117 53.781 39.1922C53.7743 39.1894 53.7677 39.1865 53.761 39.1837C53.7134 39.1634 53.6665 39.1419 53.6212 39.1186C53.6212 39.1186 53.621 39.1186 53.621 39.1185C53.0573 38.8295 52.677 38.3109 52.6725 37.5025H53.621H54.0629C54.0929 38.1304 54.4815 38.3321 55.0721 38.3321C55.4906 38.3321 55.9243 38.1827 55.9243 37.7864C55.9243 37.3154 55.1618 37.2258 54.392 37.0088C54.3317 36.9916 54.2711 36.9734 54.2109 36.9543C54.1994 36.9507 54.1878 36.947 54.1765 36.9434C53.9843 36.8816 53.7953 36.8083 53.6217 36.7159C53.6215 36.7158 53.6214 36.7157 53.6212 36.7156C53.1718 36.4764 52.8297 36.1087 52.8297 35.469C52.8297 34.7894 53.2286 34.3514 53.7596 34.1038C53.765 34.1014 53.7703 34.0987 53.7756 34.0963C53.8212 34.0755 53.8678 34.0562 53.9152 34.0381C53.9219 34.0355 53.9285 34.0329 53.9352 34.0304C53.983 34.0126 54.0317 33.9962 54.0809 33.9811C54.0861 33.9794 54.0913 33.9781 54.0963 33.9765C54.3907 33.8881 54.7056 33.8469 55.0052 33.8469C55.2534 33.8469 55.5019 33.8754 55.7372 33.9341H55.7373C56.5084 34.1262 57.1372 34.644 57.1432 35.5661H56.3741H55.7528C55.7751 35.0802 55.3192 34.9233 54.893 34.9233C54.5941 34.9233 54.2202 35.0279 54.2202 35.3793C54.2202 35.7904 54.9902 35.8651 55.7676 36.082C55.8188 36.0965 55.8701 36.1117 55.9211 36.1274C55.9239 36.1284 55.9269 36.1293 55.9298 36.1302C56.643 36.3524 57.3151 36.7252 57.3151 37.6217C57.3148 38.6187 56.6902 39.1161 55.8925 39.3092ZM61.8977 35.073H60.9418H59.356V36.1645H60.9418H61.5537V37.2407H60.9418H59.356V39.2968H58.4779H57.9653V33.9592H58.3139H60.9419H61.8977V35.073ZM61.314 32.3431V32.343L58.6219 27.5125H58.6003V32.343H57.7274H56.7003V29.3076V24.5923H58.7739L61.4661 29.3687H61.4876V24.5923H63.1741H63.3876V32.3431H63.1741H61.314ZM66.8615 39.2968H66.0628H62.5331V38.4933V33.9593H63.489H66.0628H66.7868V35.0731H66.0628H63.9235V36.0075H66.0628H66.5399V37.0839H66.0628H63.9235V38.1008H66.0628H66.8615V39.2968ZM67.6095 29.0866L66.7845 29.955V32.343H64.9787H64.7652V24.5923H64.9787H66.7845V27.5668L69.3355 24.5923H71.8432L68.9772 27.6428L72.2014 32.3431H69.694L67.6095 29.0866ZM71.0329 39.2968C70.9131 39.1173 70.891 38.594 70.8759 38.4445C70.8386 37.9062 70.749 37.3531 70.0985 37.3531H69.0446V39.2967H68.4528H67.6541V33.9591H68.3781H70.3752C71.3171 33.9591 72.2439 34.3853 72.2439 35.4615C72.2439 36.0373 71.9675 36.5829 71.4067 36.7999V36.8147C71.9748 36.9494 72.1393 37.5846 72.1841 38.0931C72.1993 38.3173 72.2214 39.1022 72.4085 39.2968H71.0329Z" fill="white"/>
<defs>
<filter id="filter0_d_474_9021" x="0" y="0" width="108" height="84" filterUnits="userSpaceOnUse" color-interpolation-filters="sRGB">
<feFlood flood-opacity="0" result="BackgroundImageFix"/>
<feColorMatrix in="SourceAlpha" type="matrix" values="0 0 0 0 0 0 0 0 0 0 0 0 0 0 0 0 0 0 127 0" result="hardAlpha"/>
<feOffset dy="10"/>
<feGaussianBlur stdDeviation="10"/>
<feColorMatrix type="matrix" values="0 0 0 0 0.0901961 0 0 0 0 0.254902 0 0 0 0 0.517647 0 0 0 0.25 0"/>
<feBlend mode="normal" in2="BackgroundImageFix" result="effect1_dropShadow_474_9021"/>
<feBlend mode="normal" in="SourceGraphic" in2="effect1_dropShadow_474_9021" result="shape"/>
</filter>
<linearGradient id="paint0_linear_474_9021" x1="18" y1="120" x2="60.2998" y2="50.9583" gradientUnits="userSpaceOnUse">
<stop stop-color="white" stop-opacity="0.33"/>
<stop offset="0.390033" stop-color="white" stop-opacity="0.2"/>
<stop offset="1" stop-color="white" stop-opacity="0"/>
</linearGradient>
</defs>
</svg>
