<svg width="40" height="40" viewBox="0 0 40 40" fill="none" xmlns="http://www.w3.org/2000/svg">
<circle cx="20" cy="20" r="20" fill="#295AA8"/>
<g clip-path="url(#clip0_244_542)">
<path d="M27.8484 27.1295L23.7175 23.0646C24.7993 21.8893 25.4639 20.3349 25.4639 18.6245C25.4634 14.9657 22.4497 12 18.7318 12C15.0139 12 12.0002 14.9657 12.0002 18.6245C12.0002 22.2834 15.0139 25.2491 18.7318 25.2491C20.3382 25.2491 21.8115 24.6935 22.9688 23.7697L27.1158 27.8507C27.3179 28.0498 27.6459 28.0498 27.848 27.8507C28.0505 27.6517 28.0505 27.3286 27.8484 27.1295ZM18.7318 24.2299C15.5861 24.2299 13.036 21.7203 13.036 18.6245C13.036 15.5288 15.5861 13.0192 18.7318 13.0192C21.8776 13.0192 24.4277 15.5288 24.4277 18.6245C24.4277 21.7203 21.8776 24.2299 18.7318 24.2299Z" fill="white"/>
</g>
<defs>
<clipPath id="clip0_244_542">
<rect width="16" height="16" fill="white" transform="translate(12 12)"/>
</clipPath>
</defs>
</svg>
