<svg width="120" height="120" viewBox="0 0 120 120" fill="none" xmlns="http://www.w3.org/2000/svg">
<circle cx="60" cy="60" r="20" fill="#295AA8"/>
<g clip-path="url(#clip0_244_542)">
<path d="M67.8484 67.1295L63.7175 63.0646C64.7993 61.8893 65.4639 60.3349 65.4639 58.6245C65.4634 54.9657 62.4497 52 58.7318 52C55.0139 52 52.0002 54.9657 52.0002 58.6245C52.0002 62.2834 55.0139 65.2491 58.7318 65.2491C60.3382 65.2491 61.8115 64.6935 62.9688 63.7697L67.1158 67.8507C67.3179 68.0498 67.6459 68.0498 67.848 67.8507C68.0505 67.6517 68.0505 67.3286 67.8484 67.1295ZM58.7318 64.2299C55.5861 64.2299 53.036 61.7203 53.036 58.6245C53.036 55.5288 55.5861 53.0192 58.7318 53.0192C61.8776 53.0192 64.4277 55.5288 64.4277 58.6245C64.4277 61.7203 61.8776 64.2299 58.7318 64.2299Z" fill="white"/>
</g>
<circle opacity="0.75" cx="60" cy="60" r="28.5" stroke="#295AA8" stroke-width="3"/>
<circle opacity="0.45" cx="60" cy="60" r="38.5" stroke="#295AA8" stroke-width="3"/>
<circle opacity="0.3" cx="60" cy="60" r="48.5" stroke="#295AA8" stroke-width="3"/>
<circle opacity="0.15" cx="60" cy="60" r="58.5" stroke="#295AA8" stroke-width="3"/>
<defs>
<clipPath id="clip0_244_542">
<rect width="16" height="16" fill="white" transform="translate(52 52)"/>
</clipPath>
</defs>
</svg>
