<svg width="64" height="64" viewBox="0 0 64 64" fill="none" xmlns="http://www.w3.org/2000/svg">
<path d="M4.53784 23.0121L5.76905 26.0032H3.31366L4.53784 23.0121Z" fill="#006FCF"/>
<path d="M32.8925 24.8123C32.6453 24.9618 32.353 24.9668 32.0027 24.9668H29.8175V23.3003H32.0325C32.3459 23.3003 32.673 23.3143 32.8855 23.4356C33.1189 23.5449 33.2632 23.7776 33.2632 24.0989C33.2632 24.4268 33.1259 24.6907 32.8925 24.8123Z" fill="#006FCF"/>
<path d="M47.2372 23.0121L48.482 26.0032H45.9992L47.2372 23.0121Z" fill="#006FCF"/>
<path fill-rule="evenodd" clip-rule="evenodd" d="M0 30.7146H3.07372L3.76674 29.0481H5.31824L6.00943 30.7146H12.0568V29.4405L12.5966 30.7201H15.7359L16.2757 29.4215V30.7146H31.3045L31.2975 27.979H31.5882C31.7918 27.986 31.8513 28.0048 31.8513 28.3399V30.7146H39.6243V30.0778C40.2512 30.4127 41.2264 30.7146 42.5096 30.7146H45.7797L46.4795 29.0481H48.031L48.7154 30.7146H55.0169V29.1316L55.9712 30.7146H61.0209V20.25H56.0234V21.4859L55.3236 20.25H50.1956V21.4859L49.553 20.25H42.6263C41.4668 20.25 40.4476 20.4114 39.6243 20.861V20.25H34.8442V20.861C34.3203 20.3976 33.6064 20.25 32.8126 20.25H15.3493L14.1776 22.9528L12.9743 20.25H7.47377V21.4859L6.86951 20.25H2.17846L0 25.2255V30.7146ZM26.7721 29.2409H20.7629V21.7378H26.7721V23.3002H22.5618V24.6526H26.6711V26.1906H22.5618V27.6891H26.7721V29.2409ZM17.5782 29.2409H19.422V21.7378H16.4271L14.2645 26.8277L11.9104 21.7378H8.97442V28.8417L5.915 21.7378H3.24237L0.0211029 29.2409H1.97484L2.67307 27.5673H6.41847L7.10967 29.2409H10.7684V23.3593L13.3835 29.2409H14.963L17.5714 23.3645L17.5782 29.2409ZM35.2449 23.7585C35.2449 24.9548 34.444 25.5728 33.9773 25.7584C34.3709 25.9078 34.7071 26.1716 34.8671 26.3903C35.1211 26.7634 35.165 27.0968 35.165 27.7669V29.2409H33.3506L33.3438 28.2947C33.3438 28.2489 33.3442 28.2011 33.3447 28.1518C33.3488 27.7145 33.354 27.1573 33.0598 26.8329C32.797 26.569 32.3963 26.5118 31.7487 26.5118H29.8177V29.2409H28.019V21.7378H32.1564C33.0757 21.7378 33.7531 21.762 34.3346 22.0971C34.9037 22.4323 35.2449 22.9216 35.2449 23.7585ZM38.1236 29.2409H36.2881V21.7378H38.1236V29.2409ZM59.4174 29.2409H56.8683L53.4586 23.6093V29.2409H49.7952L49.0951 27.5673H45.3584L44.6792 29.2409H42.5743C41.6999 29.2409 40.5929 29.0481 39.9659 28.411C39.3337 27.7739 39.0048 26.911 39.0048 25.5466C39.0048 24.4338 39.2014 23.4165 39.9745 22.6127C40.5561 22.0139 41.4668 21.7378 42.7064 21.7378H44.4479V23.3455H42.7429C42.0865 23.3455 41.7158 23.4428 41.3587 23.7899C41.0521 24.1059 40.8416 24.7031 40.8416 25.4895C40.8416 26.2934 41.0019 26.873 41.3363 27.2516C41.6132 27.5485 42.1164 27.6386 42.5899 27.6386H43.3978L45.9331 21.738H48.6284L51.674 28.8349V21.738H54.4129L57.5749 26.9635V21.738H59.4174V29.2409Z" fill="#006FCF"/>
<path d="M39.7044 37.8898C40.0544 37.8898 40.352 37.8776 40.5926 37.7353C40.8257 37.5947 40.9651 37.3361 40.9651 37.0149C40.9651 36.6938 40.8257 36.4614 40.5926 36.3398C40.3749 36.2111 40.0544 36.2043 39.7341 36.2043H37.5191V37.8898H39.7044Z" fill="#006FCF"/>
<path d="M24.9366 38.4174L27.6984 41.4744V35.4575L24.9366 38.4174Z" fill="#006FCF"/>
<path d="M16.1433 40.5929H20.5661L22.6208 38.3911L20.6532 36.2041H16.1433V37.5685H20.0926V39.0997H16.1433V40.5929Z" fill="#006FCF"/>
<path d="M29.4901 38.1155H31.8148C32.506 38.1155 32.9359 37.7735 32.9359 37.1245C32.9359 36.4682 32.4851 36.2043 31.8356 36.2043H29.4901V38.1155Z" fill="#006FCF"/>
<path fill-rule="evenodd" clip-rule="evenodd" d="M64 41.1969C63.563 41.834 62.7116 42.1569 61.5589 42.1569H58.085V40.5476H61.5448C61.888 40.5476 62.1282 40.5026 62.2728 40.3618C62.3981 40.2457 62.4855 40.0771 62.4855 39.8723C62.4855 39.6537 62.3981 39.4801 62.2658 39.376C62.1352 39.2615 61.9452 39.2094 61.632 39.2094C61.5215 39.2057 61.4092 39.2027 61.2959 39.1996C59.6763 39.1559 57.8357 39.1061 57.8357 36.8866C57.8357 35.798 58.529 34.6522 60.4167 34.6522H63.9998V33.159H60.6707C59.666 33.159 58.9362 33.3989 58.4193 33.7719V33.159H53.4952C52.7077 33.159 51.7834 33.3536 51.3462 33.7719V33.159H42.5529V33.7719C41.8531 33.2685 40.6723 33.159 40.1273 33.159H34.3271V33.7719C33.7735 33.2373 32.5423 33.159 31.7918 33.159H25.3005L23.815 34.7617L22.4238 33.159H12.7271V43.6309H22.2413L23.7719 42.0028L25.2138 43.6309L31.0784 43.6361V41.1727H31.655C32.4331 41.1847 33.3508 41.1535 34.1605 40.8045V43.6307H38.9978V40.9013H39.2311C39.5289 40.9013 39.5582 40.9136 39.5582 41.2103V43.6304H54.2529C55.1858 43.6304 56.161 43.3923 56.701 42.9603V43.6304H61.3621C62.332 43.6304 63.2793 43.4949 64 43.1477V41.1969ZM56.8245 38.1987C57.1748 38.5601 57.3625 39.0164 57.3625 39.7888C57.3625 41.4033 56.3508 42.1569 54.5366 42.1569H51.033V40.5476H54.5226C54.8637 40.5476 55.1057 40.5026 55.2573 40.3618C55.381 40.2457 55.4698 40.0771 55.4698 39.8723C55.4698 39.6537 55.3738 39.4801 55.2503 39.376C55.1127 39.2615 54.923 39.2094 54.6097 39.2094C54.4996 39.2057 54.3876 39.2026 54.2745 39.1996C52.6606 39.1558 50.8207 39.106 50.8207 36.8866C50.8207 35.798 51.5067 34.6522 53.3926 34.6522H56.9988V36.2495H53.699C53.3719 36.2495 53.1592 36.2617 52.9783 36.3851C52.7813 36.5066 52.7082 36.687 52.7082 36.925C52.7082 37.2081 52.8755 37.4007 53.1018 37.484C53.2916 37.5499 53.4954 37.5691 53.8018 37.5691L54.7702 37.5951C55.7467 37.6189 56.417 37.7873 56.8245 38.1987ZM41.679 38.6692C42.0794 38.8165 42.4067 39.0807 42.5602 39.2993C42.8142 39.6657 42.851 40.0076 42.8582 40.6691V42.1569H41.0523V41.2179C41.0523 41.1729 41.0527 41.1256 41.0532 41.0768C41.0572 40.6362 41.0625 40.0631 40.7615 39.7489C40.4986 39.4801 40.098 39.4158 39.4418 39.4158H37.5193V42.1569H35.7118V34.652H39.8649C40.7756 34.652 41.4388 34.692 42.0293 35.0061C42.597 35.3481 42.954 35.8166 42.954 36.6727C42.9538 37.8706 42.1525 38.4818 41.679 38.6692ZM43.9514 34.652H49.9552V36.204H45.7429V37.5684H49.8524V39.0997H45.7429V40.5929L49.9552 40.5996V42.1569H43.9514V34.652ZM34.8671 37.1244C34.8671 39.2092 33.307 39.6396 31.7346 39.6396H29.4901V42.1569H25.9937L23.7787 39.6725L21.4768 42.1569H14.3514V34.652H21.5864L23.7996 37.112L26.0877 34.652H31.8356C33.2632 34.652 34.8671 35.046 34.8671 37.1244Z" fill="#006FCF"/>
<path d="M60.7215 36.249H64V38.3845C63.997 38.3807 63.9941 38.377 63.9912 38.3732L63.9819 38.361L63.977 38.3547L63.9768 38.3545C63.9355 38.3004 63.8946 38.247 63.8331 38.1987C63.4327 37.7875 62.776 37.6189 61.7922 37.5947L60.8173 37.5686C60.5177 37.5686 60.3138 37.5494 60.1241 37.4836C59.8909 37.4003 59.7307 37.2077 59.7307 36.9246C59.7307 36.6865 59.8038 36.5061 59.9935 36.3846C60.1767 36.2612 60.3942 36.249 60.7215 36.249Z" fill="#006FCF"/>
</svg>
