<svg width="248" height="119" viewBox="0 0 248 119" fill="none" xmlns="http://www.w3.org/2000/svg">
<rect x="0.5" y="0.5" width="247" height="118" rx="3.5" fill="#FECC00" stroke="#F4F7FB"/>
<g clip-path="url(#clip0_1419_3890)">
<path d="M36 78.786V40H211.748V78.786H36Z" fill="#FECC00"/>
<path d="M92.665 56.2058C91.897 57.2458 90.612 59.0538 89.83 60.1098C89.433 60.6468 88.716 61.6218 91.093 61.6218C93.608 61.6218 103.608 61.6218 103.608 61.6218C103.608 61.6218 105.625 58.8778 107.316 56.5828C109.616 53.4608 107.515 46.9648 99.292 46.9648C91.932 46.9648 66.908 46.9648 66.908 46.9648L61.293 54.5938C61.293 54.5938 90.402 54.5938 91.896 54.5938C93.441 54.5938 93.42 55.1818 92.665 56.2058ZM83.471 63.5038C81.094 63.5038 81.811 62.5268 82.208 61.9898C82.99 60.9338 84.296 59.1448 85.064 58.1048C85.82 57.0808 85.84 56.4928 84.293 56.4928C82.8 56.4928 70.297 56.4928 70.297 56.4928L59.02 71.8188C59.02 71.8188 79.161 71.8188 86.521 71.8188C95.604 71.8188 100.661 65.6408 102.22 63.5048C102.22 63.5038 85.985 63.5038 83.471 63.5038ZM101.361 71.8188H117.494L123.61 63.5028L107.479 63.5048C107.474 63.5038 101.361 71.8188 101.361 71.8188ZM142.986 46.9648L136.798 55.3698H129.598L135.783 46.9648H119.655L108.865 61.6218H148.325L159.112 46.9648H142.986ZM124.694 71.8188H140.821L146.94 63.5048H130.813C130.807 63.5038 124.694 71.8188 124.694 71.8188ZM36 66.7838V68.5498H58.468L59.766 66.7838H36ZM62.181 63.5038H36V65.2678H60.88L62.181 63.5038ZM36 71.8188H56.061L57.353 70.0628H36V71.8188ZM188.072 68.5488H211.748V66.7828H189.372L188.072 68.5488ZM185.667 71.8188H211.748V70.0628H186.958L185.667 71.8188ZM191.783 63.5038L190.486 65.2698H211.748V63.5038H191.783ZM170.659 61.6218L181.448 46.9648H164.367C164.361 46.9648 153.57 61.6218 153.57 61.6218H170.659ZM152.187 63.5038C152.187 63.5038 151.008 65.1148 150.435 65.8908C148.41 68.6268 150.201 71.8188 156.811 71.8188C164.447 71.8188 182.712 71.8188 182.712 71.8188L188.831 63.5048H152.187V63.5038Z" fill="#D50029"/>
</g>
<defs>
<clipPath id="clip0_1419_3890">
<rect width="175.748" height="38.786" fill="white" transform="translate(36 40)"/>
</clipPath>
</defs>
</svg>
