<svg width="248" height="119" viewBox="0 0 248 119" fill="none" xmlns="http://www.w3.org/2000/svg">
<rect x="0.5" y="0.5" width="247" height="118" rx="3.5" stroke="#F4F7FB"/>
<g clip-path="url(#clip0_1419_3891)">
<path d="M160.517 46.5117L165.311 51.7956L169.927 46.5117H179.783L170.151 57.3435L179.915 68.2639H169.661L164.912 62.9381L160.206 68.2639H150.305L159.984 57.3886L150.305 46.5117H160.517Z" fill="#FF5900"/>
<path d="M150.306 46.5126V53.8621H139.343V60.6062H150.306V68.2648H131.287V34H150.306V41.6377H139.343V46.5126H150.306Z" fill="#FF5900"/>
<path d="M123.264 34V48.0228H123.176C121.398 45.9813 119.18 45.2713 116.605 45.2713C111.331 45.2713 107.358 48.8583 105.964 53.598C104.371 48.3753 100.269 45.1731 94.1868 45.1731C89.2474 45.1731 85.3465 47.39 83.3115 51.0028V46.5126H73.1011V41.6377H84.2436V34H64V68.2648H73.1011V53.8621H82.1732C81.9028 54.9198 81.7579 56.0532 81.7579 57.2494C81.7579 64.3961 87.2188 69.4127 94.1868 69.4127C100.047 69.4127 103.909 66.6613 105.951 61.6462H98.1505C97.096 63.1548 96.2958 63.6007 94.1868 63.6007C91.7412 63.6007 89.6322 61.4675 89.6322 58.9383H105.514C106.203 64.615 110.626 69.5109 116.694 69.5109C119.312 69.5109 121.709 68.2229 123.174 66.0495H123.263V68.268H131.285V34H123.264ZM89.8866 53.9635C90.3921 51.7868 92.0809 50.3652 94.1884 50.3652C96.5083 50.3652 98.1102 51.7434 98.532 53.9635C98.7091 53.9635 89.8866 53.9635 89.8866 53.9635ZM118.394 63.0485C115.437 63.0485 113.598 60.2923 113.598 57.4153C113.598 54.3402 115.197 51.3827 118.394 51.3827C121.709 51.3827 123.029 54.3402 123.029 57.4153C123.029 60.3309 121.63 63.0485 118.394 63.0485Z" fill="#2A007C"/>
<path d="M131.288 85.3964V73.1172H138.072V74.0333H132.407V78.5605H137.833V79.4765H132.407V84.4771H138.325V85.3947H131.288V85.3964Z" fill="#2A007C"/>
<path d="M139.135 85.3975L142.443 80.9878L139.305 76.8164H140.577L143.139 80.2247L145.649 76.8164H146.921L143.733 80.9878L147.056 85.3975H145.768L143.02 81.7493L140.408 85.3975H139.135Z" fill="#2A007C"/>
<path d="M149.209 88.6171H148.174V79.3776C148.174 78.5291 148.174 77.6662 148.122 76.8161H149.141L149.175 78.1057C149.817 77.0866 150.666 76.6133 151.939 76.6133C154.584 76.6133 155.719 78.7996 155.719 81.1051C155.719 83.4138 154.584 85.6001 151.939 85.6001C150.751 85.6001 149.819 85.1429 149.209 84.1576V88.6171ZM154.618 81.1051C154.618 79.2745 153.854 77.4762 151.82 77.4762C149.904 77.4762 149.209 79.054 149.209 81.1051C149.209 83.1578 149.904 84.7339 151.82 84.7339C153.855 84.7339 154.618 82.9372 154.618 81.1051Z" fill="#2A007C"/>
<path d="M161.038 77.6115C159.325 77.6115 158.73 79.054 158.73 80.5448V85.3972H157.694V79.3406C157.694 78.5098 157.678 77.6646 157.645 76.8161H158.665L158.731 78.0542C159.24 77.0721 160.09 76.6133 161.225 76.6133C161.378 76.6133 161.547 76.6294 161.7 76.6471V77.6823C161.462 77.6453 161.275 77.6115 161.038 77.6115Z" fill="#2A007C"/>
<path d="M162.967 81.2918C162.967 83.2238 163.882 84.8176 165.764 84.8176C167.221 84.8176 167.9 83.8517 168.155 82.8857H169.138C168.68 84.6824 167.577 85.6001 165.627 85.6001C163.016 85.6001 161.861 83.6665 161.861 81.2596C161.861 78.8012 163.066 76.6133 165.762 76.6133C168.493 76.6133 169.222 79.0025 169.222 81.2918H162.967ZM163 80.5126H168.121C168.121 78.8334 167.326 77.3925 165.696 77.3925C164.222 77.3909 163.202 78.5098 163 80.5126Z" fill="#2A007C"/>
<path d="M173.261 85.6001C171.499 85.6001 170.177 84.7677 170.177 82.8857H171.212C171.212 84.1737 172.059 84.8176 173.315 84.8176C174.485 84.8176 175.399 84.2574 175.399 83.1079C175.399 82.0727 174.332 81.8006 173.213 81.4786C171.858 81.089 170.381 80.6639 170.381 79.0025C170.381 77.1558 171.924 76.6133 173.366 76.6133C175.026 76.6133 176.266 77.2557 176.316 79.0363H175.28C175.23 78.0204 174.501 77.444 173.398 77.444C172.534 77.444 171.482 77.7821 171.482 78.901C171.482 79.9201 172.534 80.2083 173.653 80.5126C175.011 80.8845 176.502 81.2918 176.502 82.9549C176.501 84.8869 175.01 85.6001 173.261 85.6001Z" fill="#2A007C"/>
<path d="M180.436 85.6001C178.671 85.6001 177.35 84.7677 177.35 82.8857H178.385C178.385 84.1737 179.232 84.8176 180.489 84.8176C181.659 84.8176 182.574 84.2574 182.574 83.1079C182.574 82.0727 181.505 81.8006 180.386 81.4786C179.03 81.089 177.556 80.6639 177.556 79.0025C177.556 77.1558 179.098 76.6133 180.541 76.6133C182.2 76.6133 183.44 77.2557 183.49 79.0363H182.455C182.405 78.0204 181.676 77.444 180.573 77.444C179.708 77.444 178.657 77.7821 178.657 78.901C178.657 79.9201 179.708 80.2083 180.829 80.5126C182.186 80.8845 183.678 81.2918 183.678 82.9549C183.675 84.8869 182.183 85.6001 180.436 85.6001Z" fill="#2A007C"/>
</g>
<defs>
<clipPath id="clip0_1419_3891">
<rect width="120" height="54.6179" fill="white" transform="translate(64 34)"/>
</clipPath>
</defs>
</svg>
