<svg width="64" height="64" viewBox="0 0 64 64" fill="none" xmlns="http://www.w3.org/2000/svg">
<g clip-path="url(#clip0_1336_4431)">
<path d="M6.24146 1.08984H57.7565C59.1229 1.08984 60.4333 1.63264 61.3995 2.59882C62.3657 3.56501 62.9085 4.87543 62.9085 6.24182V57.7576C62.9085 59.1239 62.3657 60.4342 61.3996 61.4003C60.4335 62.3664 59.1231 62.9092 57.7568 62.9092H6.24072C4.87462 62.9092 3.56448 62.3665 2.5985 61.4005C1.63252 60.4345 1.08984 59.1244 1.08984 57.7583V6.24146C1.08984 5.56494 1.22309 4.89504 1.48199 4.27002C1.74088 3.645 2.12034 3.07709 2.59872 2.59871C3.07709 2.12034 3.645 1.74088 4.27002 1.48199C4.89505 1.22309 5.56494 1.08984 6.24146 1.08984Z" fill="#FDB913"/>
<path d="M57.7577 1.09033C59.1238 1.09074 60.4339 1.63371 61.3998 2.59983C62.3658 3.56596 62.9084 4.87615 62.9086 6.24231V57.7581C62.9085 59.1242 62.3658 60.4344 61.3999 61.4005C60.4339 62.3665 59.1238 62.9094 57.7577 62.9097H6.24194C5.56537 62.9098 4.89541 62.7767 4.27031 62.5178C3.64522 62.259 3.07725 61.8796 2.59885 61.4011C2.12044 60.9227 1.74098 60.3548 1.48215 59.7297C1.22331 59.1046 1.09017 58.4346 1.09033 57.7581V6.24231C1.09019 5.56573 1.22335 4.89576 1.48219 4.27066C1.74103 3.64555 2.12048 3.07757 2.59888 2.59914C3.07727 2.12071 3.64523 1.74122 4.27031 1.48233C4.8954 1.22345 5.56536 1.09024 6.24194 1.09033H57.7577M57.7577 0H6.24194C4.58696 0.00179267 3.00028 0.66005 1.83007 1.83033C0.659857 3.00061 0.00169433 4.58733 0 6.24231V57.7581C0.0018313 59.413 0.66005 60.9996 1.83024 62.1698C3.00044 63.3399 4.58704 63.9982 6.24194 64H57.7577C59.4125 63.9981 60.999 63.3398 62.169 62.1696C63.3391 60.9994 63.9972 59.4129 63.9989 57.7581V6.24231C63.9973 4.58742 63.3393 3.00076 62.1692 1.83048C60.9991 0.660192 59.4126 0.00188227 57.7577 0" fill="white"/>
<path d="M35.6067 32.6676L35.6016 21.5994L38.4906 20.9138V22.3648C38.4906 22.3648 39.2391 20.4566 40.9757 20.0137C41.2351 19.9301 41.511 19.9116 41.7792 19.9597V22.7838C41.2591 22.7906 40.7451 22.8976 40.2655 23.0989C39.1979 23.5205 38.6607 24.4404 38.6607 25.8447L38.6625 31.9563L35.6067 32.6676Z" fill="#231F20"/>
<path d="M20.3772 36.2684C20.3772 36.2684 19.9075 35.564 19.9075 33.0738V27.5627L18.4209 27.9163V25.646L19.9108 25.2942V22.8194L22.9827 22.0938V24.5686L25.1535 24.053V26.3207L22.9827 26.8359C22.9827 26.8359 22.9794 31.3511 22.9827 32.4477C22.9827 34.9992 23.6599 35.4891 23.6599 35.4891L20.3772 36.2684Z" fill="#231F20"/>
<path d="M25.4746 29.6801C25.4746 27.7124 25.7548 26.2769 26.3563 25.1752C27.0721 23.8678 28.2458 23.0158 29.9556 22.6265C33.3258 21.8601 34.5421 23.8549 34.4951 26.5299C34.4771 27.4866 34.4815 27.9526 34.4815 27.9526L28.544 29.3481V29.4439C28.544 31.3128 28.9358 32.1997 30.1202 31.9485C31.1433 31.7326 31.4279 31.0917 31.5087 30.2992C31.5219 30.1714 31.5282 29.8464 31.5282 29.8464L34.3096 29.1799C34.3096 29.1799 34.3162 29.4076 34.3122 29.6632C34.2879 30.7252 33.9791 33.3598 30.1132 34.2739C26.4511 35.1431 25.4746 32.9066 25.4746 29.6801ZM30.079 24.6882C29.0952 24.9115 28.5792 25.8766 28.5568 27.4755L31.5436 26.7642C31.5487 26.6919 31.5495 26.5325 31.5487 26.2828C31.5436 25.0756 31.1705 24.4385 30.079 24.6882Z" fill="#231F20"/>
<path d="M52.1767 23.2088C52.0617 19.8379 52.9361 17.1626 56.697 16.3106C59.094 15.766 60.0043 16.3896 60.4652 16.9922C60.9085 17.5673 61.0796 18.3429 61.0796 19.4292L61.0822 19.6286L58.1399 20.3278C58.1399 20.3278 58.1377 19.9312 58.1377 19.9184C58.1399 18.6301 57.7818 18.1402 56.8461 18.3745C55.7334 18.654 55.2839 19.7101 55.2839 21.81C55.2839 22.5555 55.2872 22.6892 55.2872 22.7898C55.2872 24.9238 55.5788 25.9007 56.8612 25.6322C57.9735 25.4023 58.1259 24.4255 58.1439 23.5691C58.1461 23.4347 58.1516 23.0043 58.1516 23.0043L61.0895 22.3102C61.0895 22.3102 61.0925 22.5272 61.0925 22.7685C61.0851 25.5668 59.6103 27.3303 56.8472 27.9734C53.0404 28.8657 52.2949 26.666 52.1767 23.2088Z" fill="#231F20"/>
<path d="M42.0059 27.9274C42.0059 25.3633 43.5079 24.5524 45.7686 23.6171C47.8016 22.7761 47.8457 22.3586 47.8541 21.6278C47.8655 21.0126 47.5802 20.4864 46.5681 20.7446C46.2306 20.8125 45.9259 20.9926 45.7035 21.2554C45.4812 21.5182 45.3541 21.8485 45.343 22.1926C45.3264 22.3815 45.32 22.5711 45.3239 22.7607L42.4734 23.4338C42.4542 22.8658 42.5205 22.298 42.6702 21.7497C43.1259 20.2165 44.4781 19.1849 46.8123 18.6447C49.8449 17.9458 50.8559 19.2767 50.8596 21.3468V26.2491C50.8596 28.62 51.2995 28.9674 51.2995 28.9674L48.5012 29.6295C48.3468 29.3062 48.2214 28.9698 48.1262 28.6244C48.1262 28.6244 47.5133 30.1682 45.4002 30.6647C43.181 31.1881 42.0059 29.8128 42.0059 27.9274ZM47.8347 24.4261C47.363 24.7568 46.8651 25.0484 46.3459 25.2979C45.4131 25.7537 44.9915 26.3159 44.9915 27.1819C44.9915 27.9318 45.4561 28.4242 46.3003 28.2156C47.2059 27.9872 47.8347 27.1422 47.8347 25.9681V24.4261Z" fill="#231F20"/>
<path d="M4.31417 44.0252C3.99479 44.0248 3.68142 43.9383 3.40706 43.7748C3.1327 43.6113 2.90749 43.3768 2.75515 43.0961C2.60281 42.8154 2.52896 42.4988 2.54138 42.1797C2.55381 41.8605 2.65205 41.5507 2.82575 41.2826L2.84558 41.2569L2.879 41.2481L7.05743 40.2617V43.435L6.99243 43.4501C6.04459 43.6781 4.91166 43.9378 4.67847 43.9873C4.55869 44.0127 4.43659 44.0254 4.31417 44.0252Z" fill="#231F20"/>
<path d="M4.31417 48.0851C3.84399 48.0852 3.393 47.8986 3.06033 47.5664C2.72765 47.2341 2.54052 46.7834 2.54005 46.3132C2.53908 45.9706 2.6384 45.6352 2.82576 45.3484L2.84559 45.3187L2.87901 45.3103L7.05744 44.3242V47.4975L6.99244 47.5144C6.0446 47.7417 4.91167 48.0043 4.67847 48.0509C4.55844 48.0742 4.43643 48.0856 4.31417 48.0851Z" fill="#231F20"/>
<path d="M4.31418 52.1533C3.84386 52.1531 3.39288 51.9662 3.06025 51.6337C2.72762 51.3012 2.54053 50.8503 2.54005 50.38C2.53872 50.0373 2.63807 49.7019 2.82576 49.4152L2.84559 49.3833L7.05744 48.3906V51.5639L6.99244 51.5808C5.99135 51.8217 4.87972 52.0729 4.67848 52.1174C4.55853 52.1414 4.4365 52.1534 4.31418 52.1533Z" fill="#231F20"/>
<path d="M3.82141 40.1377L3.82031 22.3821L7.05751 21.6172V39.3724L3.82141 40.1377Z" fill="#231F20"/>
<path d="M11.8851 38.6261C11.8851 38.0964 11.6746 37.5884 11.3001 37.2139C10.9255 36.8393 10.4175 36.6289 9.88785 36.6289C9.35815 36.6289 8.85015 36.8393 8.4756 37.2139C8.10105 37.5884 7.89063 38.0964 7.89062 38.6261L7.89393 55.2212C7.89571 56.6543 8.46554 58.0283 9.47855 59.042C10.4916 60.0557 11.8651 60.6264 13.2982 60.6292C14.8101 60.6292 18.9518 60.6218 18.9518 60.6218L18.9537 53.6987C18.9548 49.9161 18.9555 46.066 18.9555 45.9782C18.956 45.5478 18.8502 45.124 18.6476 44.7443C18.445 44.3646 18.1517 44.0408 17.7939 43.8016L12.7551 40.3793C12.7551 40.3793 12.754 47.8093 12.754 48.1508C12.754 48.2648 12.7087 48.374 12.6281 48.4546C12.5475 48.5352 12.4382 48.5805 12.3243 48.5805C12.2103 48.5805 12.101 48.5352 12.0205 48.4546C11.9399 48.374 11.8946 48.2648 11.8946 48.1508C11.8946 48.0674 11.8851 39.6526 11.8851 38.6261Z" fill="#231F20"/>
<path d="M14.5822 26.2455C13.97 26.3876 13.3955 26.6602 12.8983 27.0446C12.401 27.4291 11.9926 27.9164 11.7009 28.4731V27.2253L8.78613 27.9149L8.78944 35.884C9.30073 35.6818 9.85797 35.6249 10.3996 35.7196C10.9412 35.8143 11.4461 36.0569 11.8584 36.4205V31.2752C11.8584 30.0427 12.4717 29.0582 13.348 28.865C14.0072 28.7203 14.5576 28.9561 14.5576 30.1301L14.5598 37.6372L17.63 36.9174V28.9759C17.63 27.0505 16.8885 25.7045 14.5822 26.2455Z" fill="#231F20"/>
<path d="M59.1884 14.8813C58.813 14.8817 58.4459 14.7706 58.1336 14.5623C57.8213 14.3539 57.5778 14.0576 57.4339 13.7108C57.29 13.364 57.2523 12.9823 57.3254 12.6141C57.3985 12.2458 57.5792 11.9076 57.8446 11.642C58.1101 11.3765 58.4483 11.1957 58.8165 11.1224C59.1847 11.0492 59.5664 11.0868 59.9132 11.2305C60.2601 11.3742 60.5565 11.6176 60.765 11.9298C60.9735 12.2421 61.0847 12.6091 61.0845 12.9846C61.084 13.4873 60.8841 13.9694 60.5286 14.325C60.1732 14.6806 59.6912 14.8807 59.1884 14.8813ZM59.1884 11.3246C58.8602 11.3246 58.5393 11.4218 58.2664 11.6041C57.9934 11.7864 57.7806 12.0456 57.655 12.3488C57.5293 12.652 57.4964 12.9857 57.5603 13.3076C57.6243 13.6295 57.7823 13.9253 58.0143 14.1574C58.2464 14.3896 58.542 14.5477 58.8639 14.6118C59.1858 14.6759 59.5195 14.6431 59.8228 14.5176C60.1261 14.392 60.3853 14.1794 60.5677 13.9065C60.7501 13.6336 60.8475 13.3128 60.8476 12.9846C60.8472 12.5446 60.6724 12.1227 60.3613 11.8115C60.0502 11.5003 59.6284 11.3252 59.1884 11.3246Z" fill="#231F20"/>
<path d="M58.498 11.8546H59.3159C59.3958 11.846 59.4767 11.8556 59.5524 11.8826C59.6282 11.9096 59.6968 11.9533 59.7533 12.0105C59.8098 12.0678 59.8527 12.137 59.8788 12.213C59.9048 12.2891 59.9134 12.3701 59.9038 12.4499C59.9038 12.7503 59.7705 12.9813 59.5179 13.0206V13.025C59.7478 13.0485 59.8686 13.1752 59.8803 13.5009C59.8847 13.6478 59.8869 13.83 59.8939 13.9717C59.894 14.0116 59.9041 14.0508 59.9233 14.0858C59.9425 14.1208 59.9701 14.1504 60.0037 14.1719H59.5858C59.5459 14.1106 59.5243 14.0393 59.5234 13.9662C59.5105 13.8278 59.5138 13.697 59.5076 13.5288C59.5013 13.2762 59.4239 13.1656 59.1701 13.1656H58.8675V14.1719H58.498V11.8546ZM59.1635 12.8865C59.2137 12.8911 59.2643 12.8845 59.3117 12.8672C59.3591 12.8499 59.402 12.8222 59.4374 12.7863C59.4727 12.7503 59.4997 12.707 59.5163 12.6594C59.5329 12.6117 59.5387 12.561 59.5333 12.5109C59.5333 12.2637 59.4264 12.1337 59.1829 12.1337H58.8675V12.8865H59.1635Z" fill="#231F20"/>
</g>
<defs>
<clipPath id="clip0_1336_4431">
<rect width="63.9989" height="64" fill="white"/>
</clipPath>
</defs>
</svg>
