<svg width="64" height="64" viewBox="0 0 64 64" fill="none" xmlns="http://www.w3.org/2000/svg">
<path d="M19.349 56.6246V53.3329C19.3683 53.0561 19.3283 52.7783 19.2318 52.5181C19.1353 52.2579 18.9844 52.0213 18.7892 51.824C18.594 51.6267 18.359 51.4733 18.0998 51.3741C17.8407 51.2748 17.5633 51.2319 17.2863 51.2483C16.9237 51.2247 16.5615 51.2988 16.2373 51.4628C15.9131 51.6268 15.6388 51.8748 15.443 52.1809C15.2646 51.8839 15.0094 51.6405 14.7043 51.4764C14.3993 51.3123 14.0555 51.2335 13.7094 51.2483C13.4077 51.2331 13.1073 51.297 12.8379 51.4337C12.5684 51.5703 12.3394 51.7749 12.1734 52.0273V51.38H11.0322V56.6246H12.1843V53.717C12.1594 53.5376 12.1745 53.3549 12.2286 53.182C12.2827 53.0091 12.3744 52.8504 12.4971 52.7172C12.6199 52.584 12.7706 52.4796 12.9384 52.4115C13.1063 52.3435 13.2872 52.3135 13.468 52.3236C14.2251 52.3236 14.6091 52.8173 14.6091 53.706V56.6246H15.7612V53.717C15.7382 53.5379 15.7546 53.356 15.8094 53.1839C15.8642 53.0119 15.956 52.8539 16.0783 52.7211C16.2007 52.5883 16.3506 52.4839 16.5176 52.4152C16.6846 52.3466 16.8646 52.3153 17.045 52.3236C17.8239 52.3236 18.197 52.8173 18.197 53.706V56.6246H19.349ZM25.7787 54.0022V51.38H24.6375V52.0163C24.4427 51.7653 24.1907 51.5646 23.9024 51.431C23.6142 51.2973 23.2981 51.2347 22.9807 51.2483C22.2736 51.2829 21.607 51.5882 21.1189 52.1009C20.6307 52.6136 20.3585 53.2944 20.3585 54.0023C20.3585 54.7102 20.6307 55.391 21.1189 55.9036C21.607 56.4163 22.2736 56.7216 22.9807 56.7563C23.2981 56.7699 23.6142 56.7072 23.9024 56.5736C24.1907 56.4399 24.4427 56.2392 24.6375 55.9882V56.6246H25.7787V54.0022ZM21.5325 54.0022C21.5502 53.6927 21.6581 53.3952 21.8429 53.1463C22.0277 52.8974 22.2813 52.7081 22.5724 52.6016C22.8635 52.4951 23.1794 52.4761 23.4812 52.547C23.7829 52.6179 24.0573 52.7756 24.2705 53.0006C24.4838 53.2256 24.6265 53.5081 24.6811 53.8132C24.7357 54.1184 24.6998 54.4328 24.5778 54.7178C24.4558 55.0027 24.2531 55.2458 23.9947 55.4169C23.7362 55.5881 23.4333 55.6799 23.1234 55.6809C22.9061 55.6839 22.6906 55.6417 22.4904 55.5573C22.2902 55.4728 22.1097 55.3477 21.9602 55.19C21.8108 55.0323 21.6956 54.8453 21.622 54.6409C21.5484 54.4365 21.5179 54.219 21.5325 54.0022ZM50.1952 51.2421C50.5805 51.2384 50.9628 51.31 51.3206 51.453C51.6542 51.5861 51.9583 51.7833 52.2159 52.0335C52.4695 52.2822 52.6706 52.5792 52.8074 52.907C53.0924 53.6093 53.0924 54.3951 52.8074 55.0975C52.6707 55.4253 52.4695 55.7224 52.2159 55.9711C51.9584 56.2213 51.6542 56.4185 51.3206 56.5515C50.5967 56.8328 49.7937 56.8328 49.0697 56.5515C48.7367 56.4189 48.4333 56.2216 48.177 55.9711C47.9249 55.7217 47.7248 55.4247 47.5883 55.0975C47.3036 54.395 47.3036 53.6094 47.5883 52.907C47.7249 52.5798 47.925 52.2829 48.177 52.0335C48.4334 51.783 48.7368 51.5857 49.0697 51.453C49.4275 51.31 49.8099 51.2384 50.1952 51.2421ZM50.1952 52.3211C49.972 52.319 49.7506 52.3609 49.5436 52.4443C49.3484 52.5226 49.1714 52.6399 49.0233 52.7892C48.8742 52.9417 48.7569 53.1223 48.6782 53.3205C48.5103 53.7595 48.5103 54.2451 48.6782 54.6842C48.7569 54.8824 48.8742 55.0629 49.0233 55.2154C49.1714 55.3647 49.3484 55.4821 49.5436 55.5604C49.9624 55.7247 50.4279 55.7247 50.8468 55.5604C51.0425 55.4816 51.2204 55.3643 51.3698 55.2154C51.5203 55.0635 51.6386 54.8828 51.7177 54.6842C51.8857 54.2451 51.8857 53.7596 51.7177 53.3205C51.6386 53.1219 51.5203 52.9412 51.3698 52.7892C51.2204 52.6403 51.0425 52.523 50.8468 52.4443C50.6398 52.3609 50.4183 52.319 50.1952 52.3211ZM31.9878 54.0022C31.9768 52.3674 30.9674 51.2483 29.4972 51.2483C28.7855 51.2856 28.1159 51.5971 27.629 52.1175C27.142 52.6379 26.8756 53.3266 26.8855 54.0392C26.8955 54.7518 27.181 55.4329 27.6823 55.9394C28.1835 56.446 28.8615 56.7388 29.574 56.7563C30.3568 56.7837 31.1223 56.522 31.7245 56.0211L31.1649 55.1762C30.7316 55.5235 30.195 55.7165 29.6398 55.7248C29.2627 55.7565 28.8881 55.6403 28.5953 55.4007C28.3024 55.1611 28.1143 54.817 28.0707 54.4411H31.9658C31.9768 54.2985 31.9878 54.1559 31.9878 54.0022ZM28.0818 53.5414C28.1018 53.1893 28.2588 52.859 28.5192 52.6212C28.7796 52.3834 29.1227 52.2568 29.4752 52.2687C29.8199 52.262 30.1531 52.3922 30.402 52.6307C30.6508 52.8693 30.795 53.1968 30.8028 53.5414H28.0818ZM36.7933 52.7186C36.2954 52.4322 35.7328 52.2773 35.1585 52.2687C34.533 52.2687 34.16 52.4991 34.16 52.8832C34.16 53.2343 34.555 53.3329 35.0488 53.3987L35.5863 53.4756C36.7275 53.6402 37.4186 54.1229 37.4186 55.0446C37.4186 56.043 36.5409 56.7563 35.0268 56.7563C34.2164 56.7787 33.4202 56.5402 32.7556 56.0759L33.2932 55.1872C33.7967 55.5606 34.4112 55.7539 35.0378 55.7359C35.8167 55.7359 36.2337 55.5055 36.2337 55.0994C36.2337 54.8032 35.9374 54.6386 35.3121 54.5509L34.7744 54.4741C33.6005 54.3095 32.9641 53.7828 32.9641 52.927C32.9641 51.8846 33.8198 51.2483 35.1475 51.2483C35.8985 51.2224 36.6412 51.4128 37.2871 51.7969L36.7933 52.7186ZM42.2763 52.4223H40.4111V54.7923C40.4111 55.3189 40.5976 55.67 41.1681 55.67C41.5243 55.6582 41.8716 55.5563 42.1776 55.3738L42.5067 56.3504C42.0789 56.6171 41.5845 56.7578 41.0803 56.7563C39.7308 56.7563 39.259 56.0322 39.259 54.8141V52.4223H38.1947V51.38H39.259L39.2587 49.7891H40.4107L40.4111 51.38H42.2763V52.4223ZM46.2253 51.2483C46.5021 51.2494 46.7767 51.2976 47.0373 51.391L46.6862 52.4662C46.4594 52.3759 46.2171 52.3312 45.973 52.3345C45.2269 52.3345 44.8538 52.8173 44.8538 53.684V56.6246H43.7128V51.38H44.8429V52.0163C44.9829 51.7758 45.1852 51.5774 45.4285 51.4423C45.6718 51.3071 45.9471 51.24 46.2253 51.2483ZM54.1251 55.8611C54.1961 55.8607 54.2664 55.8746 54.3318 55.9021C54.3947 55.9284 54.452 55.9663 54.5007 56.014C54.549 56.0616 54.5876 56.1181 54.6145 56.1804C54.6419 56.2443 54.6561 56.3132 54.6561 56.3828C54.6561 56.4524 54.6419 56.5213 54.6145 56.5853C54.5874 56.6472 54.5488 56.7035 54.5007 56.7509C54.4519 56.7986 54.3946 56.8368 54.3318 56.8634C54.2665 56.8914 54.1962 56.9056 54.1251 56.9051C54.0206 56.9061 53.9181 56.8764 53.8304 56.8195C53.7427 56.7626 53.6737 56.6811 53.632 56.5853C53.6046 56.5213 53.5905 56.4524 53.5905 56.3828C53.5905 56.3132 53.6046 56.2443 53.632 56.1804C53.6587 56.1182 53.6972 56.0617 53.7453 56.014C53.7939 55.966 53.8515 55.928 53.9148 55.9021C53.9814 55.8745 54.053 55.8606 54.1251 55.8611ZM54.1251 56.7899C54.1793 56.7904 54.2329 56.7795 54.2826 56.7579C54.3303 56.7372 54.3736 56.7077 54.4104 56.671C54.4576 56.624 54.4924 56.5661 54.512 56.5025C54.5315 56.4388 54.5352 56.3714 54.5225 56.306C54.5099 56.2406 54.4814 56.1793 54.4396 56.1276C54.3978 56.0758 54.3438 56.035 54.2826 56.009C54.2328 55.9878 54.1792 55.9771 54.1251 55.9775C54.07 55.9771 54.0154 55.9878 53.9646 56.009C53.9161 56.0289 53.872 56.0582 53.8348 56.0952C53.7589 56.1718 53.7163 56.2752 53.7163 56.3831C53.7163 56.4909 53.7589 56.5944 53.8348 56.671C53.873 56.7089 53.9183 56.739 53.9681 56.7594C54.0179 56.7798 54.0713 56.7902 54.1251 56.7899ZM54.1558 56.1387C54.2072 56.1353 54.2582 56.1501 54.2998 56.1804C54.3165 56.194 54.3296 56.2114 54.3384 56.231C54.3472 56.2507 54.3513 56.2721 54.3503 56.2936C54.3509 56.312 54.3476 56.3303 54.3407 56.3473C54.3338 56.3644 54.3233 56.3798 54.3101 56.3926C54.2783 56.4209 54.238 56.4378 54.1955 56.4406L54.3542 56.6236H54.2301L54.083 56.4419H54.0356V56.6236H53.932V56.1387H54.1558ZM54.0356 56.2296V56.3588H54.1546C54.1775 56.36 54.2002 56.3543 54.2199 56.3427C54.2279 56.3374 54.2344 56.33 54.2386 56.3214C54.2429 56.3128 54.2448 56.3032 54.2441 56.2936C54.2447 56.2841 54.2427 56.2747 54.2384 56.2663C54.2342 56.2578 54.2278 56.2507 54.2199 56.2455C54.2001 56.234 54.1775 56.2285 54.1546 56.2296H54.0356Z" fill="black"/>
<path d="M40.6535 11.3555H23.3477V42.4546H40.6535V11.3555Z" fill="#7375CF"/>
<path d="M24.4464 26.9032C24.4437 23.9081 25.1224 20.9517 26.4311 18.2577C27.7399 15.5637 29.6444 13.2027 32.0005 11.3536C29.0828 9.06021 25.5788 7.634 21.8888 7.23796C18.1989 6.84191 14.472 7.49202 11.1341 9.11397C7.79616 10.7359 4.98193 13.2643 3.01303 16.41C1.04413 19.5558 0 23.192 0 26.9032C0 30.6143 1.04413 34.2505 3.01303 37.3963C4.98193 40.5421 7.79616 43.0704 11.1341 44.6924C14.472 46.3143 18.1989 46.9644 21.8888 46.5684C25.5788 46.1723 29.0828 44.7461 32.0005 42.4527C29.6444 40.6036 27.7399 38.2427 26.4311 35.5487C25.1224 32.8547 24.4437 29.8982 24.4464 26.9032Z" fill="#EB001B"/>
<path d="M62.1129 39.1583V38.5216H62.3696V38.3919H61.7158V38.5216H61.9727V39.1583H62.1129ZM63.3823 39.1583V38.3906H63.1819L62.9514 38.9186L62.7208 38.3906H62.5202V39.1583H62.6618V38.5792L62.8779 39.0785H63.0247L63.2409 38.578V39.1583H63.3823Z" fill="#00A2E5"/>
<path d="M64.0005 26.9032C64.0006 30.6142 62.9566 34.2505 60.9878 37.3962C59.019 40.542 56.2049 43.0704 52.867 44.6923C49.5292 46.3143 45.8023 46.9644 42.1125 46.5684C38.4226 46.1723 34.9186 44.7461 32.001 42.4527C34.355 40.6017 36.258 38.2404 37.5666 35.5468C38.8751 32.8533 39.555 29.8977 39.555 26.9032C39.555 23.9086 38.8751 20.9531 37.5666 18.2595C36.258 15.5659 34.355 13.2046 32.001 11.3536C34.9186 9.0602 38.4226 7.63399 42.1125 7.23795C45.8023 6.84192 49.5292 7.49204 52.867 9.114C56.2049 10.736 59.019 13.2643 60.9878 16.4101C62.9566 19.5559 64.0006 23.1921 64.0005 26.9032Z" fill="#00A2E5"/>
</svg>
