<svg width="64" height="64" viewBox="0 0 64 64" fill="none" xmlns="http://www.w3.org/2000/svg">
<path d="M11.6421 56.6264V53.3305C11.6614 53.0533 11.6214 52.7751 11.5248 52.5146C11.4281 52.254 11.277 52.0171 11.0816 51.8196C10.8861 51.622 10.6508 51.4684 10.3913 51.369C10.1318 51.2696 9.85411 51.2267 9.57671 51.2431C9.21366 51.2194 8.85091 51.2936 8.52628 51.4578C8.20165 51.6221 7.92701 51.8704 7.73101 52.1769C7.55237 51.8796 7.29686 51.6359 6.99138 51.4715C6.68589 51.3072 6.34174 51.2283 5.99517 51.2431C5.69307 51.2279 5.39223 51.2919 5.12246 51.4287C4.85269 51.5655 4.62332 51.7704 4.45708 52.0231V51.375H3.31445V56.6264H4.46801V53.715C4.44307 53.5353 4.45823 53.3524 4.51239 53.1793C4.56655 53.0062 4.65838 52.8472 4.78127 52.7138C4.90416 52.5804 5.05507 52.4759 5.22316 52.4078C5.39124 52.3397 5.57235 52.3096 5.75343 52.3198C6.51148 52.3198 6.89606 52.8141 6.89606 53.704V56.6264H8.04962V53.715C8.02655 53.5357 8.04302 53.3535 8.09787 53.1812C8.15272 53.0089 8.24463 52.8507 8.36713 52.7178C8.48964 52.5848 8.63977 52.4803 8.80698 52.4115C8.97419 52.3428 9.15442 52.3114 9.33502 52.3198C10.115 52.3198 10.4885 52.8141 10.4885 53.704V56.6264H11.6421ZM28.7149 51.375H26.8472V49.7819H25.6937V51.375H24.6279V52.4186H25.6937V54.8137C25.6937 56.0331 26.1661 56.7583 27.5174 56.7583C28.0222 56.7598 28.5172 56.6189 28.9456 56.3517L28.616 55.3739C28.3096 55.5567 27.9618 55.6588 27.6053 55.6706C27.0339 55.6706 26.8472 55.3189 26.8472 54.7917V52.4186H28.7149V51.375ZM38.4597 51.2431C38.1812 51.2349 37.9055 51.302 37.6619 51.4373C37.4183 51.5727 37.2157 51.7713 37.0755 52.0121V51.375H35.9439V56.6264H37.0864V53.682C37.0864 52.8141 37.46 52.3307 38.2071 52.3307C38.4515 52.3274 38.6941 52.3722 38.9212 52.4626L39.2727 51.3859C39.0118 51.2925 38.7369 51.2442 38.4597 51.2431V51.2431ZM23.7271 51.7924C23.0804 51.4078 22.3367 51.2172 21.5848 51.2431C20.2554 51.2431 19.3985 51.8803 19.3985 52.924C19.3985 53.781 20.0357 54.3083 21.2112 54.4731L21.7495 54.5499C22.3757 54.6377 22.6724 54.8026 22.6724 55.0992C22.6724 55.5057 22.2548 55.7365 21.4749 55.7365C20.8474 55.7546 20.2322 55.5611 19.728 55.1871L19.1897 56.077C19.8552 56.5418 20.6524 56.7806 21.4639 56.7583C22.98 56.7583 23.8588 56.0441 23.8588 55.0443C23.8588 54.1215 23.1668 53.6381 22.0242 53.4732L21.4859 53.3963C20.9915 53.3305 20.596 53.2317 20.596 52.8801C20.596 52.4956 20.9694 52.2648 21.5957 52.2648C22.1708 52.2735 22.7342 52.4285 23.2327 52.7152L23.7271 51.7924ZM54.335 51.2431C54.0564 51.2349 53.7807 51.302 53.5371 51.4373C53.2935 51.5727 53.0909 51.7713 52.9507 52.0121V51.375H51.8191V56.6264H52.9616V53.682C52.9616 52.8141 53.3352 52.3307 54.0822 52.3307C54.3267 52.3274 54.5694 52.3722 54.7965 52.4626L55.148 51.3859C54.8871 51.2925 54.6121 51.2442 54.335 51.2431V51.2431ZM39.6132 54.0006C39.5981 54.3705 39.6605 54.7396 39.7965 55.0839C39.9325 55.4283 40.1391 55.7404 40.403 56.0002C40.6669 56.2599 40.9822 56.4616 41.3287 56.5921C41.6752 56.7227 42.0452 56.7793 42.4149 56.7583C43.1008 56.7927 43.7749 56.5693 44.3044 56.132L43.7552 55.2091C43.3601 55.5102 42.8785 55.6759 42.3819 55.6815C41.9537 55.6555 41.5516 55.4671 41.2576 55.1548C40.9636 54.8424 40.7999 54.4296 40.7999 54.0006C40.7999 53.5717 40.9636 53.1589 41.2576 52.8465C41.5516 52.5341 41.9537 52.3457 42.3819 52.3198C42.8785 52.3254 43.3602 52.4911 43.7552 52.7922L44.3044 51.8693C43.7748 51.432 43.1008 51.2087 42.4149 51.2431C42.0452 51.2221 41.6753 51.2787 41.3288 51.4092C40.9823 51.5397 40.667 51.7414 40.4031 52.0011C40.1392 52.2608 39.9326 52.5729 39.7966 52.9172C39.6605 53.2616 39.5981 53.6306 39.6132 54.0006V54.0006ZM50.314 54.0006V51.375H49.1714V52.0121C48.9764 51.7608 48.724 51.5598 48.4354 51.4261C48.1467 51.2923 47.8303 51.2295 47.5124 51.2431C46.8045 51.2778 46.137 51.5835 45.6482 52.0968C45.1594 52.6102 44.8868 53.2919 44.8868 54.0007C44.8868 54.7095 45.1594 55.3912 45.6482 55.9045C46.137 56.4179 46.8045 56.7236 47.5124 56.7583C47.8303 56.7718 48.1468 56.7091 48.4354 56.5753C48.724 56.4415 48.9764 56.2405 49.1714 55.9891V56.6264H50.314V54.0006ZM46.0622 54.0006C46.08 53.6907 46.188 53.3927 46.373 53.1435C46.558 52.8943 46.812 52.7047 47.1035 52.5981C47.395 52.4914 47.7113 52.4724 48.0135 52.5434C48.3156 52.6144 48.5904 52.7723 48.8039 52.9976C49.0174 53.2228 49.1604 53.5057 49.215 53.8112C49.2697 54.1168 49.2338 54.4316 49.1117 54.717C48.9896 55.0024 48.7866 55.2457 48.5278 55.4171C48.269 55.5885 47.9657 55.6804 47.6553 55.6815C47.4378 55.6845 47.222 55.6423 47.0215 55.5577C46.821 55.4731 46.6403 55.3479 46.4906 55.19C46.3409 55.032 46.2256 54.8448 46.1519 54.6401C46.0781 54.4354 46.0476 54.2176 46.0622 54.0006V54.0006ZM32.2745 51.2431C31.562 51.2806 30.8916 51.5926 30.4042 52.1136C29.9167 52.6347 29.65 53.3243 29.6599 54.0377C29.6699 54.7511 29.9557 55.433 30.4575 55.9402C30.9593 56.4475 31.6381 56.7406 32.3514 56.7583C33.1352 56.7858 33.9018 56.5237 34.5047 56.0221L33.9443 55.1762C33.5105 55.5239 32.9732 55.7172 32.4173 55.7255C32.0397 55.7572 31.6646 55.6408 31.3714 55.4009C31.0782 55.161 30.8898 54.8164 30.8462 54.44H34.7464C34.7574 54.2973 34.7683 54.1544 34.7683 54.0006C34.7574 52.3637 33.7466 51.2431 32.2745 51.2431V51.2431ZM32.2524 52.2648C32.5976 52.2581 32.9313 52.3885 33.1805 52.6273C33.4296 52.8662 33.574 53.1941 33.5818 53.5392H30.8572C30.8773 53.1867 31.0345 52.8559 31.2952 52.6178C31.5559 52.3796 31.8995 52.2529 32.2524 52.2648V52.2648ZM60.9158 54.0006V49.2656H59.7732V52.0121C59.5781 51.7608 59.3258 51.5598 59.0372 51.4261C58.7485 51.2923 58.4321 51.2295 58.1143 51.2431C57.4063 51.2778 56.7387 51.5835 56.2499 52.0968C55.7611 52.6102 55.4885 53.2918 55.4885 54.0007C55.4885 54.7095 55.7611 55.3912 56.2499 55.9046C56.7387 56.4179 57.4063 56.7236 58.1143 56.7583C58.4321 56.7718 58.7486 56.7091 59.0372 56.5753C59.3258 56.4415 59.5782 56.2405 59.7732 55.9891V56.6264H60.9158V54.0006ZM62.8204 55.8653C62.8914 55.8649 62.9617 55.8788 63.0271 55.9063C63.09 55.9326 63.1473 55.9706 63.196 56.0183C63.2443 56.0658 63.2829 56.1223 63.3098 56.1846C63.3372 56.2485 63.3514 56.3174 63.3514 56.387C63.3514 56.4566 63.3372 56.5255 63.3098 56.5895C63.2827 56.6515 63.2441 56.7077 63.196 56.7552C63.1472 56.8028 63.0899 56.841 63.0271 56.8677C62.9618 56.8956 62.8914 56.9098 62.8204 56.9093C62.7159 56.9104 62.6134 56.8806 62.5257 56.8237C62.438 56.7668 62.369 56.6854 62.3273 56.5895C62.2999 56.5255 62.2858 56.4566 62.2858 56.387C62.2858 56.3174 62.2999 56.2485 62.3273 56.1846C62.3541 56.1224 62.3925 56.0659 62.4406 56.0183C62.4892 55.9702 62.5468 55.9322 62.6101 55.9063C62.6767 55.8787 62.7483 55.8648 62.8204 55.8653V55.8653ZM62.8204 56.7942C62.8745 56.7946 62.9282 56.7837 62.9779 56.7622C63.0256 56.7415 63.0689 56.7119 63.1057 56.6752C63.1816 56.5986 63.2241 56.4951 63.2241 56.3873C63.2241 56.2795 63.1816 56.176 63.1057 56.0994C63.069 56.0627 63.0256 56.0335 62.9779 56.0131C62.9281 55.992 62.8745 55.9813 62.8204 55.9818C62.7653 55.9814 62.7108 55.992 62.6599 56.0131C62.6114 56.0331 62.5673 56.0624 62.5301 56.0994C62.4542 56.176 62.4116 56.2795 62.4116 56.3873C62.4116 56.4951 62.4542 56.5986 62.5301 56.6752C62.5674 56.7122 62.6114 56.7418 62.6599 56.7622C62.7107 56.7837 62.7653 56.7945 62.8204 56.7942V56.7942ZM62.8511 56.1429C62.9025 56.1396 62.9535 56.1543 62.9951 56.1846C63.0117 56.1982 63.0249 56.2156 63.0337 56.2352C63.0425 56.2549 63.0465 56.2763 63.0456 56.2978C63.0462 56.3162 63.0429 56.3345 63.036 56.3516C63.029 56.3686 63.0186 56.3841 63.0053 56.3968C62.9735 56.4251 62.9332 56.442 62.8908 56.4449L63.0494 56.6278H62.9254L62.7783 56.4461H62.7309V56.6278H62.6273V56.1429H62.8511ZM62.7309 56.2338V56.363H62.8499C62.8728 56.3642 62.8955 56.3586 62.9152 56.347C62.9232 56.3416 62.9296 56.3343 62.9339 56.3256C62.9382 56.317 62.9401 56.3074 62.9394 56.2978C62.9399 56.2883 62.938 56.2789 62.9337 56.2705C62.9295 56.2621 62.9231 56.2549 62.9152 56.2497C62.8954 56.2382 62.8728 56.2327 62.8499 56.2338H62.7309ZM56.6641 54.0006C56.6818 53.6907 56.7899 53.3928 56.9749 53.1436C57.16 52.8944 57.4139 52.7048 57.7054 52.5982C57.9968 52.4916 58.3132 52.4726 58.6153 52.5436C58.9175 52.6146 59.1922 52.7725 59.4057 52.9977C59.6192 53.223 59.7621 53.5059 59.8168 53.8114C59.8714 54.1169 59.8355 54.4318 59.7134 54.7171C59.5912 55.0025 59.3883 55.2458 59.1295 55.4172C58.8707 55.5886 58.5674 55.6804 58.2571 55.6815C58.0395 55.6845 57.8237 55.6423 57.6233 55.5577C57.4228 55.4731 57.2421 55.3479 57.0924 55.1899C56.9427 55.032 56.8274 54.8448 56.7537 54.6401C56.68 54.4354 56.6495 54.2176 56.6641 54.0006V54.0006ZM18.0801 54.0006V51.375H16.9375V52.0121C16.7425 51.7608 16.4901 51.5598 16.2015 51.4261C15.9129 51.2923 15.5964 51.2295 15.2786 51.2431C14.5706 51.2778 13.9031 51.5835 13.4143 52.0968C12.9255 52.6102 12.6529 53.2919 12.6529 54.0007C12.6529 54.7095 12.9255 55.3912 13.4143 55.9045C13.9031 56.4179 14.5706 56.7236 15.2786 56.7583C15.5964 56.7718 15.9129 56.7091 16.2015 56.5753C16.4901 56.4415 16.7425 56.2405 16.9375 55.9891V56.6264H18.0801V54.0006ZM13.8284 54.0006C13.8462 53.6907 13.9542 53.3928 14.1393 53.1436C14.3243 52.8944 14.5782 52.7048 14.8697 52.5982C15.1612 52.4916 15.4775 52.4726 15.7797 52.5436C16.0818 52.6146 16.3566 52.7725 16.5701 52.9977C16.7836 53.223 16.9264 53.5059 16.9811 53.8114C17.0358 54.1169 16.9998 54.4318 16.8777 54.7171C16.7556 55.0025 16.5526 55.2458 16.2938 55.4172C16.035 55.5886 15.7318 55.6805 15.4214 55.6815C15.2038 55.6845 14.988 55.6423 14.7876 55.5577C14.5871 55.4731 14.4064 55.3479 14.2567 55.1899C14.1071 55.032 13.9918 54.8448 13.9181 54.6401C13.8443 54.4354 13.8138 54.2176 13.8284 54.0006V54.0006Z" fill="#231F20"/>
<path d="M40.6535 11.3516H23.3477V42.4506H40.6535V11.3516Z" fill="#FF5F00"/>
<path d="M24.4463 26.9031C24.4436 23.908 25.1223 20.9516 26.4311 18.2576C27.7398 15.5636 29.6443 13.2027 32.0004 11.3536C29.0827 9.0602 25.5787 7.634 21.8888 7.23796C18.1989 6.84192 14.472 7.49202 11.1341 9.11397C7.79616 10.7359 4.98191 13.2642 3.01302 16.41C1.04412 19.5558 0 23.192 0 26.9031C0 30.6142 1.04412 34.2505 3.01302 37.3962C4.98191 40.542 7.79616 43.0703 11.1341 44.6922C14.472 46.3142 18.1989 46.9643 21.8888 46.5682C25.5787 46.1722 29.0827 44.746 32.0004 42.4526C29.6443 40.6035 27.7398 38.2426 26.4311 35.5486C25.1223 32.8546 24.4436 29.8982 24.4463 26.9031V26.9031Z" fill="#EB001B"/>
<path d="M64.0004 26.9031C64.0005 30.6141 62.9565 34.2504 60.9877 37.3961C59.019 40.5419 56.2048 43.0702 52.867 44.6922C49.5291 46.3142 45.8023 46.9643 42.1124 46.5682C38.4226 46.1722 34.9186 44.746 32.001 42.4526C34.355 40.6016 36.258 38.2403 37.5665 35.5467C38.8751 32.8532 39.555 29.8977 39.555 26.9031C39.555 23.9085 38.8751 20.953 37.5665 18.2594C36.258 15.5659 34.355 13.2046 32.001 11.3536C34.9186 9.0602 38.4226 7.63399 42.1124 7.23795C45.8023 6.84192 49.5291 7.49203 52.867 9.11399C56.2048 10.736 59.019 13.2643 60.9877 16.4101C62.9565 19.5558 64.0005 23.192 64.0004 26.9031V26.9031Z" fill="#F79E1B"/>
<path d="M62.1129 39.1583V38.5216H62.3697V38.3919H61.7158V38.5216H61.9727V39.1583H62.1129ZM63.3823 39.1583V38.3906H63.1819L62.9514 38.9187L62.7208 38.3906H62.5202V39.1583H62.6618V38.5792L62.878 39.0785H63.0247L63.2409 38.578V39.1583H63.3823Z" fill="#F79E1B"/>
</svg>
