<svg width="64" height="64" viewBox="0 0 64 64" fill="none" xmlns="http://www.w3.org/2000/svg">
<g clip-path="url(#clip0_1336_4421)">
<path d="M43.1868 23.5H38.2081C37.8682 23.5 37.5785 23.7475 37.5254 24.0838L35.5121 36.8486C35.472 37.1004 35.6671 37.3275 35.9211 37.3275H38.476C38.7133 37.3275 38.9164 37.1543 38.9535 36.9185L39.5249 33.3002C39.5773 32.9632 39.8677 32.7157 40.2076 32.7157H41.7827C45.0626 32.7157 46.9543 31.1289 47.4493 27.9845C47.6727 26.6088 47.458 25.5279 46.8138 24.7709C46.1071 23.9396 44.8529 23.5 43.1868 23.5ZM43.7611 28.1621C43.4896 29.9483 42.1249 29.9483 40.8045 29.9483H40.054L40.5817 26.6124C40.613 26.4108 40.7863 26.2623 40.9908 26.2623H41.3351C42.2333 26.2623 43.082 26.2623 43.5202 26.7747C43.7815 27.0804 43.8608 27.5346 43.7611 28.1621Z" fill="#179BD7"/>
<path d="M58.0657 28.107H55.6833C55.4788 28.107 55.3048 28.2555 55.2742 28.4571L55.1687 29.1238L55.0013 28.8822C54.4852 28.1332 53.3352 27.8828 52.1866 27.8828C49.5524 27.8828 47.3032 29.8779 46.8651 32.6766C46.638 34.0727 46.9604 35.4076 47.7523 36.3386C48.4802 37.1946 49.5182 37.5512 50.7548 37.5512C52.8773 37.5512 54.0543 36.1865 54.0543 36.1865L53.9481 36.8488C53.908 37.1021 54.1031 37.3292 54.3586 37.3292H56.5051C56.845 37.3292 57.1347 37.0818 57.1878 36.7447L58.4769 28.5859C58.5162 28.3348 58.3211 28.107 58.0657 28.107ZM54.7429 32.7465C54.5143 34.1084 53.432 35.0226 52.0534 35.0226C51.3626 35.0226 50.808 34.8006 50.4528 34.3799C50.1005 33.9621 49.968 33.3674 50.0786 32.705C50.2948 31.3548 51.3925 30.4107 52.75 30.4107C53.4269 30.4107 53.9772 30.6357 54.3397 31.06C54.7043 31.4887 54.8484 32.087 54.7429 32.7465Z" fill="#179BD7"/>
<path d="M60.8765 23.8508L58.8334 36.8493C58.7933 37.1012 58.9884 37.3283 59.2424 37.3283H61.2965C61.6379 37.3283 61.9276 37.0808 61.98 36.7438L63.9948 23.9797C64.0348 23.7278 63.8397 23.5 63.5857 23.5H61.2856C61.0825 23.5007 60.9078 23.6492 60.8765 23.8508Z" fill="#179BD7"/>
<path d="M7.67999 23.5H2.70202C2.36137 23.5 2.07167 23.7475 2.01854 24.0838L0.00522591 36.8486C-0.0348075 37.1004 0.160264 37.3275 0.415749 37.3275H2.79228C3.13292 37.3275 3.42262 37.08 3.47576 36.743L4.01875 33.3002C4.07116 32.9632 4.36158 32.7157 4.7015 32.7157H6.27736C9.55646 32.7157 11.4489 31.1289 11.9432 27.9845C12.1659 26.6088 11.9526 25.5279 11.3085 24.7709C10.601 23.9396 9.3461 23.5 7.67999 23.5ZM8.25428 28.1621C7.98206 29.9483 6.61728 29.9483 5.29764 29.9483H4.54646L5.07345 26.6124C5.10475 26.4108 5.27944 26.2623 5.48325 26.2623H5.82753C6.72646 26.2623 7.57444 26.2623 8.01263 26.7747C8.27394 27.0804 8.354 27.5346 8.25428 28.1621Z" fill="#253B80"/>
<path d="M22.56 28.1031H20.1762C19.9731 28.1031 19.7977 28.2516 19.7664 28.4532L19.6608 29.1199L19.4942 28.8783C18.9781 28.1293 17.8273 27.8789 16.6787 27.8789C14.0445 27.8789 11.7947 29.874 11.3565 32.6727C11.1286 34.0688 11.4525 35.4037 12.2445 36.3347C12.9709 37.1907 14.0103 37.5473 15.247 37.5473C17.3695 37.5473 18.5465 36.1826 18.5465 36.1826L18.4402 36.8449C18.4002 37.0982 18.5952 37.3253 18.8493 37.3253H20.9965C21.3379 37.3253 21.6261 37.0778 21.68 36.7408L22.9683 28.582C23.0091 28.3309 22.8147 28.1031 22.56 28.1031ZM19.2372 32.7426C19.0072 34.1045 17.9263 35.0187 16.5477 35.0187C15.8555 35.0187 15.3023 34.7967 14.9471 34.376C14.5948 33.9582 14.4609 33.3635 14.573 32.7011C14.7877 31.3509 15.8868 30.4068 17.2443 30.4068C17.9212 30.4068 18.4715 30.6317 18.834 31.0561C19.1972 31.4848 19.3413 32.0831 19.2372 32.7426Z" fill="#253B80"/>
<path d="M35.2559 28.1055H32.8604C32.6318 28.1055 32.4171 28.219 32.2876 28.409L28.9837 33.2756L27.5833 28.599C27.4952 28.3064 27.2252 28.1055 26.9194 28.1055H24.5655C24.2794 28.1055 24.0807 28.385 24.1717 28.6543L26.8103 36.3975L24.3297 39.8993C24.1346 40.1752 24.3311 40.5544 24.6681 40.5544H27.0607C27.2878 40.5544 27.5003 40.4438 27.6291 40.2574L35.5965 28.7569C35.7872 28.4818 35.5914 28.1055 35.2559 28.1055Z" fill="#253B80"/>
</g>
<defs>
<clipPath id="clip0_1336_4421">
<rect width="64" height="64" fill="white"/>
</clipPath>
</defs>
</svg>
