<svg width="44" height="32" viewBox="0 0 44 32" fill="none" xmlns="http://www.w3.org/2000/svg">
<g clip-path="url(#clip0_1347_2973)">
<rect width="44" height="32" rx="3" fill="white"/>
<path fill-rule="evenodd" clip-rule="evenodd" d="M0 21.332H44V31.9987H0V21.332Z" fill="#249F58"/>
<path fill-rule="evenodd" clip-rule="evenodd" d="M22.0001 21.3346C24.8915 21.3346 27.2382 18.9453 27.2382 16.0013C27.2382 13.0573 24.8915 10.668 22.0001 10.668C19.1086 10.668 16.762 13.0573 16.762 16.0013C16.762 18.9453 19.1086 21.3346 22.0001 21.3346ZM22.0001 19.2013C23.7349 19.2013 25.1429 17.7677 25.1429 16.0013C25.1429 14.2349 23.7349 12.8013 22.0001 12.8013C20.2652 12.8013 18.8572 14.2349 18.8572 16.0013C18.8572 17.7677 20.2652 19.2013 22.0001 19.2013Z" fill="#1A47B8"/>
<path d="M22 17.0669C22.5786 17.0669 23.0476 16.5894 23.0476 16.0003C23.0476 15.4112 22.5786 14.9336 22 14.9336C21.4214 14.9336 20.9524 15.4112 20.9524 16.0003C20.9524 16.5894 21.4214 17.0669 22 17.0669Z" fill="#1A47B8"/>
<path fill-rule="evenodd" clip-rule="evenodd" d="M0 0H44V10.6667H0V0Z" fill="#FF6C2D"/>
</g>
<defs>
<clipPath id="clip0_1347_2973">
<rect width="44" height="32" rx="3" fill="white"/>
</clipPath>
</defs>
</svg>
