<svg width="44" height="32" viewBox="0 0 44 32" fill="none" xmlns="http://www.w3.org/2000/svg">
<rect width="44" height="32" rx="3" fill="#F93939"/>
<path fill-rule="evenodd" clip-rule="evenodd" d="M29.3377 18.4603L26.9031 19.7616L27.3682 17.0032L25.3987 15.0469L28.1225 14.6416L29.3377 12.1328L30.553 14.6437L33.2768 15.0491L31.3073 17.0011L31.7724 19.7595" fill="white"/>
<path fill-rule="evenodd" clip-rule="evenodd" d="M19.9049 23.4685C23.955 23.4685 27.2382 20.1256 27.2382 16.0018C27.2382 11.8781 23.955 8.53516 19.9049 8.53516C15.8548 8.53516 12.5715 11.8781 12.5715 16.0018C12.5715 20.1256 15.8548 23.4685 19.9049 23.4685ZM22.0001 21.3352C24.8915 21.3352 27.2382 18.9458 27.2382 16.0018C27.2382 13.0578 24.8915 10.6685 22.0001 10.6685C19.1087 10.6685 16.762 13.0578 16.762 16.0018C16.762 18.9458 19.1087 21.3352 22.0001 21.3352Z" fill="white"/>
</svg>
